M48
; DRILL file {KiCad 8.0.8} date 2025-03-25T01:40:33-0400
; FORMAT={-:-/ absolute / inch / decimal}
; #@! TF.CreationDate,2025-03-25T01:40:33-04:00
; #@! TF.GenerationSoftware,Kicad,Pcbnew,8.0.8
; #@! TF.FileFunction,Plated,1,2,PTH
FMAT,2
INCH
; #@! TA.AperFunction,Plated,PTH,ViaDrill
T1C0.0157
; #@! TA.AperFunction,Plated,PTH,ComponentDrill
T2C0.0315
; #@! TA.AperFunction,Plated,PTH,ComponentDrill
T3C0.0394
%
G90
G05
T1
X4.337Y-3.7376
X4.517Y-2.837
X4.937Y-2.537
X5.337Y-3.187
X6.647Y-2.037
X6.647Y-2.087
X6.647Y-2.137
T2
X4.0843Y-2.717
X4.087Y-2.397
X4.137Y-2.9886
X4.137Y-3.087
X4.137Y-3.3386
X4.137Y-3.437
X4.1827Y-2.717
X4.1854Y-2.397
X4.337Y-3.487
X4.3866Y-3.0366
X4.3866Y-3.1366
X4.3866Y-3.2366
X4.3866Y-3.3366
X4.387Y-2.837
X4.537Y-3.687
X4.537Y-3.8248
X4.6866Y-3.0366
X4.6866Y-3.1366
X4.6866Y-3.2366
X4.6866Y-3.3366
X4.737Y-3.487
X4.787Y-2.837
X4.8864Y-3.187
X4.9864Y-3.087
X4.9864Y-3.287
X4.987Y-2.6886
X4.987Y-2.787
T3
X3.887Y-1.937
X3.987Y-1.937
X4.087Y-1.937
X4.137Y-3.6376
X4.137Y-3.7376
X4.137Y-3.8376
X4.187Y-1.937
X4.437Y-2.537
X4.5866Y-2.537
X4.677Y-1.937
X4.6773Y-2.0363
X4.7402Y-2.287
X4.777Y-1.937
X4.7773Y-2.0363
X4.877Y-1.937
X4.8773Y-2.0363
X4.977Y-1.937
X4.9773Y-2.0363
X5.037Y-3.837
X5.0378Y-3.737
X5.077Y-1.937
X5.0773Y-2.0363
X5.1339Y-2.287
X5.137Y-3.837
X5.1378Y-3.737
X5.177Y-1.937
X5.1773Y-2.0363
X5.237Y-3.837
X5.2378Y-3.737
X5.277Y-1.937
X5.2773Y-2.0363
X5.337Y-3.837
X5.3378Y-3.737
X5.377Y-1.937
X5.3773Y-2.0363
X5.437Y-2.237
X5.437Y-2.387
X5.437Y-3.387
X5.437Y-3.537
X5.437Y-3.837
X5.4378Y-3.737
X5.477Y-1.937
X5.4773Y-2.0363
X5.537Y-2.237
X5.537Y-2.387
X5.537Y-3.387
X5.537Y-3.537
X5.537Y-3.837
X5.5378Y-3.737
X5.577Y-1.937
X5.5773Y-2.0363
X5.637Y-2.237
X5.637Y-2.387
X5.637Y-3.387
X5.637Y-3.537
X5.637Y-3.837
X5.6378Y-3.737
X5.737Y-1.937
X5.737Y-2.037
X5.737Y-2.237
X5.737Y-2.387
X5.737Y-3.387
X5.737Y-3.537
X5.737Y-3.837
X5.7378Y-3.737
X5.837Y-1.937
X5.837Y-2.037
X5.837Y-2.237
X5.837Y-2.387
X5.837Y-3.387
X5.837Y-3.537
X5.937Y-1.937
X5.937Y-2.037
X5.937Y-2.237
X5.937Y-2.387
X5.937Y-3.387
X5.937Y-3.537
X5.937Y-3.737
X5.937Y-3.837
X6.037Y-1.937
X6.037Y-2.037
X6.037Y-2.237
X6.037Y-2.387
X6.037Y-3.387
X6.037Y-3.537
X6.037Y-3.737
X6.037Y-3.837
X6.137Y-1.937
X6.137Y-2.037
X6.137Y-2.237
X6.137Y-2.387
X6.137Y-3.387
X6.137Y-3.537
X6.137Y-3.737
X6.137Y-3.837
X6.237Y-1.937
X6.237Y-2.037
X6.237Y-2.237
X6.237Y-2.387
X6.237Y-3.387
X6.237Y-3.537
X6.237Y-3.737
X6.237Y-3.837
X6.337Y-1.937
X6.337Y-2.037
X6.337Y-2.237
X6.337Y-2.387
X6.337Y-3.387
X6.337Y-3.537
X6.337Y-3.737
X6.337Y-3.837
X6.437Y-1.937
X6.437Y-2.037
X6.437Y-2.237
X6.437Y-2.387
X6.437Y-3.387
X6.437Y-3.537
X6.437Y-3.737
X6.437Y-3.837
X6.537Y-2.237
X6.537Y-2.387
X6.537Y-3.387
X6.537Y-3.537
X6.587Y-3.787
X6.637Y-2.237
X6.637Y-2.387
X6.637Y-3.387
X6.637Y-3.537
X6.687Y-3.787
X6.737Y-2.237
X6.737Y-2.387
X6.737Y-3.387
X6.737Y-3.537
X6.7374Y-1.937
X6.787Y-3.787
X6.837Y-2.237
X6.837Y-2.387
X6.837Y-3.387
X6.837Y-3.537
X6.8374Y-1.937
X6.887Y-3.787
X6.937Y-2.237
X6.937Y-2.387
X6.937Y-3.387
X6.937Y-3.537
X6.9374Y-1.937
X6.987Y-3.787
X7.037Y-2.237
X7.037Y-2.387
X7.037Y-3.387
X7.037Y-3.537
X7.0374Y-1.937
X7.087Y-3.787
X7.137Y-2.237
X7.137Y-2.387
X7.137Y-3.387
X7.137Y-3.537
X7.187Y-3.787
X7.237Y-2.237
X7.237Y-2.387
X7.237Y-3.387
X7.237Y-3.537
X7.287Y-3.787
M30
