%TF.GenerationSoftware,KiCad,Pcbnew,8.0.8*%
%TF.CreationDate,2025-03-25T01:40:29-04:00*%
%TF.ProjectId,SmartValvePCBv2,536d6172-7456-4616-9c76-655043427632,rev?*%
%TF.SameCoordinates,Original*%
%TF.FileFunction,Profile,NP*%
%FSLAX46Y46*%
G04 Gerber Fmt 4.6, Leading zero omitted, Abs format (unit mm)*
G04 Created by KiCad (PCBNEW 8.0.8) date 2025-03-25 01:40:29*
%MOMM*%
%LPD*%
G01*
G04 APERTURE LIST*
%TA.AperFunction,Profile*%
%ADD10C,0.150000*%
%TD*%
G04 APERTURE END LIST*
D10*
X100000000Y-61900000D02*
X100000000Y-99238000D01*
X187500000Y-61855000D02*
X187500000Y-96145000D01*
X165278000Y-100000000D02*
X100762000Y-100000000D01*
X186536855Y-99987938D02*
X186734855Y-99942938D01*
X187500000Y-96145000D02*
X187499452Y-98492461D01*
X186360000Y-100000000D02*
X186536855Y-99987938D01*
X100762000Y-46660000D02*
X163500000Y-46660000D01*
X100762000Y-46660000D02*
X94920000Y-46660000D01*
X100762000Y-100000000D02*
G75*
G02*
X100000000Y-99238000I0J762000D01*
G01*
X165278000Y-100000000D02*
X184000000Y-100000000D01*
X187496855Y-98672938D02*
X187499452Y-98492461D01*
X163500000Y-46660000D02*
X182420000Y-46615000D01*
X94920000Y-46660000D02*
X94920000Y-61900000D01*
X182420000Y-46615000D02*
X184960000Y-49155000D01*
X94920000Y-61900000D02*
X100000000Y-61900000D01*
X184000000Y-100000000D02*
X186360000Y-100000000D01*
X184960000Y-49155000D02*
X187500000Y-51695000D01*
X187496855Y-99180938D02*
G75*
G02*
X186734855Y-99942855I-761955J38D01*
G01*
X187500000Y-51695000D02*
X187500000Y-61855000D01*
X187496855Y-98672938D02*
X187496855Y-99180938D01*
M02*
