%TF.GenerationSoftware,KiCad,Pcbnew,8.0.8*%
%TF.CreationDate,2025-03-25T01:40:29-04:00*%
%TF.ProjectId,SmartValvePCBv2,536d6172-7456-4616-9c76-655043427632,rev?*%
%TF.SameCoordinates,Original*%
%TF.FileFunction,AssemblyDrawing,Bot*%
%FSLAX46Y46*%
G04 Gerber Fmt 4.6, Leading zero omitted, Abs format (unit mm)*
G04 Created by KiCad (PCBNEW 8.0.8) date 2025-03-25 01:40:29*
%MOMM*%
%LPD*%
G01*
G04 APERTURE LIST*
%ADD10C,0.150000*%
%ADD11C,0.100000*%
G04 APERTURE END LIST*
D10*
X187719580Y-96836904D02*
X187767200Y-96789285D01*
X187767200Y-96789285D02*
X187814819Y-96646428D01*
X187814819Y-96646428D02*
X187814819Y-96551190D01*
X187814819Y-96551190D02*
X187767200Y-96408333D01*
X187767200Y-96408333D02*
X187671961Y-96313095D01*
X187671961Y-96313095D02*
X187576723Y-96265476D01*
X187576723Y-96265476D02*
X187386247Y-96217857D01*
X187386247Y-96217857D02*
X187243390Y-96217857D01*
X187243390Y-96217857D02*
X187052914Y-96265476D01*
X187052914Y-96265476D02*
X186957676Y-96313095D01*
X186957676Y-96313095D02*
X186862438Y-96408333D01*
X186862438Y-96408333D02*
X186814819Y-96551190D01*
X186814819Y-96551190D02*
X186814819Y-96646428D01*
X186814819Y-96646428D02*
X186862438Y-96789285D01*
X186862438Y-96789285D02*
X186910057Y-96836904D01*
X187814819Y-97408333D02*
X187767200Y-97313095D01*
X187767200Y-97313095D02*
X187719580Y-97265476D01*
X187719580Y-97265476D02*
X187624342Y-97217857D01*
X187624342Y-97217857D02*
X187338628Y-97217857D01*
X187338628Y-97217857D02*
X187243390Y-97265476D01*
X187243390Y-97265476D02*
X187195771Y-97313095D01*
X187195771Y-97313095D02*
X187148152Y-97408333D01*
X187148152Y-97408333D02*
X187148152Y-97551190D01*
X187148152Y-97551190D02*
X187195771Y-97646428D01*
X187195771Y-97646428D02*
X187243390Y-97694047D01*
X187243390Y-97694047D02*
X187338628Y-97741666D01*
X187338628Y-97741666D02*
X187624342Y-97741666D01*
X187624342Y-97741666D02*
X187719580Y-97694047D01*
X187719580Y-97694047D02*
X187767200Y-97646428D01*
X187767200Y-97646428D02*
X187814819Y-97551190D01*
X187814819Y-97551190D02*
X187814819Y-97408333D01*
X187148152Y-98170238D02*
X187814819Y-98170238D01*
X187243390Y-98170238D02*
X187195771Y-98217857D01*
X187195771Y-98217857D02*
X187148152Y-98313095D01*
X187148152Y-98313095D02*
X187148152Y-98455952D01*
X187148152Y-98455952D02*
X187195771Y-98551190D01*
X187195771Y-98551190D02*
X187291009Y-98598809D01*
X187291009Y-98598809D02*
X187814819Y-98598809D01*
X187148152Y-99075000D02*
X187814819Y-99075000D01*
X187243390Y-99075000D02*
X187195771Y-99122619D01*
X187195771Y-99122619D02*
X187148152Y-99217857D01*
X187148152Y-99217857D02*
X187148152Y-99360714D01*
X187148152Y-99360714D02*
X187195771Y-99455952D01*
X187195771Y-99455952D02*
X187291009Y-99503571D01*
X187291009Y-99503571D02*
X187814819Y-99503571D01*
X187910057Y-99741667D02*
X187910057Y-100503571D01*
X186814819Y-100932143D02*
X186814819Y-101027381D01*
X186814819Y-101027381D02*
X186862438Y-101122619D01*
X186862438Y-101122619D02*
X186910057Y-101170238D01*
X186910057Y-101170238D02*
X187005295Y-101217857D01*
X187005295Y-101217857D02*
X187195771Y-101265476D01*
X187195771Y-101265476D02*
X187433866Y-101265476D01*
X187433866Y-101265476D02*
X187624342Y-101217857D01*
X187624342Y-101217857D02*
X187719580Y-101170238D01*
X187719580Y-101170238D02*
X187767200Y-101122619D01*
X187767200Y-101122619D02*
X187814819Y-101027381D01*
X187814819Y-101027381D02*
X187814819Y-100932143D01*
X187814819Y-100932143D02*
X187767200Y-100836905D01*
X187767200Y-100836905D02*
X187719580Y-100789286D01*
X187719580Y-100789286D02*
X187624342Y-100741667D01*
X187624342Y-100741667D02*
X187433866Y-100694048D01*
X187433866Y-100694048D02*
X187195771Y-100694048D01*
X187195771Y-100694048D02*
X187005295Y-100741667D01*
X187005295Y-100741667D02*
X186910057Y-100789286D01*
X186910057Y-100789286D02*
X186862438Y-100836905D01*
X186862438Y-100836905D02*
X186814819Y-100932143D01*
X187814819Y-102217857D02*
X187814819Y-101646429D01*
X187814819Y-101932143D02*
X186814819Y-101932143D01*
X186814819Y-101932143D02*
X186957676Y-101836905D01*
X186957676Y-101836905D02*
X187052914Y-101741667D01*
X187052914Y-101741667D02*
X187100533Y-101646429D01*
X187814819Y-102551191D02*
X187148152Y-103075000D01*
X187148152Y-102551191D02*
X187814819Y-103075000D01*
X186814819Y-103646429D02*
X186814819Y-103741667D01*
X186814819Y-103741667D02*
X186862438Y-103836905D01*
X186862438Y-103836905D02*
X186910057Y-103884524D01*
X186910057Y-103884524D02*
X187005295Y-103932143D01*
X187005295Y-103932143D02*
X187195771Y-103979762D01*
X187195771Y-103979762D02*
X187433866Y-103979762D01*
X187433866Y-103979762D02*
X187624342Y-103932143D01*
X187624342Y-103932143D02*
X187719580Y-103884524D01*
X187719580Y-103884524D02*
X187767200Y-103836905D01*
X187767200Y-103836905D02*
X187814819Y-103741667D01*
X187814819Y-103741667D02*
X187814819Y-103646429D01*
X187814819Y-103646429D02*
X187767200Y-103551191D01*
X187767200Y-103551191D02*
X187719580Y-103503572D01*
X187719580Y-103503572D02*
X187624342Y-103455953D01*
X187624342Y-103455953D02*
X187433866Y-103408334D01*
X187433866Y-103408334D02*
X187195771Y-103408334D01*
X187195771Y-103408334D02*
X187005295Y-103455953D01*
X187005295Y-103455953D02*
X186910057Y-103503572D01*
X186910057Y-103503572D02*
X186862438Y-103551191D01*
X186862438Y-103551191D02*
X186814819Y-103646429D01*
X187243390Y-104551191D02*
X187195771Y-104455953D01*
X187195771Y-104455953D02*
X187148152Y-104408334D01*
X187148152Y-104408334D02*
X187052914Y-104360715D01*
X187052914Y-104360715D02*
X187005295Y-104360715D01*
X187005295Y-104360715D02*
X186910057Y-104408334D01*
X186910057Y-104408334D02*
X186862438Y-104455953D01*
X186862438Y-104455953D02*
X186814819Y-104551191D01*
X186814819Y-104551191D02*
X186814819Y-104741667D01*
X186814819Y-104741667D02*
X186862438Y-104836905D01*
X186862438Y-104836905D02*
X186910057Y-104884524D01*
X186910057Y-104884524D02*
X187005295Y-104932143D01*
X187005295Y-104932143D02*
X187052914Y-104932143D01*
X187052914Y-104932143D02*
X187148152Y-104884524D01*
X187148152Y-104884524D02*
X187195771Y-104836905D01*
X187195771Y-104836905D02*
X187243390Y-104741667D01*
X187243390Y-104741667D02*
X187243390Y-104551191D01*
X187243390Y-104551191D02*
X187291009Y-104455953D01*
X187291009Y-104455953D02*
X187338628Y-104408334D01*
X187338628Y-104408334D02*
X187433866Y-104360715D01*
X187433866Y-104360715D02*
X187624342Y-104360715D01*
X187624342Y-104360715D02*
X187719580Y-104408334D01*
X187719580Y-104408334D02*
X187767200Y-104455953D01*
X187767200Y-104455953D02*
X187814819Y-104551191D01*
X187814819Y-104551191D02*
X187814819Y-104741667D01*
X187814819Y-104741667D02*
X187767200Y-104836905D01*
X187767200Y-104836905D02*
X187719580Y-104884524D01*
X187719580Y-104884524D02*
X187624342Y-104932143D01*
X187624342Y-104932143D02*
X187433866Y-104932143D01*
X187433866Y-104932143D02*
X187338628Y-104884524D01*
X187338628Y-104884524D02*
X187291009Y-104836905D01*
X187291009Y-104836905D02*
X187243390Y-104741667D01*
X180104761Y-98414819D02*
X180104761Y-99129104D01*
X180104761Y-99129104D02*
X180152380Y-99271961D01*
X180152380Y-99271961D02*
X180247618Y-99367200D01*
X180247618Y-99367200D02*
X180390475Y-99414819D01*
X180390475Y-99414819D02*
X180485713Y-99414819D01*
X179104761Y-99414819D02*
X179676189Y-99414819D01*
X179390475Y-99414819D02*
X179390475Y-98414819D01*
X179390475Y-98414819D02*
X179485713Y-98557676D01*
X179485713Y-98557676D02*
X179580951Y-98652914D01*
X179580951Y-98652914D02*
X179676189Y-98700533D01*
X178152380Y-99414819D02*
X178723808Y-99414819D01*
X178438094Y-99414819D02*
X178438094Y-98414819D01*
X178438094Y-98414819D02*
X178533332Y-98557676D01*
X178533332Y-98557676D02*
X178628570Y-98652914D01*
X178628570Y-98652914D02*
X178723808Y-98700533D01*
X177723808Y-99033866D02*
X176961904Y-99033866D01*
X176485713Y-98414819D02*
X176485713Y-99224342D01*
X176485713Y-99224342D02*
X176438094Y-99319580D01*
X176438094Y-99319580D02*
X176390475Y-99367200D01*
X176390475Y-99367200D02*
X176295237Y-99414819D01*
X176295237Y-99414819D02*
X176104761Y-99414819D01*
X176104761Y-99414819D02*
X176009523Y-99367200D01*
X176009523Y-99367200D02*
X175961904Y-99319580D01*
X175961904Y-99319580D02*
X175914285Y-99224342D01*
X175914285Y-99224342D02*
X175914285Y-98414819D01*
X175485713Y-99367200D02*
X175342856Y-99414819D01*
X175342856Y-99414819D02*
X175104761Y-99414819D01*
X175104761Y-99414819D02*
X175009523Y-99367200D01*
X175009523Y-99367200D02*
X174961904Y-99319580D01*
X174961904Y-99319580D02*
X174914285Y-99224342D01*
X174914285Y-99224342D02*
X174914285Y-99129104D01*
X174914285Y-99129104D02*
X174961904Y-99033866D01*
X174961904Y-99033866D02*
X175009523Y-98986247D01*
X175009523Y-98986247D02*
X175104761Y-98938628D01*
X175104761Y-98938628D02*
X175295237Y-98891009D01*
X175295237Y-98891009D02*
X175390475Y-98843390D01*
X175390475Y-98843390D02*
X175438094Y-98795771D01*
X175438094Y-98795771D02*
X175485713Y-98700533D01*
X175485713Y-98700533D02*
X175485713Y-98605295D01*
X175485713Y-98605295D02*
X175438094Y-98510057D01*
X175438094Y-98510057D02*
X175390475Y-98462438D01*
X175390475Y-98462438D02*
X175295237Y-98414819D01*
X175295237Y-98414819D02*
X175057142Y-98414819D01*
X175057142Y-98414819D02*
X174914285Y-98462438D01*
X174152380Y-98891009D02*
X174009523Y-98938628D01*
X174009523Y-98938628D02*
X173961904Y-98986247D01*
X173961904Y-98986247D02*
X173914285Y-99081485D01*
X173914285Y-99081485D02*
X173914285Y-99224342D01*
X173914285Y-99224342D02*
X173961904Y-99319580D01*
X173961904Y-99319580D02*
X174009523Y-99367200D01*
X174009523Y-99367200D02*
X174104761Y-99414819D01*
X174104761Y-99414819D02*
X174485713Y-99414819D01*
X174485713Y-99414819D02*
X174485713Y-98414819D01*
X174485713Y-98414819D02*
X174152380Y-98414819D01*
X174152380Y-98414819D02*
X174057142Y-98462438D01*
X174057142Y-98462438D02*
X174009523Y-98510057D01*
X174009523Y-98510057D02*
X173961904Y-98605295D01*
X173961904Y-98605295D02*
X173961904Y-98700533D01*
X173961904Y-98700533D02*
X174009523Y-98795771D01*
X174009523Y-98795771D02*
X174057142Y-98843390D01*
X174057142Y-98843390D02*
X174152380Y-98891009D01*
X174152380Y-98891009D02*
X174485713Y-98891009D01*
X172914285Y-99319580D02*
X172961904Y-99367200D01*
X172961904Y-99367200D02*
X173104761Y-99414819D01*
X173104761Y-99414819D02*
X173199999Y-99414819D01*
X173199999Y-99414819D02*
X173342856Y-99367200D01*
X173342856Y-99367200D02*
X173438094Y-99271961D01*
X173438094Y-99271961D02*
X173485713Y-99176723D01*
X173485713Y-99176723D02*
X173533332Y-98986247D01*
X173533332Y-98986247D02*
X173533332Y-98843390D01*
X173533332Y-98843390D02*
X173485713Y-98652914D01*
X173485713Y-98652914D02*
X173438094Y-98557676D01*
X173438094Y-98557676D02*
X173342856Y-98462438D01*
X173342856Y-98462438D02*
X173199999Y-98414819D01*
X173199999Y-98414819D02*
X173104761Y-98414819D01*
X173104761Y-98414819D02*
X172961904Y-98462438D01*
X172961904Y-98462438D02*
X172914285Y-98510057D01*
X171961904Y-99414819D02*
X172533332Y-99414819D01*
X172247618Y-99414819D02*
X172247618Y-98414819D01*
X172247618Y-98414819D02*
X172342856Y-98557676D01*
X172342856Y-98557676D02*
X172438094Y-98652914D01*
X172438094Y-98652914D02*
X172533332Y-98700533D01*
D11*
%TO.C,J11-USBC1*%
X166040000Y-98325000D02*
X166675000Y-97690000D01*
X166040000Y-100230000D02*
X166040000Y-98325000D01*
X166675000Y-97690000D02*
X186360000Y-97690000D01*
X166990000Y-97690000D02*
X166990000Y-95870000D01*
X166990000Y-106230000D02*
X166990000Y-100230000D01*
X167630000Y-95870000D02*
X166990000Y-95870000D01*
X167630000Y-97690000D02*
X167630000Y-95870000D01*
X167630000Y-106230000D02*
X166990000Y-106230000D01*
X167630000Y-106230000D02*
X167630000Y-100230000D01*
X169530000Y-97690000D02*
X169530000Y-95870000D01*
X169530000Y-106230000D02*
X169530000Y-100230000D01*
X170170000Y-95870000D02*
X169530000Y-95870000D01*
X170170000Y-97690000D02*
X170170000Y-95870000D01*
X170170000Y-106230000D02*
X169530000Y-106230000D01*
X170170000Y-106230000D02*
X170170000Y-100230000D01*
X172070000Y-97690000D02*
X172070000Y-95870000D01*
X172070000Y-106230000D02*
X172070000Y-100230000D01*
X172710000Y-95870000D02*
X172070000Y-95870000D01*
X172710000Y-97690000D02*
X172710000Y-95870000D01*
X172710000Y-106230000D02*
X172070000Y-106230000D01*
X172710000Y-106230000D02*
X172710000Y-100230000D01*
X174610000Y-97690000D02*
X174610000Y-95870000D01*
X174610000Y-106230000D02*
X174610000Y-100230000D01*
X175250000Y-95870000D02*
X174610000Y-95870000D01*
X175250000Y-97690000D02*
X175250000Y-95870000D01*
X175250000Y-106230000D02*
X174610000Y-106230000D01*
X175250000Y-106230000D02*
X175250000Y-100230000D01*
X177150000Y-97690000D02*
X177150000Y-95870000D01*
X177150000Y-106230000D02*
X177150000Y-100230000D01*
X177790000Y-95870000D02*
X177150000Y-95870000D01*
X177790000Y-97690000D02*
X177790000Y-95870000D01*
X177790000Y-106230000D02*
X177150000Y-106230000D01*
X177790000Y-106230000D02*
X177790000Y-100230000D01*
X179690000Y-97690000D02*
X179690000Y-95870000D01*
X179690000Y-106230000D02*
X179690000Y-100230000D01*
X180330000Y-95870000D02*
X179690000Y-95870000D01*
X180330000Y-97690000D02*
X180330000Y-95870000D01*
X180330000Y-106230000D02*
X179690000Y-106230000D01*
X180330000Y-106230000D02*
X180330000Y-100230000D01*
X182230000Y-97690000D02*
X182230000Y-95870000D01*
X182230000Y-106230000D02*
X182230000Y-100230000D01*
X182870000Y-95870000D02*
X182230000Y-95870000D01*
X182870000Y-97690000D02*
X182870000Y-95870000D01*
X182870000Y-106230000D02*
X182230000Y-106230000D01*
X182870000Y-106230000D02*
X182870000Y-100230000D01*
X184770000Y-97690000D02*
X184770000Y-95870000D01*
X184770000Y-106230000D02*
X184770000Y-100230000D01*
X185410000Y-95870000D02*
X184770000Y-95870000D01*
X185410000Y-97690000D02*
X185410000Y-95870000D01*
X185410000Y-106230000D02*
X184770000Y-106230000D01*
X185410000Y-106230000D02*
X185410000Y-100230000D01*
X186360000Y-97690000D02*
X186360000Y-100230000D01*
X186360000Y-100230000D02*
X166040000Y-100230000D01*
%TD*%
M02*
