%TF.GenerationSoftware,KiCad,Pcbnew,8.0.8*%
%TF.CreationDate,2025-03-25T01:40:29-04:00*%
%TF.ProjectId,SmartValvePCBv2,536d6172-7456-4616-9c76-655043427632,rev?*%
%TF.SameCoordinates,Original*%
%TF.FileFunction,Legend,Top*%
%TF.FilePolarity,Positive*%
%FSLAX46Y46*%
G04 Gerber Fmt 4.6, Leading zero omitted, Abs format (unit mm)*
G04 Created by KiCad (PCBNEW 8.0.8) date 2025-03-25 01:40:29*
%MOMM*%
%LPD*%
G01*
G04 APERTURE LIST*
%ADD10C,0.150000*%
%ADD11C,0.120000*%
G04 APERTURE END LIST*
D10*
X125193809Y-75054819D02*
X125193809Y-74054819D01*
X125193809Y-74054819D02*
X125574761Y-74054819D01*
X125574761Y-74054819D02*
X125669999Y-74102438D01*
X125669999Y-74102438D02*
X125717618Y-74150057D01*
X125717618Y-74150057D02*
X125765237Y-74245295D01*
X125765237Y-74245295D02*
X125765237Y-74388152D01*
X125765237Y-74388152D02*
X125717618Y-74483390D01*
X125717618Y-74483390D02*
X125669999Y-74531009D01*
X125669999Y-74531009D02*
X125574761Y-74578628D01*
X125574761Y-74578628D02*
X125193809Y-74578628D01*
X126336666Y-75054819D02*
X126241428Y-75007200D01*
X126241428Y-75007200D02*
X126193809Y-74959580D01*
X126193809Y-74959580D02*
X126146190Y-74864342D01*
X126146190Y-74864342D02*
X126146190Y-74578628D01*
X126146190Y-74578628D02*
X126193809Y-74483390D01*
X126193809Y-74483390D02*
X126241428Y-74435771D01*
X126241428Y-74435771D02*
X126336666Y-74388152D01*
X126336666Y-74388152D02*
X126479523Y-74388152D01*
X126479523Y-74388152D02*
X126574761Y-74435771D01*
X126574761Y-74435771D02*
X126622380Y-74483390D01*
X126622380Y-74483390D02*
X126669999Y-74578628D01*
X126669999Y-74578628D02*
X126669999Y-74864342D01*
X126669999Y-74864342D02*
X126622380Y-74959580D01*
X126622380Y-74959580D02*
X126574761Y-75007200D01*
X126574761Y-75007200D02*
X126479523Y-75054819D01*
X126479523Y-75054819D02*
X126336666Y-75054819D01*
X126955714Y-74388152D02*
X127336666Y-74388152D01*
X127098571Y-74054819D02*
X127098571Y-74911961D01*
X127098571Y-74911961D02*
X127146190Y-75007200D01*
X127146190Y-75007200D02*
X127241428Y-75054819D01*
X127241428Y-75054819D02*
X127336666Y-75054819D01*
X128193809Y-75054819D02*
X127622381Y-75054819D01*
X127908095Y-75054819D02*
X127908095Y-74054819D01*
X127908095Y-74054819D02*
X127812857Y-74197676D01*
X127812857Y-74197676D02*
X127717619Y-74292914D01*
X127717619Y-74292914D02*
X127622381Y-74340533D01*
X185814819Y-86823333D02*
X186529104Y-86823333D01*
X186529104Y-86823333D02*
X186671961Y-86870952D01*
X186671961Y-86870952D02*
X186767200Y-86966190D01*
X186767200Y-86966190D02*
X186814819Y-87109047D01*
X186814819Y-87109047D02*
X186814819Y-87204285D01*
X186814819Y-86299523D02*
X186814819Y-86109047D01*
X186814819Y-86109047D02*
X186767200Y-86013809D01*
X186767200Y-86013809D02*
X186719580Y-85966190D01*
X186719580Y-85966190D02*
X186576723Y-85870952D01*
X186576723Y-85870952D02*
X186386247Y-85823333D01*
X186386247Y-85823333D02*
X186005295Y-85823333D01*
X186005295Y-85823333D02*
X185910057Y-85870952D01*
X185910057Y-85870952D02*
X185862438Y-85918571D01*
X185862438Y-85918571D02*
X185814819Y-86013809D01*
X185814819Y-86013809D02*
X185814819Y-86204285D01*
X185814819Y-86204285D02*
X185862438Y-86299523D01*
X185862438Y-86299523D02*
X185910057Y-86347142D01*
X185910057Y-86347142D02*
X186005295Y-86394761D01*
X186005295Y-86394761D02*
X186243390Y-86394761D01*
X186243390Y-86394761D02*
X186338628Y-86347142D01*
X186338628Y-86347142D02*
X186386247Y-86299523D01*
X186386247Y-86299523D02*
X186433866Y-86204285D01*
X186433866Y-86204285D02*
X186433866Y-86013809D01*
X186433866Y-86013809D02*
X186386247Y-85918571D01*
X186386247Y-85918571D02*
X186338628Y-85870952D01*
X186338628Y-85870952D02*
X186243390Y-85823333D01*
X186433866Y-85394761D02*
X186433866Y-84632857D01*
X186291009Y-84156666D02*
X186291009Y-83823333D01*
X186814819Y-83680476D02*
X186814819Y-84156666D01*
X186814819Y-84156666D02*
X185814819Y-84156666D01*
X185814819Y-84156666D02*
X185814819Y-83680476D01*
X186767200Y-83299523D02*
X186814819Y-83156666D01*
X186814819Y-83156666D02*
X186814819Y-82918571D01*
X186814819Y-82918571D02*
X186767200Y-82823333D01*
X186767200Y-82823333D02*
X186719580Y-82775714D01*
X186719580Y-82775714D02*
X186624342Y-82728095D01*
X186624342Y-82728095D02*
X186529104Y-82728095D01*
X186529104Y-82728095D02*
X186433866Y-82775714D01*
X186433866Y-82775714D02*
X186386247Y-82823333D01*
X186386247Y-82823333D02*
X186338628Y-82918571D01*
X186338628Y-82918571D02*
X186291009Y-83109047D01*
X186291009Y-83109047D02*
X186243390Y-83204285D01*
X186243390Y-83204285D02*
X186195771Y-83251904D01*
X186195771Y-83251904D02*
X186100533Y-83299523D01*
X186100533Y-83299523D02*
X186005295Y-83299523D01*
X186005295Y-83299523D02*
X185910057Y-83251904D01*
X185910057Y-83251904D02*
X185862438Y-83204285D01*
X185862438Y-83204285D02*
X185814819Y-83109047D01*
X185814819Y-83109047D02*
X185814819Y-82870952D01*
X185814819Y-82870952D02*
X185862438Y-82728095D01*
X186814819Y-82299523D02*
X185814819Y-82299523D01*
X185814819Y-82299523D02*
X185814819Y-81918571D01*
X185814819Y-81918571D02*
X185862438Y-81823333D01*
X185862438Y-81823333D02*
X185910057Y-81775714D01*
X185910057Y-81775714D02*
X186005295Y-81728095D01*
X186005295Y-81728095D02*
X186148152Y-81728095D01*
X186148152Y-81728095D02*
X186243390Y-81775714D01*
X186243390Y-81775714D02*
X186291009Y-81823333D01*
X186291009Y-81823333D02*
X186338628Y-81918571D01*
X186338628Y-81918571D02*
X186338628Y-82299523D01*
X185814819Y-81394761D02*
X185814819Y-80775714D01*
X185814819Y-80775714D02*
X186195771Y-81109047D01*
X186195771Y-81109047D02*
X186195771Y-80966190D01*
X186195771Y-80966190D02*
X186243390Y-80870952D01*
X186243390Y-80870952D02*
X186291009Y-80823333D01*
X186291009Y-80823333D02*
X186386247Y-80775714D01*
X186386247Y-80775714D02*
X186624342Y-80775714D01*
X186624342Y-80775714D02*
X186719580Y-80823333D01*
X186719580Y-80823333D02*
X186767200Y-80870952D01*
X186767200Y-80870952D02*
X186814819Y-80966190D01*
X186814819Y-80966190D02*
X186814819Y-81251904D01*
X186814819Y-81251904D02*
X186767200Y-81347142D01*
X186767200Y-81347142D02*
X186719580Y-81394761D01*
X185910057Y-80394761D02*
X185862438Y-80347142D01*
X185862438Y-80347142D02*
X185814819Y-80251904D01*
X185814819Y-80251904D02*
X185814819Y-80013809D01*
X185814819Y-80013809D02*
X185862438Y-79918571D01*
X185862438Y-79918571D02*
X185910057Y-79870952D01*
X185910057Y-79870952D02*
X186005295Y-79823333D01*
X186005295Y-79823333D02*
X186100533Y-79823333D01*
X186100533Y-79823333D02*
X186243390Y-79870952D01*
X186243390Y-79870952D02*
X186814819Y-80442380D01*
X186814819Y-80442380D02*
X186814819Y-79823333D01*
X101103333Y-57433580D02*
X101055714Y-57481200D01*
X101055714Y-57481200D02*
X100912857Y-57528819D01*
X100912857Y-57528819D02*
X100817619Y-57528819D01*
X100817619Y-57528819D02*
X100674762Y-57481200D01*
X100674762Y-57481200D02*
X100579524Y-57385961D01*
X100579524Y-57385961D02*
X100531905Y-57290723D01*
X100531905Y-57290723D02*
X100484286Y-57100247D01*
X100484286Y-57100247D02*
X100484286Y-56957390D01*
X100484286Y-56957390D02*
X100531905Y-56766914D01*
X100531905Y-56766914D02*
X100579524Y-56671676D01*
X100579524Y-56671676D02*
X100674762Y-56576438D01*
X100674762Y-56576438D02*
X100817619Y-56528819D01*
X100817619Y-56528819D02*
X100912857Y-56528819D01*
X100912857Y-56528819D02*
X101055714Y-56576438D01*
X101055714Y-56576438D02*
X101103333Y-56624057D01*
X102008095Y-56528819D02*
X101531905Y-56528819D01*
X101531905Y-56528819D02*
X101484286Y-57005009D01*
X101484286Y-57005009D02*
X101531905Y-56957390D01*
X101531905Y-56957390D02*
X101627143Y-56909771D01*
X101627143Y-56909771D02*
X101865238Y-56909771D01*
X101865238Y-56909771D02*
X101960476Y-56957390D01*
X101960476Y-56957390D02*
X102008095Y-57005009D01*
X102008095Y-57005009D02*
X102055714Y-57100247D01*
X102055714Y-57100247D02*
X102055714Y-57338342D01*
X102055714Y-57338342D02*
X102008095Y-57433580D01*
X102008095Y-57433580D02*
X101960476Y-57481200D01*
X101960476Y-57481200D02*
X101865238Y-57528819D01*
X101865238Y-57528819D02*
X101627143Y-57528819D01*
X101627143Y-57528819D02*
X101531905Y-57481200D01*
X101531905Y-57481200D02*
X101484286Y-57433580D01*
X176375238Y-53734819D02*
X176375238Y-54449104D01*
X176375238Y-54449104D02*
X176327619Y-54591961D01*
X176327619Y-54591961D02*
X176232381Y-54687200D01*
X176232381Y-54687200D02*
X176089524Y-54734819D01*
X176089524Y-54734819D02*
X175994286Y-54734819D01*
X177375238Y-54734819D02*
X176803810Y-54734819D01*
X177089524Y-54734819D02*
X177089524Y-53734819D01*
X177089524Y-53734819D02*
X176994286Y-53877676D01*
X176994286Y-53877676D02*
X176899048Y-53972914D01*
X176899048Y-53972914D02*
X176803810Y-54020533D01*
X177994286Y-53734819D02*
X178089524Y-53734819D01*
X178089524Y-53734819D02*
X178184762Y-53782438D01*
X178184762Y-53782438D02*
X178232381Y-53830057D01*
X178232381Y-53830057D02*
X178280000Y-53925295D01*
X178280000Y-53925295D02*
X178327619Y-54115771D01*
X178327619Y-54115771D02*
X178327619Y-54353866D01*
X178327619Y-54353866D02*
X178280000Y-54544342D01*
X178280000Y-54544342D02*
X178232381Y-54639580D01*
X178232381Y-54639580D02*
X178184762Y-54687200D01*
X178184762Y-54687200D02*
X178089524Y-54734819D01*
X178089524Y-54734819D02*
X177994286Y-54734819D01*
X177994286Y-54734819D02*
X177899048Y-54687200D01*
X177899048Y-54687200D02*
X177851429Y-54639580D01*
X177851429Y-54639580D02*
X177803810Y-54544342D01*
X177803810Y-54544342D02*
X177756191Y-54353866D01*
X177756191Y-54353866D02*
X177756191Y-54115771D01*
X177756191Y-54115771D02*
X177803810Y-53925295D01*
X177803810Y-53925295D02*
X177851429Y-53830057D01*
X177851429Y-53830057D02*
X177899048Y-53782438D01*
X177899048Y-53782438D02*
X177994286Y-53734819D01*
X178756191Y-54353866D02*
X179518096Y-54353866D01*
X179994286Y-54211009D02*
X180327619Y-54211009D01*
X180470476Y-54734819D02*
X179994286Y-54734819D01*
X179994286Y-54734819D02*
X179994286Y-53734819D01*
X179994286Y-53734819D02*
X180470476Y-53734819D01*
X180851429Y-54687200D02*
X180994286Y-54734819D01*
X180994286Y-54734819D02*
X181232381Y-54734819D01*
X181232381Y-54734819D02*
X181327619Y-54687200D01*
X181327619Y-54687200D02*
X181375238Y-54639580D01*
X181375238Y-54639580D02*
X181422857Y-54544342D01*
X181422857Y-54544342D02*
X181422857Y-54449104D01*
X181422857Y-54449104D02*
X181375238Y-54353866D01*
X181375238Y-54353866D02*
X181327619Y-54306247D01*
X181327619Y-54306247D02*
X181232381Y-54258628D01*
X181232381Y-54258628D02*
X181041905Y-54211009D01*
X181041905Y-54211009D02*
X180946667Y-54163390D01*
X180946667Y-54163390D02*
X180899048Y-54115771D01*
X180899048Y-54115771D02*
X180851429Y-54020533D01*
X180851429Y-54020533D02*
X180851429Y-53925295D01*
X180851429Y-53925295D02*
X180899048Y-53830057D01*
X180899048Y-53830057D02*
X180946667Y-53782438D01*
X180946667Y-53782438D02*
X181041905Y-53734819D01*
X181041905Y-53734819D02*
X181280000Y-53734819D01*
X181280000Y-53734819D02*
X181422857Y-53782438D01*
X181851429Y-54734819D02*
X181851429Y-53734819D01*
X181851429Y-53734819D02*
X182232381Y-53734819D01*
X182232381Y-53734819D02*
X182327619Y-53782438D01*
X182327619Y-53782438D02*
X182375238Y-53830057D01*
X182375238Y-53830057D02*
X182422857Y-53925295D01*
X182422857Y-53925295D02*
X182422857Y-54068152D01*
X182422857Y-54068152D02*
X182375238Y-54163390D01*
X182375238Y-54163390D02*
X182327619Y-54211009D01*
X182327619Y-54211009D02*
X182232381Y-54258628D01*
X182232381Y-54258628D02*
X181851429Y-54258628D01*
X182756191Y-53734819D02*
X183375238Y-53734819D01*
X183375238Y-53734819D02*
X183041905Y-54115771D01*
X183041905Y-54115771D02*
X183184762Y-54115771D01*
X183184762Y-54115771D02*
X183280000Y-54163390D01*
X183280000Y-54163390D02*
X183327619Y-54211009D01*
X183327619Y-54211009D02*
X183375238Y-54306247D01*
X183375238Y-54306247D02*
X183375238Y-54544342D01*
X183375238Y-54544342D02*
X183327619Y-54639580D01*
X183327619Y-54639580D02*
X183280000Y-54687200D01*
X183280000Y-54687200D02*
X183184762Y-54734819D01*
X183184762Y-54734819D02*
X182899048Y-54734819D01*
X182899048Y-54734819D02*
X182803810Y-54687200D01*
X182803810Y-54687200D02*
X182756191Y-54639580D01*
X183756191Y-53830057D02*
X183803810Y-53782438D01*
X183803810Y-53782438D02*
X183899048Y-53734819D01*
X183899048Y-53734819D02*
X184137143Y-53734819D01*
X184137143Y-53734819D02*
X184232381Y-53782438D01*
X184232381Y-53782438D02*
X184280000Y-53830057D01*
X184280000Y-53830057D02*
X184327619Y-53925295D01*
X184327619Y-53925295D02*
X184327619Y-54020533D01*
X184327619Y-54020533D02*
X184280000Y-54163390D01*
X184280000Y-54163390D02*
X183708572Y-54734819D01*
X183708572Y-54734819D02*
X184327619Y-54734819D01*
X184756191Y-54353866D02*
X185518096Y-54353866D01*
X185946667Y-53830057D02*
X185994286Y-53782438D01*
X185994286Y-53782438D02*
X186089524Y-53734819D01*
X186089524Y-53734819D02*
X186327619Y-53734819D01*
X186327619Y-53734819D02*
X186422857Y-53782438D01*
X186422857Y-53782438D02*
X186470476Y-53830057D01*
X186470476Y-53830057D02*
X186518095Y-53925295D01*
X186518095Y-53925295D02*
X186518095Y-54020533D01*
X186518095Y-54020533D02*
X186470476Y-54163390D01*
X186470476Y-54163390D02*
X185899048Y-54734819D01*
X185899048Y-54734819D02*
X186518095Y-54734819D01*
X123963333Y-66069580D02*
X123915714Y-66117200D01*
X123915714Y-66117200D02*
X123772857Y-66164819D01*
X123772857Y-66164819D02*
X123677619Y-66164819D01*
X123677619Y-66164819D02*
X123534762Y-66117200D01*
X123534762Y-66117200D02*
X123439524Y-66021961D01*
X123439524Y-66021961D02*
X123391905Y-65926723D01*
X123391905Y-65926723D02*
X123344286Y-65736247D01*
X123344286Y-65736247D02*
X123344286Y-65593390D01*
X123344286Y-65593390D02*
X123391905Y-65402914D01*
X123391905Y-65402914D02*
X123439524Y-65307676D01*
X123439524Y-65307676D02*
X123534762Y-65212438D01*
X123534762Y-65212438D02*
X123677619Y-65164819D01*
X123677619Y-65164819D02*
X123772857Y-65164819D01*
X123772857Y-65164819D02*
X123915714Y-65212438D01*
X123915714Y-65212438D02*
X123963333Y-65260057D01*
X124296667Y-65164819D02*
X124915714Y-65164819D01*
X124915714Y-65164819D02*
X124582381Y-65545771D01*
X124582381Y-65545771D02*
X124725238Y-65545771D01*
X124725238Y-65545771D02*
X124820476Y-65593390D01*
X124820476Y-65593390D02*
X124868095Y-65641009D01*
X124868095Y-65641009D02*
X124915714Y-65736247D01*
X124915714Y-65736247D02*
X124915714Y-65974342D01*
X124915714Y-65974342D02*
X124868095Y-66069580D01*
X124868095Y-66069580D02*
X124820476Y-66117200D01*
X124820476Y-66117200D02*
X124725238Y-66164819D01*
X124725238Y-66164819D02*
X124439524Y-66164819D01*
X124439524Y-66164819D02*
X124344286Y-66117200D01*
X124344286Y-66117200D02*
X124296667Y-66069580D01*
X101994819Y-98872381D02*
X102709104Y-98872381D01*
X102709104Y-98872381D02*
X102851961Y-98920000D01*
X102851961Y-98920000D02*
X102947200Y-99015238D01*
X102947200Y-99015238D02*
X102994819Y-99158095D01*
X102994819Y-99158095D02*
X102994819Y-99253333D01*
X102994819Y-97872381D02*
X102994819Y-98443809D01*
X102994819Y-98158095D02*
X101994819Y-98158095D01*
X101994819Y-98158095D02*
X102137676Y-98253333D01*
X102137676Y-98253333D02*
X102232914Y-98348571D01*
X102232914Y-98348571D02*
X102280533Y-98443809D01*
X101994819Y-97253333D02*
X101994819Y-97158095D01*
X101994819Y-97158095D02*
X102042438Y-97062857D01*
X102042438Y-97062857D02*
X102090057Y-97015238D01*
X102090057Y-97015238D02*
X102185295Y-96967619D01*
X102185295Y-96967619D02*
X102375771Y-96920000D01*
X102375771Y-96920000D02*
X102613866Y-96920000D01*
X102613866Y-96920000D02*
X102804342Y-96967619D01*
X102804342Y-96967619D02*
X102899580Y-97015238D01*
X102899580Y-97015238D02*
X102947200Y-97062857D01*
X102947200Y-97062857D02*
X102994819Y-97158095D01*
X102994819Y-97158095D02*
X102994819Y-97253333D01*
X102994819Y-97253333D02*
X102947200Y-97348571D01*
X102947200Y-97348571D02*
X102899580Y-97396190D01*
X102899580Y-97396190D02*
X102804342Y-97443809D01*
X102804342Y-97443809D02*
X102613866Y-97491428D01*
X102613866Y-97491428D02*
X102375771Y-97491428D01*
X102375771Y-97491428D02*
X102185295Y-97443809D01*
X102185295Y-97443809D02*
X102090057Y-97396190D01*
X102090057Y-97396190D02*
X102042438Y-97348571D01*
X102042438Y-97348571D02*
X101994819Y-97253333D01*
X102613866Y-96491428D02*
X102613866Y-95729524D01*
X102947200Y-95300952D02*
X102994819Y-95158095D01*
X102994819Y-95158095D02*
X102994819Y-94920000D01*
X102994819Y-94920000D02*
X102947200Y-94824762D01*
X102947200Y-94824762D02*
X102899580Y-94777143D01*
X102899580Y-94777143D02*
X102804342Y-94729524D01*
X102804342Y-94729524D02*
X102709104Y-94729524D01*
X102709104Y-94729524D02*
X102613866Y-94777143D01*
X102613866Y-94777143D02*
X102566247Y-94824762D01*
X102566247Y-94824762D02*
X102518628Y-94920000D01*
X102518628Y-94920000D02*
X102471009Y-95110476D01*
X102471009Y-95110476D02*
X102423390Y-95205714D01*
X102423390Y-95205714D02*
X102375771Y-95253333D01*
X102375771Y-95253333D02*
X102280533Y-95300952D01*
X102280533Y-95300952D02*
X102185295Y-95300952D01*
X102185295Y-95300952D02*
X102090057Y-95253333D01*
X102090057Y-95253333D02*
X102042438Y-95205714D01*
X102042438Y-95205714D02*
X101994819Y-95110476D01*
X101994819Y-95110476D02*
X101994819Y-94872381D01*
X101994819Y-94872381D02*
X102042438Y-94729524D01*
X102947200Y-93920000D02*
X102994819Y-94015238D01*
X102994819Y-94015238D02*
X102994819Y-94205714D01*
X102994819Y-94205714D02*
X102947200Y-94300952D01*
X102947200Y-94300952D02*
X102851961Y-94348571D01*
X102851961Y-94348571D02*
X102471009Y-94348571D01*
X102471009Y-94348571D02*
X102375771Y-94300952D01*
X102375771Y-94300952D02*
X102328152Y-94205714D01*
X102328152Y-94205714D02*
X102328152Y-94015238D01*
X102328152Y-94015238D02*
X102375771Y-93920000D01*
X102375771Y-93920000D02*
X102471009Y-93872381D01*
X102471009Y-93872381D02*
X102566247Y-93872381D01*
X102566247Y-93872381D02*
X102661485Y-94348571D01*
X102994819Y-93443809D02*
X102328152Y-93443809D01*
X102518628Y-93443809D02*
X102423390Y-93396190D01*
X102423390Y-93396190D02*
X102375771Y-93348571D01*
X102375771Y-93348571D02*
X102328152Y-93253333D01*
X102328152Y-93253333D02*
X102328152Y-93158095D01*
X102328152Y-92919999D02*
X102994819Y-92681904D01*
X102994819Y-92681904D02*
X102328152Y-92443809D01*
X102994819Y-91919999D02*
X102947200Y-92015237D01*
X102947200Y-92015237D02*
X102899580Y-92062856D01*
X102899580Y-92062856D02*
X102804342Y-92110475D01*
X102804342Y-92110475D02*
X102518628Y-92110475D01*
X102518628Y-92110475D02*
X102423390Y-92062856D01*
X102423390Y-92062856D02*
X102375771Y-92015237D01*
X102375771Y-92015237D02*
X102328152Y-91919999D01*
X102328152Y-91919999D02*
X102328152Y-91777142D01*
X102328152Y-91777142D02*
X102375771Y-91681904D01*
X102375771Y-91681904D02*
X102423390Y-91634285D01*
X102423390Y-91634285D02*
X102518628Y-91586666D01*
X102518628Y-91586666D02*
X102804342Y-91586666D01*
X102804342Y-91586666D02*
X102899580Y-91634285D01*
X102899580Y-91634285D02*
X102947200Y-91681904D01*
X102947200Y-91681904D02*
X102994819Y-91777142D01*
X102994819Y-91777142D02*
X102994819Y-91919999D01*
X102994819Y-90634285D02*
X102994819Y-91205713D01*
X102994819Y-90919999D02*
X101994819Y-90919999D01*
X101994819Y-90919999D02*
X102137676Y-91015237D01*
X102137676Y-91015237D02*
X102232914Y-91110475D01*
X102232914Y-91110475D02*
X102280533Y-91205713D01*
X95644819Y-59613333D02*
X96359104Y-59613333D01*
X96359104Y-59613333D02*
X96501961Y-59660952D01*
X96501961Y-59660952D02*
X96597200Y-59756190D01*
X96597200Y-59756190D02*
X96644819Y-59899047D01*
X96644819Y-59899047D02*
X96644819Y-59994285D01*
X96644819Y-59089523D02*
X96644819Y-58899047D01*
X96644819Y-58899047D02*
X96597200Y-58803809D01*
X96597200Y-58803809D02*
X96549580Y-58756190D01*
X96549580Y-58756190D02*
X96406723Y-58660952D01*
X96406723Y-58660952D02*
X96216247Y-58613333D01*
X96216247Y-58613333D02*
X95835295Y-58613333D01*
X95835295Y-58613333D02*
X95740057Y-58660952D01*
X95740057Y-58660952D02*
X95692438Y-58708571D01*
X95692438Y-58708571D02*
X95644819Y-58803809D01*
X95644819Y-58803809D02*
X95644819Y-58994285D01*
X95644819Y-58994285D02*
X95692438Y-59089523D01*
X95692438Y-59089523D02*
X95740057Y-59137142D01*
X95740057Y-59137142D02*
X95835295Y-59184761D01*
X95835295Y-59184761D02*
X96073390Y-59184761D01*
X96073390Y-59184761D02*
X96168628Y-59137142D01*
X96168628Y-59137142D02*
X96216247Y-59089523D01*
X96216247Y-59089523D02*
X96263866Y-58994285D01*
X96263866Y-58994285D02*
X96263866Y-58803809D01*
X96263866Y-58803809D02*
X96216247Y-58708571D01*
X96216247Y-58708571D02*
X96168628Y-58660952D01*
X96168628Y-58660952D02*
X96073390Y-58613333D01*
X96263866Y-58184761D02*
X96263866Y-57422857D01*
X96644819Y-56946666D02*
X95644819Y-56946666D01*
X95644819Y-56946666D02*
X95644819Y-56708571D01*
X95644819Y-56708571D02*
X95692438Y-56565714D01*
X95692438Y-56565714D02*
X95787676Y-56470476D01*
X95787676Y-56470476D02*
X95882914Y-56422857D01*
X95882914Y-56422857D02*
X96073390Y-56375238D01*
X96073390Y-56375238D02*
X96216247Y-56375238D01*
X96216247Y-56375238D02*
X96406723Y-56422857D01*
X96406723Y-56422857D02*
X96501961Y-56470476D01*
X96501961Y-56470476D02*
X96597200Y-56565714D01*
X96597200Y-56565714D02*
X96644819Y-56708571D01*
X96644819Y-56708571D02*
X96644819Y-56946666D01*
X96121009Y-55946666D02*
X96121009Y-55613333D01*
X96644819Y-55470476D02*
X96644819Y-55946666D01*
X96644819Y-55946666D02*
X95644819Y-55946666D01*
X95644819Y-55946666D02*
X95644819Y-55470476D01*
X95644819Y-55184761D02*
X96644819Y-54851428D01*
X96644819Y-54851428D02*
X95644819Y-54518095D01*
X96263866Y-54184761D02*
X96263866Y-53422857D01*
X96644819Y-52422857D02*
X96644819Y-52994285D01*
X96644819Y-52708571D02*
X95644819Y-52708571D01*
X95644819Y-52708571D02*
X95787676Y-52803809D01*
X95787676Y-52803809D02*
X95882914Y-52899047D01*
X95882914Y-52899047D02*
X95930533Y-52994285D01*
X95978152Y-51565714D02*
X96644819Y-51565714D01*
X95597200Y-51803809D02*
X96311485Y-52041904D01*
X96311485Y-52041904D02*
X96311485Y-51422857D01*
X95978152Y-50613333D02*
X96644819Y-50613333D01*
X95597200Y-50851428D02*
X96311485Y-51089523D01*
X96311485Y-51089523D02*
X96311485Y-50470476D01*
X96644819Y-50041904D02*
X96644819Y-49851428D01*
X96644819Y-49851428D02*
X96597200Y-49756190D01*
X96597200Y-49756190D02*
X96549580Y-49708571D01*
X96549580Y-49708571D02*
X96406723Y-49613333D01*
X96406723Y-49613333D02*
X96216247Y-49565714D01*
X96216247Y-49565714D02*
X95835295Y-49565714D01*
X95835295Y-49565714D02*
X95740057Y-49613333D01*
X95740057Y-49613333D02*
X95692438Y-49660952D01*
X95692438Y-49660952D02*
X95644819Y-49756190D01*
X95644819Y-49756190D02*
X95644819Y-49946666D01*
X95644819Y-49946666D02*
X95692438Y-50041904D01*
X95692438Y-50041904D02*
X95740057Y-50089523D01*
X95740057Y-50089523D02*
X95835295Y-50137142D01*
X95835295Y-50137142D02*
X96073390Y-50137142D01*
X96073390Y-50137142D02*
X96168628Y-50089523D01*
X96168628Y-50089523D02*
X96216247Y-50041904D01*
X96216247Y-50041904D02*
X96263866Y-49946666D01*
X96263866Y-49946666D02*
X96263866Y-49756190D01*
X96263866Y-49756190D02*
X96216247Y-49660952D01*
X96216247Y-49660952D02*
X96168628Y-49613333D01*
X96168628Y-49613333D02*
X96073390Y-49565714D01*
X95644819Y-48660952D02*
X95644819Y-49137142D01*
X95644819Y-49137142D02*
X96121009Y-49184761D01*
X96121009Y-49184761D02*
X96073390Y-49137142D01*
X96073390Y-49137142D02*
X96025771Y-49041904D01*
X96025771Y-49041904D02*
X96025771Y-48803809D01*
X96025771Y-48803809D02*
X96073390Y-48708571D01*
X96073390Y-48708571D02*
X96121009Y-48660952D01*
X96121009Y-48660952D02*
X96216247Y-48613333D01*
X96216247Y-48613333D02*
X96454342Y-48613333D01*
X96454342Y-48613333D02*
X96549580Y-48660952D01*
X96549580Y-48660952D02*
X96597200Y-48708571D01*
X96597200Y-48708571D02*
X96644819Y-48803809D01*
X96644819Y-48803809D02*
X96644819Y-49041904D01*
X96644819Y-49041904D02*
X96597200Y-49137142D01*
X96597200Y-49137142D02*
X96549580Y-49184761D01*
X185814819Y-66979523D02*
X186529104Y-66979523D01*
X186529104Y-66979523D02*
X186671961Y-67027142D01*
X186671961Y-67027142D02*
X186767200Y-67122380D01*
X186767200Y-67122380D02*
X186814819Y-67265237D01*
X186814819Y-67265237D02*
X186814819Y-67360475D01*
X186814819Y-65979523D02*
X186814819Y-66550951D01*
X186814819Y-66265237D02*
X185814819Y-66265237D01*
X185814819Y-66265237D02*
X185957676Y-66360475D01*
X185957676Y-66360475D02*
X186052914Y-66455713D01*
X186052914Y-66455713D02*
X186100533Y-66550951D01*
X185814819Y-65360475D02*
X185814819Y-65265237D01*
X185814819Y-65265237D02*
X185862438Y-65169999D01*
X185862438Y-65169999D02*
X185910057Y-65122380D01*
X185910057Y-65122380D02*
X186005295Y-65074761D01*
X186005295Y-65074761D02*
X186195771Y-65027142D01*
X186195771Y-65027142D02*
X186433866Y-65027142D01*
X186433866Y-65027142D02*
X186624342Y-65074761D01*
X186624342Y-65074761D02*
X186719580Y-65122380D01*
X186719580Y-65122380D02*
X186767200Y-65169999D01*
X186767200Y-65169999D02*
X186814819Y-65265237D01*
X186814819Y-65265237D02*
X186814819Y-65360475D01*
X186814819Y-65360475D02*
X186767200Y-65455713D01*
X186767200Y-65455713D02*
X186719580Y-65503332D01*
X186719580Y-65503332D02*
X186624342Y-65550951D01*
X186624342Y-65550951D02*
X186433866Y-65598570D01*
X186433866Y-65598570D02*
X186195771Y-65598570D01*
X186195771Y-65598570D02*
X186005295Y-65550951D01*
X186005295Y-65550951D02*
X185910057Y-65503332D01*
X185910057Y-65503332D02*
X185862438Y-65455713D01*
X185862438Y-65455713D02*
X185814819Y-65360475D01*
X186433866Y-64598570D02*
X186433866Y-63836666D01*
X186291009Y-63360475D02*
X186291009Y-63027142D01*
X186814819Y-62884285D02*
X186814819Y-63360475D01*
X186814819Y-63360475D02*
X185814819Y-63360475D01*
X185814819Y-63360475D02*
X185814819Y-62884285D01*
X186767200Y-62503332D02*
X186814819Y-62360475D01*
X186814819Y-62360475D02*
X186814819Y-62122380D01*
X186814819Y-62122380D02*
X186767200Y-62027142D01*
X186767200Y-62027142D02*
X186719580Y-61979523D01*
X186719580Y-61979523D02*
X186624342Y-61931904D01*
X186624342Y-61931904D02*
X186529104Y-61931904D01*
X186529104Y-61931904D02*
X186433866Y-61979523D01*
X186433866Y-61979523D02*
X186386247Y-62027142D01*
X186386247Y-62027142D02*
X186338628Y-62122380D01*
X186338628Y-62122380D02*
X186291009Y-62312856D01*
X186291009Y-62312856D02*
X186243390Y-62408094D01*
X186243390Y-62408094D02*
X186195771Y-62455713D01*
X186195771Y-62455713D02*
X186100533Y-62503332D01*
X186100533Y-62503332D02*
X186005295Y-62503332D01*
X186005295Y-62503332D02*
X185910057Y-62455713D01*
X185910057Y-62455713D02*
X185862438Y-62408094D01*
X185862438Y-62408094D02*
X185814819Y-62312856D01*
X185814819Y-62312856D02*
X185814819Y-62074761D01*
X185814819Y-62074761D02*
X185862438Y-61931904D01*
X186814819Y-61503332D02*
X185814819Y-61503332D01*
X185814819Y-61503332D02*
X185814819Y-61122380D01*
X185814819Y-61122380D02*
X185862438Y-61027142D01*
X185862438Y-61027142D02*
X185910057Y-60979523D01*
X185910057Y-60979523D02*
X186005295Y-60931904D01*
X186005295Y-60931904D02*
X186148152Y-60931904D01*
X186148152Y-60931904D02*
X186243390Y-60979523D01*
X186243390Y-60979523D02*
X186291009Y-61027142D01*
X186291009Y-61027142D02*
X186338628Y-61122380D01*
X186338628Y-61122380D02*
X186338628Y-61503332D01*
X185814819Y-60598570D02*
X185814819Y-59979523D01*
X185814819Y-59979523D02*
X186195771Y-60312856D01*
X186195771Y-60312856D02*
X186195771Y-60169999D01*
X186195771Y-60169999D02*
X186243390Y-60074761D01*
X186243390Y-60074761D02*
X186291009Y-60027142D01*
X186291009Y-60027142D02*
X186386247Y-59979523D01*
X186386247Y-59979523D02*
X186624342Y-59979523D01*
X186624342Y-59979523D02*
X186719580Y-60027142D01*
X186719580Y-60027142D02*
X186767200Y-60074761D01*
X186767200Y-60074761D02*
X186814819Y-60169999D01*
X186814819Y-60169999D02*
X186814819Y-60455713D01*
X186814819Y-60455713D02*
X186767200Y-60550951D01*
X186767200Y-60550951D02*
X186719580Y-60598570D01*
X185910057Y-59598570D02*
X185862438Y-59550951D01*
X185862438Y-59550951D02*
X185814819Y-59455713D01*
X185814819Y-59455713D02*
X185814819Y-59217618D01*
X185814819Y-59217618D02*
X185862438Y-59122380D01*
X185862438Y-59122380D02*
X185910057Y-59074761D01*
X185910057Y-59074761D02*
X186005295Y-59027142D01*
X186005295Y-59027142D02*
X186100533Y-59027142D01*
X186100533Y-59027142D02*
X186243390Y-59074761D01*
X186243390Y-59074761D02*
X186814819Y-59646189D01*
X186814819Y-59646189D02*
X186814819Y-59027142D01*
X100994728Y-65561580D02*
X100947109Y-65609200D01*
X100947109Y-65609200D02*
X100804252Y-65656819D01*
X100804252Y-65656819D02*
X100709014Y-65656819D01*
X100709014Y-65656819D02*
X100566157Y-65609200D01*
X100566157Y-65609200D02*
X100470919Y-65513961D01*
X100470919Y-65513961D02*
X100423300Y-65418723D01*
X100423300Y-65418723D02*
X100375681Y-65228247D01*
X100375681Y-65228247D02*
X100375681Y-65085390D01*
X100375681Y-65085390D02*
X100423300Y-64894914D01*
X100423300Y-64894914D02*
X100470919Y-64799676D01*
X100470919Y-64799676D02*
X100566157Y-64704438D01*
X100566157Y-64704438D02*
X100709014Y-64656819D01*
X100709014Y-64656819D02*
X100804252Y-64656819D01*
X100804252Y-64656819D02*
X100947109Y-64704438D01*
X100947109Y-64704438D02*
X100994728Y-64752057D01*
X101851871Y-64656819D02*
X101661395Y-64656819D01*
X101661395Y-64656819D02*
X101566157Y-64704438D01*
X101566157Y-64704438D02*
X101518538Y-64752057D01*
X101518538Y-64752057D02*
X101423300Y-64894914D01*
X101423300Y-64894914D02*
X101375681Y-65085390D01*
X101375681Y-65085390D02*
X101375681Y-65466342D01*
X101375681Y-65466342D02*
X101423300Y-65561580D01*
X101423300Y-65561580D02*
X101470919Y-65609200D01*
X101470919Y-65609200D02*
X101566157Y-65656819D01*
X101566157Y-65656819D02*
X101756633Y-65656819D01*
X101756633Y-65656819D02*
X101851871Y-65609200D01*
X101851871Y-65609200D02*
X101899490Y-65561580D01*
X101899490Y-65561580D02*
X101947109Y-65466342D01*
X101947109Y-65466342D02*
X101947109Y-65228247D01*
X101947109Y-65228247D02*
X101899490Y-65133009D01*
X101899490Y-65133009D02*
X101851871Y-65085390D01*
X101851871Y-65085390D02*
X101756633Y-65037771D01*
X101756633Y-65037771D02*
X101566157Y-65037771D01*
X101566157Y-65037771D02*
X101470919Y-65085390D01*
X101470919Y-65085390D02*
X101423300Y-65133009D01*
X101423300Y-65133009D02*
X101375681Y-65228247D01*
X177875238Y-51194819D02*
X177875238Y-51909104D01*
X177875238Y-51909104D02*
X177827619Y-52051961D01*
X177827619Y-52051961D02*
X177732381Y-52147200D01*
X177732381Y-52147200D02*
X177589524Y-52194819D01*
X177589524Y-52194819D02*
X177494286Y-52194819D01*
X178875238Y-52194819D02*
X178303810Y-52194819D01*
X178589524Y-52194819D02*
X178589524Y-51194819D01*
X178589524Y-51194819D02*
X178494286Y-51337676D01*
X178494286Y-51337676D02*
X178399048Y-51432914D01*
X178399048Y-51432914D02*
X178303810Y-51480533D01*
X179256191Y-51290057D02*
X179303810Y-51242438D01*
X179303810Y-51242438D02*
X179399048Y-51194819D01*
X179399048Y-51194819D02*
X179637143Y-51194819D01*
X179637143Y-51194819D02*
X179732381Y-51242438D01*
X179732381Y-51242438D02*
X179780000Y-51290057D01*
X179780000Y-51290057D02*
X179827619Y-51385295D01*
X179827619Y-51385295D02*
X179827619Y-51480533D01*
X179827619Y-51480533D02*
X179780000Y-51623390D01*
X179780000Y-51623390D02*
X179208572Y-52194819D01*
X179208572Y-52194819D02*
X179827619Y-52194819D01*
X180256191Y-51813866D02*
X181018096Y-51813866D01*
X182065714Y-52194819D02*
X181732381Y-51718628D01*
X181494286Y-52194819D02*
X181494286Y-51194819D01*
X181494286Y-51194819D02*
X181875238Y-51194819D01*
X181875238Y-51194819D02*
X181970476Y-51242438D01*
X181970476Y-51242438D02*
X182018095Y-51290057D01*
X182018095Y-51290057D02*
X182065714Y-51385295D01*
X182065714Y-51385295D02*
X182065714Y-51528152D01*
X182065714Y-51528152D02*
X182018095Y-51623390D01*
X182018095Y-51623390D02*
X181970476Y-51671009D01*
X181970476Y-51671009D02*
X181875238Y-51718628D01*
X181875238Y-51718628D02*
X181494286Y-51718628D01*
X183018095Y-51242438D02*
X182922857Y-51194819D01*
X182922857Y-51194819D02*
X182780000Y-51194819D01*
X182780000Y-51194819D02*
X182637143Y-51242438D01*
X182637143Y-51242438D02*
X182541905Y-51337676D01*
X182541905Y-51337676D02*
X182494286Y-51432914D01*
X182494286Y-51432914D02*
X182446667Y-51623390D01*
X182446667Y-51623390D02*
X182446667Y-51766247D01*
X182446667Y-51766247D02*
X182494286Y-51956723D01*
X182494286Y-51956723D02*
X182541905Y-52051961D01*
X182541905Y-52051961D02*
X182637143Y-52147200D01*
X182637143Y-52147200D02*
X182780000Y-52194819D01*
X182780000Y-52194819D02*
X182875238Y-52194819D01*
X182875238Y-52194819D02*
X183018095Y-52147200D01*
X183018095Y-52147200D02*
X183065714Y-52099580D01*
X183065714Y-52099580D02*
X183065714Y-51766247D01*
X183065714Y-51766247D02*
X182875238Y-51766247D01*
X183827619Y-51671009D02*
X183970476Y-51718628D01*
X183970476Y-51718628D02*
X184018095Y-51766247D01*
X184018095Y-51766247D02*
X184065714Y-51861485D01*
X184065714Y-51861485D02*
X184065714Y-52004342D01*
X184065714Y-52004342D02*
X184018095Y-52099580D01*
X184018095Y-52099580D02*
X183970476Y-52147200D01*
X183970476Y-52147200D02*
X183875238Y-52194819D01*
X183875238Y-52194819D02*
X183494286Y-52194819D01*
X183494286Y-52194819D02*
X183494286Y-51194819D01*
X183494286Y-51194819D02*
X183827619Y-51194819D01*
X183827619Y-51194819D02*
X183922857Y-51242438D01*
X183922857Y-51242438D02*
X183970476Y-51290057D01*
X183970476Y-51290057D02*
X184018095Y-51385295D01*
X184018095Y-51385295D02*
X184018095Y-51480533D01*
X184018095Y-51480533D02*
X183970476Y-51575771D01*
X183970476Y-51575771D02*
X183922857Y-51623390D01*
X183922857Y-51623390D02*
X183827619Y-51671009D01*
X183827619Y-51671009D02*
X183494286Y-51671009D01*
X185018095Y-52194819D02*
X184446667Y-52194819D01*
X184732381Y-52194819D02*
X184732381Y-51194819D01*
X184732381Y-51194819D02*
X184637143Y-51337676D01*
X184637143Y-51337676D02*
X184541905Y-51432914D01*
X184541905Y-51432914D02*
X184446667Y-51480533D01*
X118883333Y-91564819D02*
X118550000Y-91088628D01*
X118311905Y-91564819D02*
X118311905Y-90564819D01*
X118311905Y-90564819D02*
X118692857Y-90564819D01*
X118692857Y-90564819D02*
X118788095Y-90612438D01*
X118788095Y-90612438D02*
X118835714Y-90660057D01*
X118835714Y-90660057D02*
X118883333Y-90755295D01*
X118883333Y-90755295D02*
X118883333Y-90898152D01*
X118883333Y-90898152D02*
X118835714Y-90993390D01*
X118835714Y-90993390D02*
X118788095Y-91041009D01*
X118788095Y-91041009D02*
X118692857Y-91088628D01*
X118692857Y-91088628D02*
X118311905Y-91088628D01*
X119835714Y-91564819D02*
X119264286Y-91564819D01*
X119550000Y-91564819D02*
X119550000Y-90564819D01*
X119550000Y-90564819D02*
X119454762Y-90707676D01*
X119454762Y-90707676D02*
X119359524Y-90802914D01*
X119359524Y-90802914D02*
X119264286Y-90850533D01*
X101103333Y-73689580D02*
X101055714Y-73737200D01*
X101055714Y-73737200D02*
X100912857Y-73784819D01*
X100912857Y-73784819D02*
X100817619Y-73784819D01*
X100817619Y-73784819D02*
X100674762Y-73737200D01*
X100674762Y-73737200D02*
X100579524Y-73641961D01*
X100579524Y-73641961D02*
X100531905Y-73546723D01*
X100531905Y-73546723D02*
X100484286Y-73356247D01*
X100484286Y-73356247D02*
X100484286Y-73213390D01*
X100484286Y-73213390D02*
X100531905Y-73022914D01*
X100531905Y-73022914D02*
X100579524Y-72927676D01*
X100579524Y-72927676D02*
X100674762Y-72832438D01*
X100674762Y-72832438D02*
X100817619Y-72784819D01*
X100817619Y-72784819D02*
X100912857Y-72784819D01*
X100912857Y-72784819D02*
X101055714Y-72832438D01*
X101055714Y-72832438D02*
X101103333Y-72880057D01*
X101960476Y-73118152D02*
X101960476Y-73784819D01*
X101722381Y-72737200D02*
X101484286Y-73451485D01*
X101484286Y-73451485D02*
X102103333Y-73451485D01*
X176851428Y-91834819D02*
X176851428Y-92549104D01*
X176851428Y-92549104D02*
X176803809Y-92691961D01*
X176803809Y-92691961D02*
X176708571Y-92787200D01*
X176708571Y-92787200D02*
X176565714Y-92834819D01*
X176565714Y-92834819D02*
X176470476Y-92834819D01*
X177375238Y-92834819D02*
X177565714Y-92834819D01*
X177565714Y-92834819D02*
X177660952Y-92787200D01*
X177660952Y-92787200D02*
X177708571Y-92739580D01*
X177708571Y-92739580D02*
X177803809Y-92596723D01*
X177803809Y-92596723D02*
X177851428Y-92406247D01*
X177851428Y-92406247D02*
X177851428Y-92025295D01*
X177851428Y-92025295D02*
X177803809Y-91930057D01*
X177803809Y-91930057D02*
X177756190Y-91882438D01*
X177756190Y-91882438D02*
X177660952Y-91834819D01*
X177660952Y-91834819D02*
X177470476Y-91834819D01*
X177470476Y-91834819D02*
X177375238Y-91882438D01*
X177375238Y-91882438D02*
X177327619Y-91930057D01*
X177327619Y-91930057D02*
X177280000Y-92025295D01*
X177280000Y-92025295D02*
X177280000Y-92263390D01*
X177280000Y-92263390D02*
X177327619Y-92358628D01*
X177327619Y-92358628D02*
X177375238Y-92406247D01*
X177375238Y-92406247D02*
X177470476Y-92453866D01*
X177470476Y-92453866D02*
X177660952Y-92453866D01*
X177660952Y-92453866D02*
X177756190Y-92406247D01*
X177756190Y-92406247D02*
X177803809Y-92358628D01*
X177803809Y-92358628D02*
X177851428Y-92263390D01*
X178280000Y-92453866D02*
X179041905Y-92453866D01*
X179518095Y-92311009D02*
X179851428Y-92311009D01*
X179994285Y-92834819D02*
X179518095Y-92834819D01*
X179518095Y-92834819D02*
X179518095Y-91834819D01*
X179518095Y-91834819D02*
X179994285Y-91834819D01*
X180375238Y-92787200D02*
X180518095Y-92834819D01*
X180518095Y-92834819D02*
X180756190Y-92834819D01*
X180756190Y-92834819D02*
X180851428Y-92787200D01*
X180851428Y-92787200D02*
X180899047Y-92739580D01*
X180899047Y-92739580D02*
X180946666Y-92644342D01*
X180946666Y-92644342D02*
X180946666Y-92549104D01*
X180946666Y-92549104D02*
X180899047Y-92453866D01*
X180899047Y-92453866D02*
X180851428Y-92406247D01*
X180851428Y-92406247D02*
X180756190Y-92358628D01*
X180756190Y-92358628D02*
X180565714Y-92311009D01*
X180565714Y-92311009D02*
X180470476Y-92263390D01*
X180470476Y-92263390D02*
X180422857Y-92215771D01*
X180422857Y-92215771D02*
X180375238Y-92120533D01*
X180375238Y-92120533D02*
X180375238Y-92025295D01*
X180375238Y-92025295D02*
X180422857Y-91930057D01*
X180422857Y-91930057D02*
X180470476Y-91882438D01*
X180470476Y-91882438D02*
X180565714Y-91834819D01*
X180565714Y-91834819D02*
X180803809Y-91834819D01*
X180803809Y-91834819D02*
X180946666Y-91882438D01*
X181375238Y-92834819D02*
X181375238Y-91834819D01*
X181375238Y-91834819D02*
X181756190Y-91834819D01*
X181756190Y-91834819D02*
X181851428Y-91882438D01*
X181851428Y-91882438D02*
X181899047Y-91930057D01*
X181899047Y-91930057D02*
X181946666Y-92025295D01*
X181946666Y-92025295D02*
X181946666Y-92168152D01*
X181946666Y-92168152D02*
X181899047Y-92263390D01*
X181899047Y-92263390D02*
X181851428Y-92311009D01*
X181851428Y-92311009D02*
X181756190Y-92358628D01*
X181756190Y-92358628D02*
X181375238Y-92358628D01*
X182280000Y-91834819D02*
X182899047Y-91834819D01*
X182899047Y-91834819D02*
X182565714Y-92215771D01*
X182565714Y-92215771D02*
X182708571Y-92215771D01*
X182708571Y-92215771D02*
X182803809Y-92263390D01*
X182803809Y-92263390D02*
X182851428Y-92311009D01*
X182851428Y-92311009D02*
X182899047Y-92406247D01*
X182899047Y-92406247D02*
X182899047Y-92644342D01*
X182899047Y-92644342D02*
X182851428Y-92739580D01*
X182851428Y-92739580D02*
X182803809Y-92787200D01*
X182803809Y-92787200D02*
X182708571Y-92834819D01*
X182708571Y-92834819D02*
X182422857Y-92834819D01*
X182422857Y-92834819D02*
X182327619Y-92787200D01*
X182327619Y-92787200D02*
X182280000Y-92739580D01*
X183280000Y-91930057D02*
X183327619Y-91882438D01*
X183327619Y-91882438D02*
X183422857Y-91834819D01*
X183422857Y-91834819D02*
X183660952Y-91834819D01*
X183660952Y-91834819D02*
X183756190Y-91882438D01*
X183756190Y-91882438D02*
X183803809Y-91930057D01*
X183803809Y-91930057D02*
X183851428Y-92025295D01*
X183851428Y-92025295D02*
X183851428Y-92120533D01*
X183851428Y-92120533D02*
X183803809Y-92263390D01*
X183803809Y-92263390D02*
X183232381Y-92834819D01*
X183232381Y-92834819D02*
X183851428Y-92834819D01*
X184280000Y-92453866D02*
X185041905Y-92453866D01*
X185470476Y-91930057D02*
X185518095Y-91882438D01*
X185518095Y-91882438D02*
X185613333Y-91834819D01*
X185613333Y-91834819D02*
X185851428Y-91834819D01*
X185851428Y-91834819D02*
X185946666Y-91882438D01*
X185946666Y-91882438D02*
X185994285Y-91930057D01*
X185994285Y-91930057D02*
X186041904Y-92025295D01*
X186041904Y-92025295D02*
X186041904Y-92120533D01*
X186041904Y-92120533D02*
X185994285Y-92263390D01*
X185994285Y-92263390D02*
X185422857Y-92834819D01*
X185422857Y-92834819D02*
X186041904Y-92834819D01*
X124757142Y-62354819D02*
X124280952Y-62354819D01*
X124280952Y-62354819D02*
X124280952Y-61354819D01*
X125042857Y-62307200D02*
X125185714Y-62354819D01*
X125185714Y-62354819D02*
X125423809Y-62354819D01*
X125423809Y-62354819D02*
X125519047Y-62307200D01*
X125519047Y-62307200D02*
X125566666Y-62259580D01*
X125566666Y-62259580D02*
X125614285Y-62164342D01*
X125614285Y-62164342D02*
X125614285Y-62069104D01*
X125614285Y-62069104D02*
X125566666Y-61973866D01*
X125566666Y-61973866D02*
X125519047Y-61926247D01*
X125519047Y-61926247D02*
X125423809Y-61878628D01*
X125423809Y-61878628D02*
X125233333Y-61831009D01*
X125233333Y-61831009D02*
X125138095Y-61783390D01*
X125138095Y-61783390D02*
X125090476Y-61735771D01*
X125090476Y-61735771D02*
X125042857Y-61640533D01*
X125042857Y-61640533D02*
X125042857Y-61545295D01*
X125042857Y-61545295D02*
X125090476Y-61450057D01*
X125090476Y-61450057D02*
X125138095Y-61402438D01*
X125138095Y-61402438D02*
X125233333Y-61354819D01*
X125233333Y-61354819D02*
X125471428Y-61354819D01*
X125471428Y-61354819D02*
X125614285Y-61402438D01*
X126566666Y-62354819D02*
X125995238Y-62354819D01*
X126280952Y-62354819D02*
X126280952Y-61354819D01*
X126280952Y-61354819D02*
X126185714Y-61497676D01*
X126185714Y-61497676D02*
X126090476Y-61592914D01*
X126090476Y-61592914D02*
X125995238Y-61640533D01*
X116343333Y-75054819D02*
X116010000Y-74578628D01*
X115771905Y-75054819D02*
X115771905Y-74054819D01*
X115771905Y-74054819D02*
X116152857Y-74054819D01*
X116152857Y-74054819D02*
X116248095Y-74102438D01*
X116248095Y-74102438D02*
X116295714Y-74150057D01*
X116295714Y-74150057D02*
X116343333Y-74245295D01*
X116343333Y-74245295D02*
X116343333Y-74388152D01*
X116343333Y-74388152D02*
X116295714Y-74483390D01*
X116295714Y-74483390D02*
X116248095Y-74531009D01*
X116248095Y-74531009D02*
X116152857Y-74578628D01*
X116152857Y-74578628D02*
X115771905Y-74578628D01*
X116724286Y-74150057D02*
X116771905Y-74102438D01*
X116771905Y-74102438D02*
X116867143Y-74054819D01*
X116867143Y-74054819D02*
X117105238Y-74054819D01*
X117105238Y-74054819D02*
X117200476Y-74102438D01*
X117200476Y-74102438D02*
X117248095Y-74150057D01*
X117248095Y-74150057D02*
X117295714Y-74245295D01*
X117295714Y-74245295D02*
X117295714Y-74340533D01*
X117295714Y-74340533D02*
X117248095Y-74483390D01*
X117248095Y-74483390D02*
X116676667Y-75054819D01*
X116676667Y-75054819D02*
X117295714Y-75054819D01*
X114433333Y-58549580D02*
X114385714Y-58597200D01*
X114385714Y-58597200D02*
X114242857Y-58644819D01*
X114242857Y-58644819D02*
X114147619Y-58644819D01*
X114147619Y-58644819D02*
X114004762Y-58597200D01*
X114004762Y-58597200D02*
X113909524Y-58501961D01*
X113909524Y-58501961D02*
X113861905Y-58406723D01*
X113861905Y-58406723D02*
X113814286Y-58216247D01*
X113814286Y-58216247D02*
X113814286Y-58073390D01*
X113814286Y-58073390D02*
X113861905Y-57882914D01*
X113861905Y-57882914D02*
X113909524Y-57787676D01*
X113909524Y-57787676D02*
X114004762Y-57692438D01*
X114004762Y-57692438D02*
X114147619Y-57644819D01*
X114147619Y-57644819D02*
X114242857Y-57644819D01*
X114242857Y-57644819D02*
X114385714Y-57692438D01*
X114385714Y-57692438D02*
X114433333Y-57740057D01*
X114814286Y-57740057D02*
X114861905Y-57692438D01*
X114861905Y-57692438D02*
X114957143Y-57644819D01*
X114957143Y-57644819D02*
X115195238Y-57644819D01*
X115195238Y-57644819D02*
X115290476Y-57692438D01*
X115290476Y-57692438D02*
X115338095Y-57740057D01*
X115338095Y-57740057D02*
X115385714Y-57835295D01*
X115385714Y-57835295D02*
X115385714Y-57930533D01*
X115385714Y-57930533D02*
X115338095Y-58073390D01*
X115338095Y-58073390D02*
X114766667Y-58644819D01*
X114766667Y-58644819D02*
X115385714Y-58644819D01*
X113208095Y-74054819D02*
X113208095Y-74864342D01*
X113208095Y-74864342D02*
X113255714Y-74959580D01*
X113255714Y-74959580D02*
X113303333Y-75007200D01*
X113303333Y-75007200D02*
X113398571Y-75054819D01*
X113398571Y-75054819D02*
X113589047Y-75054819D01*
X113589047Y-75054819D02*
X113684285Y-75007200D01*
X113684285Y-75007200D02*
X113731904Y-74959580D01*
X113731904Y-74959580D02*
X113779523Y-74864342D01*
X113779523Y-74864342D02*
X113779523Y-74054819D01*
X114779523Y-75054819D02*
X114208095Y-75054819D01*
X114493809Y-75054819D02*
X114493809Y-74054819D01*
X114493809Y-74054819D02*
X114398571Y-74197676D01*
X114398571Y-74197676D02*
X114303333Y-74292914D01*
X114303333Y-74292914D02*
X114208095Y-74340533D01*
X101103333Y-83849580D02*
X101055714Y-83897200D01*
X101055714Y-83897200D02*
X100912857Y-83944819D01*
X100912857Y-83944819D02*
X100817619Y-83944819D01*
X100817619Y-83944819D02*
X100674762Y-83897200D01*
X100674762Y-83897200D02*
X100579524Y-83801961D01*
X100579524Y-83801961D02*
X100531905Y-83706723D01*
X100531905Y-83706723D02*
X100484286Y-83516247D01*
X100484286Y-83516247D02*
X100484286Y-83373390D01*
X100484286Y-83373390D02*
X100531905Y-83182914D01*
X100531905Y-83182914D02*
X100579524Y-83087676D01*
X100579524Y-83087676D02*
X100674762Y-82992438D01*
X100674762Y-82992438D02*
X100817619Y-82944819D01*
X100817619Y-82944819D02*
X100912857Y-82944819D01*
X100912857Y-82944819D02*
X101055714Y-82992438D01*
X101055714Y-82992438D02*
X101103333Y-83040057D01*
X102055714Y-83944819D02*
X101484286Y-83944819D01*
X101770000Y-83944819D02*
X101770000Y-82944819D01*
X101770000Y-82944819D02*
X101674762Y-83087676D01*
X101674762Y-83087676D02*
X101579524Y-83182914D01*
X101579524Y-83182914D02*
X101484286Y-83230533D01*
X120679580Y-99261429D02*
X120727200Y-99309048D01*
X120727200Y-99309048D02*
X120774819Y-99451905D01*
X120774819Y-99451905D02*
X120774819Y-99547143D01*
X120774819Y-99547143D02*
X120727200Y-99690000D01*
X120727200Y-99690000D02*
X120631961Y-99785238D01*
X120631961Y-99785238D02*
X120536723Y-99832857D01*
X120536723Y-99832857D02*
X120346247Y-99880476D01*
X120346247Y-99880476D02*
X120203390Y-99880476D01*
X120203390Y-99880476D02*
X120012914Y-99832857D01*
X120012914Y-99832857D02*
X119917676Y-99785238D01*
X119917676Y-99785238D02*
X119822438Y-99690000D01*
X119822438Y-99690000D02*
X119774819Y-99547143D01*
X119774819Y-99547143D02*
X119774819Y-99451905D01*
X119774819Y-99451905D02*
X119822438Y-99309048D01*
X119822438Y-99309048D02*
X119870057Y-99261429D01*
X120774819Y-98309048D02*
X120774819Y-98880476D01*
X120774819Y-98594762D02*
X119774819Y-98594762D01*
X119774819Y-98594762D02*
X119917676Y-98690000D01*
X119917676Y-98690000D02*
X120012914Y-98785238D01*
X120012914Y-98785238D02*
X120060533Y-98880476D01*
X120870057Y-98118572D02*
X120870057Y-97356667D01*
X120727200Y-97166190D02*
X120774819Y-97023333D01*
X120774819Y-97023333D02*
X120774819Y-96785238D01*
X120774819Y-96785238D02*
X120727200Y-96690000D01*
X120727200Y-96690000D02*
X120679580Y-96642381D01*
X120679580Y-96642381D02*
X120584342Y-96594762D01*
X120584342Y-96594762D02*
X120489104Y-96594762D01*
X120489104Y-96594762D02*
X120393866Y-96642381D01*
X120393866Y-96642381D02*
X120346247Y-96690000D01*
X120346247Y-96690000D02*
X120298628Y-96785238D01*
X120298628Y-96785238D02*
X120251009Y-96975714D01*
X120251009Y-96975714D02*
X120203390Y-97070952D01*
X120203390Y-97070952D02*
X120155771Y-97118571D01*
X120155771Y-97118571D02*
X120060533Y-97166190D01*
X120060533Y-97166190D02*
X119965295Y-97166190D01*
X119965295Y-97166190D02*
X119870057Y-97118571D01*
X119870057Y-97118571D02*
X119822438Y-97070952D01*
X119822438Y-97070952D02*
X119774819Y-96975714D01*
X119774819Y-96975714D02*
X119774819Y-96737619D01*
X119774819Y-96737619D02*
X119822438Y-96594762D01*
X120727200Y-95785238D02*
X120774819Y-95880476D01*
X120774819Y-95880476D02*
X120774819Y-96070952D01*
X120774819Y-96070952D02*
X120727200Y-96166190D01*
X120727200Y-96166190D02*
X120631961Y-96213809D01*
X120631961Y-96213809D02*
X120251009Y-96213809D01*
X120251009Y-96213809D02*
X120155771Y-96166190D01*
X120155771Y-96166190D02*
X120108152Y-96070952D01*
X120108152Y-96070952D02*
X120108152Y-95880476D01*
X120108152Y-95880476D02*
X120155771Y-95785238D01*
X120155771Y-95785238D02*
X120251009Y-95737619D01*
X120251009Y-95737619D02*
X120346247Y-95737619D01*
X120346247Y-95737619D02*
X120441485Y-96213809D01*
X120774819Y-95309047D02*
X120108152Y-95309047D01*
X120298628Y-95309047D02*
X120203390Y-95261428D01*
X120203390Y-95261428D02*
X120155771Y-95213809D01*
X120155771Y-95213809D02*
X120108152Y-95118571D01*
X120108152Y-95118571D02*
X120108152Y-95023333D01*
X120108152Y-94785237D02*
X120774819Y-94547142D01*
X120774819Y-94547142D02*
X120108152Y-94309047D01*
X120774819Y-93785237D02*
X120727200Y-93880475D01*
X120727200Y-93880475D02*
X120679580Y-93928094D01*
X120679580Y-93928094D02*
X120584342Y-93975713D01*
X120584342Y-93975713D02*
X120298628Y-93975713D01*
X120298628Y-93975713D02*
X120203390Y-93928094D01*
X120203390Y-93928094D02*
X120155771Y-93880475D01*
X120155771Y-93880475D02*
X120108152Y-93785237D01*
X120108152Y-93785237D02*
X120108152Y-93642380D01*
X120108152Y-93642380D02*
X120155771Y-93547142D01*
X120155771Y-93547142D02*
X120203390Y-93499523D01*
X120203390Y-93499523D02*
X120298628Y-93451904D01*
X120298628Y-93451904D02*
X120584342Y-93451904D01*
X120584342Y-93451904D02*
X120679580Y-93499523D01*
X120679580Y-93499523D02*
X120727200Y-93547142D01*
X120727200Y-93547142D02*
X120774819Y-93642380D01*
X120774819Y-93642380D02*
X120774819Y-93785237D01*
X120774819Y-92499523D02*
X120774819Y-93070951D01*
X120774819Y-92785237D02*
X119774819Y-92785237D01*
X119774819Y-92785237D02*
X119917676Y-92880475D01*
X119917676Y-92880475D02*
X120012914Y-92975713D01*
X120012914Y-92975713D02*
X120060533Y-93070951D01*
D11*
%TO.C,J1*%
X126610000Y-96130000D02*
X127940000Y-96130000D01*
X126610000Y-97460000D02*
X126610000Y-96130000D01*
X129210000Y-96130000D02*
X147050000Y-96130000D01*
X129210000Y-98790000D02*
X129210000Y-96130000D01*
X129210000Y-98790000D02*
X147050000Y-98790000D01*
X147050000Y-98790000D02*
X147050000Y-96130000D01*
%TO.C,J3*%
X149470000Y-96130000D02*
X150800000Y-96130000D01*
X149470000Y-97460000D02*
X149470000Y-96130000D01*
X152070000Y-96130000D02*
X164830000Y-96130000D01*
X152070000Y-98790000D02*
X152070000Y-96130000D01*
X152070000Y-98790000D02*
X164830000Y-98790000D01*
X164830000Y-98790000D02*
X164830000Y-96130000D01*
%TO.C,J2*%
X117466000Y-47870000D02*
X118796000Y-47870000D01*
X117466000Y-49200000D02*
X117466000Y-47870000D01*
X120066000Y-47870000D02*
X142986000Y-47870000D01*
X120066000Y-50530000D02*
X120066000Y-47870000D01*
X120066000Y-50530000D02*
X142986000Y-50530000D01*
X142986000Y-50530000D02*
X142986000Y-47870000D01*
%TO.C,J4*%
X144390000Y-47870000D02*
X145720000Y-47870000D01*
X144390000Y-49200000D02*
X144390000Y-47870000D01*
X146990000Y-47870000D02*
X164830000Y-47870000D01*
X146990000Y-50530000D02*
X146990000Y-47870000D01*
X146990000Y-50530000D02*
X164830000Y-50530000D01*
X164830000Y-50530000D02*
X164830000Y-47870000D01*
%TO.C,Pot1*%
X121785000Y-85835000D02*
X121785000Y-76065000D01*
X131555000Y-76065000D02*
X121785000Y-76065000D01*
X131555000Y-85835000D02*
X121785000Y-85835000D01*
X131555000Y-85835000D02*
X131555000Y-76065000D01*
%TO.C,J9-ESP32*%
X136770000Y-87360000D02*
X136770000Y-86030000D01*
X138100000Y-87360000D02*
X136770000Y-87360000D01*
X139370000Y-84700000D02*
X185150000Y-84700000D01*
X139370000Y-87360000D02*
X139370000Y-84700000D01*
X139370000Y-87360000D02*
X185150000Y-87360000D01*
X185150000Y-87360000D02*
X185150000Y-84700000D01*
%TO.C,C5*%
X100917789Y-58709000D02*
X101667789Y-58709000D01*
X101292789Y-58334000D02*
X101292789Y-59084000D01*
X105060000Y-57054000D02*
X105060000Y-64714000D01*
X105100000Y-57054000D02*
X105100000Y-64714000D01*
X105140000Y-57054000D02*
X105140000Y-64714000D01*
X105180000Y-57055000D02*
X105180000Y-64713000D01*
X105220000Y-57057000D02*
X105220000Y-64711000D01*
X105260000Y-57059000D02*
X105260000Y-64709000D01*
X105300000Y-57061000D02*
X105300000Y-59844000D01*
X105300000Y-61924000D02*
X105300000Y-64707000D01*
X105340000Y-57064000D02*
X105340000Y-59844000D01*
X105340000Y-61924000D02*
X105340000Y-64704000D01*
X105380000Y-57067000D02*
X105380000Y-59844000D01*
X105380000Y-61924000D02*
X105380000Y-64701000D01*
X105420000Y-57070000D02*
X105420000Y-59844000D01*
X105420000Y-61924000D02*
X105420000Y-64698000D01*
X105460000Y-57074000D02*
X105460000Y-59844000D01*
X105460000Y-61924000D02*
X105460000Y-64694000D01*
X105500000Y-57079000D02*
X105500000Y-59844000D01*
X105500000Y-61924000D02*
X105500000Y-64689000D01*
X105540000Y-57083000D02*
X105540000Y-59844000D01*
X105540000Y-61924000D02*
X105540000Y-64685000D01*
X105580000Y-57089000D02*
X105580000Y-59844000D01*
X105580000Y-61924000D02*
X105580000Y-64679000D01*
X105620000Y-57094000D02*
X105620000Y-59844000D01*
X105620000Y-61924000D02*
X105620000Y-64674000D01*
X105660000Y-57100000D02*
X105660000Y-59844000D01*
X105660000Y-61924000D02*
X105660000Y-64668000D01*
X105700000Y-57107000D02*
X105700000Y-59844000D01*
X105700000Y-61924000D02*
X105700000Y-64661000D01*
X105740000Y-57114000D02*
X105740000Y-59844000D01*
X105740000Y-61924000D02*
X105740000Y-64654000D01*
X105781000Y-57121000D02*
X105781000Y-59844000D01*
X105781000Y-61924000D02*
X105781000Y-64647000D01*
X105821000Y-57129000D02*
X105821000Y-59844000D01*
X105821000Y-61924000D02*
X105821000Y-64639000D01*
X105861000Y-57137000D02*
X105861000Y-59844000D01*
X105861000Y-61924000D02*
X105861000Y-64631000D01*
X105901000Y-57146000D02*
X105901000Y-59844000D01*
X105901000Y-61924000D02*
X105901000Y-64622000D01*
X105941000Y-57155000D02*
X105941000Y-59844000D01*
X105941000Y-61924000D02*
X105941000Y-64613000D01*
X105981000Y-57164000D02*
X105981000Y-59844000D01*
X105981000Y-61924000D02*
X105981000Y-64604000D01*
X106021000Y-57174000D02*
X106021000Y-59844000D01*
X106021000Y-61924000D02*
X106021000Y-64594000D01*
X106061000Y-57185000D02*
X106061000Y-59844000D01*
X106061000Y-61924000D02*
X106061000Y-64583000D01*
X106101000Y-57196000D02*
X106101000Y-59844000D01*
X106101000Y-61924000D02*
X106101000Y-64572000D01*
X106141000Y-57207000D02*
X106141000Y-59844000D01*
X106141000Y-61924000D02*
X106141000Y-64561000D01*
X106181000Y-57219000D02*
X106181000Y-59844000D01*
X106181000Y-61924000D02*
X106181000Y-64549000D01*
X106221000Y-57231000D02*
X106221000Y-59844000D01*
X106221000Y-61924000D02*
X106221000Y-64537000D01*
X106261000Y-57244000D02*
X106261000Y-59844000D01*
X106261000Y-61924000D02*
X106261000Y-64524000D01*
X106301000Y-57258000D02*
X106301000Y-59844000D01*
X106301000Y-61924000D02*
X106301000Y-64510000D01*
X106341000Y-57271000D02*
X106341000Y-59844000D01*
X106341000Y-61924000D02*
X106341000Y-64497000D01*
X106381000Y-57286000D02*
X106381000Y-59844000D01*
X106381000Y-61924000D02*
X106381000Y-64482000D01*
X106421000Y-57300000D02*
X106421000Y-59844000D01*
X106421000Y-61924000D02*
X106421000Y-64468000D01*
X106461000Y-57316000D02*
X106461000Y-59844000D01*
X106461000Y-61924000D02*
X106461000Y-64452000D01*
X106501000Y-57331000D02*
X106501000Y-59844000D01*
X106501000Y-61924000D02*
X106501000Y-64437000D01*
X106541000Y-57348000D02*
X106541000Y-59844000D01*
X106541000Y-61924000D02*
X106541000Y-64420000D01*
X106581000Y-57364000D02*
X106581000Y-59844000D01*
X106581000Y-61924000D02*
X106581000Y-64404000D01*
X106621000Y-57382000D02*
X106621000Y-59844000D01*
X106621000Y-61924000D02*
X106621000Y-64386000D01*
X106661000Y-57400000D02*
X106661000Y-59844000D01*
X106661000Y-61924000D02*
X106661000Y-64368000D01*
X106701000Y-57418000D02*
X106701000Y-59844000D01*
X106701000Y-61924000D02*
X106701000Y-64350000D01*
X106741000Y-57437000D02*
X106741000Y-59844000D01*
X106741000Y-61924000D02*
X106741000Y-64331000D01*
X106781000Y-57457000D02*
X106781000Y-59844000D01*
X106781000Y-61924000D02*
X106781000Y-64311000D01*
X106821000Y-57477000D02*
X106821000Y-59844000D01*
X106821000Y-61924000D02*
X106821000Y-64291000D01*
X106861000Y-57498000D02*
X106861000Y-59844000D01*
X106861000Y-61924000D02*
X106861000Y-64270000D01*
X106901000Y-57519000D02*
X106901000Y-59844000D01*
X106901000Y-61924000D02*
X106901000Y-64249000D01*
X106941000Y-57541000D02*
X106941000Y-59844000D01*
X106941000Y-61924000D02*
X106941000Y-64227000D01*
X106981000Y-57563000D02*
X106981000Y-59844000D01*
X106981000Y-61924000D02*
X106981000Y-64205000D01*
X107021000Y-57587000D02*
X107021000Y-59844000D01*
X107021000Y-61924000D02*
X107021000Y-64181000D01*
X107061000Y-57610000D02*
X107061000Y-59844000D01*
X107061000Y-61924000D02*
X107061000Y-64158000D01*
X107101000Y-57635000D02*
X107101000Y-59844000D01*
X107101000Y-61924000D02*
X107101000Y-64133000D01*
X107141000Y-57660000D02*
X107141000Y-59844000D01*
X107141000Y-61924000D02*
X107141000Y-64108000D01*
X107181000Y-57686000D02*
X107181000Y-59844000D01*
X107181000Y-61924000D02*
X107181000Y-64082000D01*
X107221000Y-57712000D02*
X107221000Y-59844000D01*
X107221000Y-61924000D02*
X107221000Y-64056000D01*
X107261000Y-57740000D02*
X107261000Y-59844000D01*
X107261000Y-61924000D02*
X107261000Y-64028000D01*
X107301000Y-57768000D02*
X107301000Y-59844000D01*
X107301000Y-61924000D02*
X107301000Y-64000000D01*
X107341000Y-57796000D02*
X107341000Y-59844000D01*
X107341000Y-61924000D02*
X107341000Y-63972000D01*
X107381000Y-57826000D02*
X107381000Y-63942000D01*
X107421000Y-57856000D02*
X107421000Y-63912000D01*
X107461000Y-57888000D02*
X107461000Y-63880000D01*
X107501000Y-57920000D02*
X107501000Y-63848000D01*
X107541000Y-57953000D02*
X107541000Y-63815000D01*
X107581000Y-57986000D02*
X107581000Y-63782000D01*
X107621000Y-58021000D02*
X107621000Y-63747000D01*
X107661000Y-58057000D02*
X107661000Y-63711000D01*
X107701000Y-58094000D02*
X107701000Y-63674000D01*
X107741000Y-58132000D02*
X107741000Y-63636000D01*
X107781000Y-58171000D02*
X107781000Y-63597000D01*
X107821000Y-58211000D02*
X107821000Y-63557000D01*
X107861000Y-58252000D02*
X107861000Y-63516000D01*
X107901000Y-58295000D02*
X107901000Y-63473000D01*
X107941000Y-58338000D02*
X107941000Y-63430000D01*
X107981000Y-58384000D02*
X107981000Y-63384000D01*
X108021000Y-58430000D02*
X108021000Y-63338000D01*
X108061000Y-58479000D02*
X108061000Y-63289000D01*
X108101000Y-58529000D02*
X108101000Y-63239000D01*
X108141000Y-58580000D02*
X108141000Y-63188000D01*
X108181000Y-58634000D02*
X108181000Y-63134000D01*
X108221000Y-58689000D02*
X108221000Y-63079000D01*
X108261000Y-58747000D02*
X108261000Y-63021000D01*
X108301000Y-58807000D02*
X108301000Y-62961000D01*
X108341000Y-58870000D02*
X108341000Y-62898000D01*
X108381000Y-58935000D02*
X108381000Y-62833000D01*
X108421000Y-59003000D02*
X108421000Y-62765000D01*
X108461000Y-59075000D02*
X108461000Y-62693000D01*
X108501000Y-59151000D02*
X108501000Y-62617000D01*
X108541000Y-59230000D02*
X108541000Y-62538000D01*
X108581000Y-59315000D02*
X108581000Y-62453000D01*
X108621000Y-59406000D02*
X108621000Y-62362000D01*
X108661000Y-59503000D02*
X108661000Y-62265000D01*
X108701000Y-59609000D02*
X108701000Y-62159000D01*
X108741000Y-59726000D02*
X108741000Y-62042000D01*
X108781000Y-59856000D02*
X108781000Y-61912000D01*
X108821000Y-60007000D02*
X108821000Y-61761000D01*
X108861000Y-60191000D02*
X108861000Y-61577000D01*
X108901000Y-60443000D02*
X108901000Y-61325000D01*
X108930000Y-60884000D02*
G75*
G02*
X101190000Y-60884000I-3870000J0D01*
G01*
X101190000Y-60884000D02*
G75*
G02*
X108930000Y-60884000I3870000J0D01*
G01*
%TO.C,J10-ESP32-2*%
X136770000Y-58150000D02*
X136770000Y-56820000D01*
X138100000Y-58150000D02*
X136770000Y-58150000D01*
X139370000Y-55490000D02*
X185150000Y-55490000D01*
X139370000Y-58150000D02*
X139370000Y-55490000D01*
X139370000Y-58150000D02*
X185150000Y-58150000D01*
X185150000Y-58150000D02*
X185150000Y-55490000D01*
%TO.C,C3*%
X122840000Y-69460000D02*
X130500000Y-69460000D01*
X122840000Y-69500000D02*
X130500000Y-69500000D01*
X122840000Y-69540000D02*
X130500000Y-69540000D01*
X122841000Y-69420000D02*
X130499000Y-69420000D01*
X122843000Y-69380000D02*
X130497000Y-69380000D01*
X122845000Y-69340000D02*
X130495000Y-69340000D01*
X122847000Y-69300000D02*
X125630000Y-69300000D01*
X122850000Y-69260000D02*
X125630000Y-69260000D01*
X122853000Y-69220000D02*
X125630000Y-69220000D01*
X122856000Y-69180000D02*
X125630000Y-69180000D01*
X122860000Y-69140000D02*
X125630000Y-69140000D01*
X122865000Y-69100000D02*
X125630000Y-69100000D01*
X122869000Y-69060000D02*
X125630000Y-69060000D01*
X122875000Y-69020000D02*
X125630000Y-69020000D01*
X122880000Y-68980000D02*
X125630000Y-68980000D01*
X122886000Y-68940000D02*
X125630000Y-68940000D01*
X122893000Y-68900000D02*
X125630000Y-68900000D01*
X122900000Y-68860000D02*
X125630000Y-68860000D01*
X122907000Y-68819000D02*
X125630000Y-68819000D01*
X122915000Y-68779000D02*
X125630000Y-68779000D01*
X122923000Y-68739000D02*
X125630000Y-68739000D01*
X122932000Y-68699000D02*
X125630000Y-68699000D01*
X122941000Y-68659000D02*
X125630000Y-68659000D01*
X122950000Y-68619000D02*
X125630000Y-68619000D01*
X122960000Y-68579000D02*
X125630000Y-68579000D01*
X122971000Y-68539000D02*
X125630000Y-68539000D01*
X122982000Y-68499000D02*
X125630000Y-68499000D01*
X122993000Y-68459000D02*
X125630000Y-68459000D01*
X123005000Y-68419000D02*
X125630000Y-68419000D01*
X123017000Y-68379000D02*
X125630000Y-68379000D01*
X123030000Y-68339000D02*
X125630000Y-68339000D01*
X123044000Y-68299000D02*
X125630000Y-68299000D01*
X123057000Y-68259000D02*
X125630000Y-68259000D01*
X123072000Y-68219000D02*
X125630000Y-68219000D01*
X123086000Y-68179000D02*
X125630000Y-68179000D01*
X123102000Y-68139000D02*
X125630000Y-68139000D01*
X123117000Y-68099000D02*
X125630000Y-68099000D01*
X123134000Y-68059000D02*
X125630000Y-68059000D01*
X123150000Y-68019000D02*
X125630000Y-68019000D01*
X123168000Y-67979000D02*
X125630000Y-67979000D01*
X123186000Y-67939000D02*
X125630000Y-67939000D01*
X123204000Y-67899000D02*
X125630000Y-67899000D01*
X123223000Y-67859000D02*
X125630000Y-67859000D01*
X123243000Y-67819000D02*
X125630000Y-67819000D01*
X123263000Y-67779000D02*
X125630000Y-67779000D01*
X123284000Y-67739000D02*
X125630000Y-67739000D01*
X123305000Y-67699000D02*
X125630000Y-67699000D01*
X123327000Y-67659000D02*
X125630000Y-67659000D01*
X123349000Y-67619000D02*
X125630000Y-67619000D01*
X123373000Y-67579000D02*
X125630000Y-67579000D01*
X123396000Y-67539000D02*
X125630000Y-67539000D01*
X123421000Y-67499000D02*
X125630000Y-67499000D01*
X123446000Y-67459000D02*
X125630000Y-67459000D01*
X123472000Y-67419000D02*
X125630000Y-67419000D01*
X123498000Y-67379000D02*
X125630000Y-67379000D01*
X123526000Y-67339000D02*
X125630000Y-67339000D01*
X123554000Y-67299000D02*
X125630000Y-67299000D01*
X123582000Y-67259000D02*
X125630000Y-67259000D01*
X123612000Y-67219000D02*
X129728000Y-67219000D01*
X123642000Y-67179000D02*
X129698000Y-67179000D01*
X123674000Y-67139000D02*
X129666000Y-67139000D01*
X123706000Y-67099000D02*
X129634000Y-67099000D01*
X123739000Y-67059000D02*
X129601000Y-67059000D01*
X123772000Y-67019000D02*
X129568000Y-67019000D01*
X123807000Y-66979000D02*
X129533000Y-66979000D01*
X123843000Y-66939000D02*
X129497000Y-66939000D01*
X123880000Y-66899000D02*
X129460000Y-66899000D01*
X123918000Y-66859000D02*
X129422000Y-66859000D01*
X123957000Y-66819000D02*
X129383000Y-66819000D01*
X123997000Y-66779000D02*
X129343000Y-66779000D01*
X124038000Y-66739000D02*
X129302000Y-66739000D01*
X124081000Y-66699000D02*
X129259000Y-66699000D01*
X124120000Y-73307211D02*
X124870000Y-73307211D01*
X124124000Y-66659000D02*
X129216000Y-66659000D01*
X124170000Y-66619000D02*
X129170000Y-66619000D01*
X124216000Y-66579000D02*
X129124000Y-66579000D01*
X124265000Y-66539000D02*
X129075000Y-66539000D01*
X124315000Y-66499000D02*
X129025000Y-66499000D01*
X124366000Y-66459000D02*
X128974000Y-66459000D01*
X124420000Y-66419000D02*
X128920000Y-66419000D01*
X124475000Y-66379000D02*
X128865000Y-66379000D01*
X124495000Y-73682211D02*
X124495000Y-72932211D01*
X124533000Y-66339000D02*
X128807000Y-66339000D01*
X124593000Y-66299000D02*
X128747000Y-66299000D01*
X124656000Y-66259000D02*
X128684000Y-66259000D01*
X124721000Y-66219000D02*
X128619000Y-66219000D01*
X124789000Y-66179000D02*
X128551000Y-66179000D01*
X124861000Y-66139000D02*
X128479000Y-66139000D01*
X124937000Y-66099000D02*
X128403000Y-66099000D01*
X125016000Y-66059000D02*
X128324000Y-66059000D01*
X125101000Y-66019000D02*
X128239000Y-66019000D01*
X125192000Y-65979000D02*
X128148000Y-65979000D01*
X125289000Y-65939000D02*
X128051000Y-65939000D01*
X125395000Y-65899000D02*
X127945000Y-65899000D01*
X125512000Y-65859000D02*
X127828000Y-65859000D01*
X125642000Y-65819000D02*
X127698000Y-65819000D01*
X125793000Y-65779000D02*
X127547000Y-65779000D01*
X125977000Y-65739000D02*
X127363000Y-65739000D01*
X126229000Y-65699000D02*
X127111000Y-65699000D01*
X127710000Y-67259000D02*
X129758000Y-67259000D01*
X127710000Y-67299000D02*
X129786000Y-67299000D01*
X127710000Y-67339000D02*
X129814000Y-67339000D01*
X127710000Y-67379000D02*
X129842000Y-67379000D01*
X127710000Y-67419000D02*
X129868000Y-67419000D01*
X127710000Y-67459000D02*
X129894000Y-67459000D01*
X127710000Y-67499000D02*
X129919000Y-67499000D01*
X127710000Y-67539000D02*
X129944000Y-67539000D01*
X127710000Y-67579000D02*
X129967000Y-67579000D01*
X127710000Y-67619000D02*
X129991000Y-67619000D01*
X127710000Y-67659000D02*
X130013000Y-67659000D01*
X127710000Y-67699000D02*
X130035000Y-67699000D01*
X127710000Y-67739000D02*
X130056000Y-67739000D01*
X127710000Y-67779000D02*
X130077000Y-67779000D01*
X127710000Y-67819000D02*
X130097000Y-67819000D01*
X127710000Y-67859000D02*
X130117000Y-67859000D01*
X127710000Y-67899000D02*
X130136000Y-67899000D01*
X127710000Y-67939000D02*
X130154000Y-67939000D01*
X127710000Y-67979000D02*
X130172000Y-67979000D01*
X127710000Y-68019000D02*
X130190000Y-68019000D01*
X127710000Y-68059000D02*
X130206000Y-68059000D01*
X127710000Y-68099000D02*
X130223000Y-68099000D01*
X127710000Y-68139000D02*
X130238000Y-68139000D01*
X127710000Y-68179000D02*
X130254000Y-68179000D01*
X127710000Y-68219000D02*
X130268000Y-68219000D01*
X127710000Y-68259000D02*
X130283000Y-68259000D01*
X127710000Y-68299000D02*
X130296000Y-68299000D01*
X127710000Y-68339000D02*
X130310000Y-68339000D01*
X127710000Y-68379000D02*
X130323000Y-68379000D01*
X127710000Y-68419000D02*
X130335000Y-68419000D01*
X127710000Y-68459000D02*
X130347000Y-68459000D01*
X127710000Y-68499000D02*
X130358000Y-68499000D01*
X127710000Y-68539000D02*
X130369000Y-68539000D01*
X127710000Y-68579000D02*
X130380000Y-68579000D01*
X127710000Y-68619000D02*
X130390000Y-68619000D01*
X127710000Y-68659000D02*
X130399000Y-68659000D01*
X127710000Y-68699000D02*
X130408000Y-68699000D01*
X127710000Y-68739000D02*
X130417000Y-68739000D01*
X127710000Y-68779000D02*
X130425000Y-68779000D01*
X127710000Y-68819000D02*
X130433000Y-68819000D01*
X127710000Y-68860000D02*
X130440000Y-68860000D01*
X127710000Y-68900000D02*
X130447000Y-68900000D01*
X127710000Y-68940000D02*
X130454000Y-68940000D01*
X127710000Y-68980000D02*
X130460000Y-68980000D01*
X127710000Y-69020000D02*
X130465000Y-69020000D01*
X127710000Y-69060000D02*
X130471000Y-69060000D01*
X127710000Y-69100000D02*
X130475000Y-69100000D01*
X127710000Y-69140000D02*
X130480000Y-69140000D01*
X127710000Y-69180000D02*
X130484000Y-69180000D01*
X127710000Y-69220000D02*
X130487000Y-69220000D01*
X127710000Y-69260000D02*
X130490000Y-69260000D01*
X127710000Y-69300000D02*
X130493000Y-69300000D01*
X130540000Y-69540000D02*
G75*
G02*
X122800000Y-69540000I-3870000J0D01*
G01*
X122800000Y-69540000D02*
G75*
G02*
X130540000Y-69540000I3870000J0D01*
G01*
%TO.C,J10-Servo1*%
X103750000Y-91065000D02*
X105080000Y-91065000D01*
X103750000Y-92395000D02*
X103750000Y-91065000D01*
X103750000Y-93665000D02*
X103750000Y-98805000D01*
X103750000Y-93665000D02*
X106410000Y-93665000D01*
X103750000Y-98805000D02*
X106410000Y-98805000D01*
X106410000Y-93665000D02*
X106410000Y-98805000D01*
%TO.C,J9-DEV-14495*%
X97400000Y-50530000D02*
X97400000Y-49200000D01*
X98730000Y-50530000D02*
X97400000Y-50530000D01*
X100000000Y-47870000D02*
X107680000Y-47870000D01*
X100000000Y-50530000D02*
X100000000Y-47870000D01*
X100000000Y-50530000D02*
X107680000Y-50530000D01*
X107680000Y-50530000D02*
X107680000Y-47870000D01*
%TO.C,J10-ESP32*%
X136770000Y-61960000D02*
X136770000Y-60630000D01*
X138100000Y-61960000D02*
X136770000Y-61960000D01*
X139370000Y-59300000D02*
X185150000Y-59300000D01*
X139370000Y-61960000D02*
X139370000Y-59300000D01*
X139370000Y-61960000D02*
X185150000Y-61960000D01*
X185150000Y-61960000D02*
X185150000Y-59300000D01*
%TO.C,C6*%
X101150395Y-69453000D02*
X101150395Y-68571000D01*
X101190395Y-69705000D02*
X101190395Y-68319000D01*
X101230395Y-69889000D02*
X101230395Y-68135000D01*
X101270395Y-70040000D02*
X101270395Y-67984000D01*
X101310395Y-70170000D02*
X101310395Y-67854000D01*
X101350395Y-70287000D02*
X101350395Y-67737000D01*
X101390395Y-70393000D02*
X101390395Y-67631000D01*
X101430395Y-70490000D02*
X101430395Y-67534000D01*
X101470395Y-70581000D02*
X101470395Y-67443000D01*
X101510395Y-70666000D02*
X101510395Y-67358000D01*
X101550395Y-70745000D02*
X101550395Y-67279000D01*
X101590395Y-70821000D02*
X101590395Y-67203000D01*
X101630395Y-70893000D02*
X101630395Y-67131000D01*
X101670395Y-70961000D02*
X101670395Y-67063000D01*
X101710395Y-71026000D02*
X101710395Y-66998000D01*
X101750395Y-71089000D02*
X101750395Y-66935000D01*
X101790395Y-71149000D02*
X101790395Y-66875000D01*
X101830395Y-71207000D02*
X101830395Y-66817000D01*
X101870395Y-71262000D02*
X101870395Y-66762000D01*
X101910395Y-71316000D02*
X101910395Y-66708000D01*
X101950395Y-71367000D02*
X101950395Y-66657000D01*
X101990395Y-71417000D02*
X101990395Y-66607000D01*
X102030395Y-71466000D02*
X102030395Y-66558000D01*
X102070395Y-71512000D02*
X102070395Y-66512000D01*
X102110395Y-71558000D02*
X102110395Y-66466000D01*
X102150395Y-71601000D02*
X102150395Y-66423000D01*
X102190395Y-71644000D02*
X102190395Y-66380000D01*
X102230395Y-71685000D02*
X102230395Y-66339000D01*
X102270395Y-71725000D02*
X102270395Y-66299000D01*
X102310395Y-71764000D02*
X102310395Y-66260000D01*
X102350395Y-71802000D02*
X102350395Y-66222000D01*
X102390395Y-71839000D02*
X102390395Y-66185000D01*
X102430395Y-71875000D02*
X102430395Y-66149000D01*
X102470395Y-71910000D02*
X102470395Y-66114000D01*
X102510395Y-71943000D02*
X102510395Y-66081000D01*
X102550395Y-71976000D02*
X102550395Y-66048000D01*
X102590395Y-72008000D02*
X102590395Y-66016000D01*
X102630395Y-72040000D02*
X102630395Y-65984000D01*
X102670395Y-72070000D02*
X102670395Y-65954000D01*
X102710395Y-67972000D02*
X102710395Y-65924000D01*
X102710395Y-72100000D02*
X102710395Y-70052000D01*
X102750395Y-67972000D02*
X102750395Y-65896000D01*
X102750395Y-72128000D02*
X102750395Y-70052000D01*
X102790395Y-67972000D02*
X102790395Y-65868000D01*
X102790395Y-72156000D02*
X102790395Y-70052000D01*
X102830395Y-67972000D02*
X102830395Y-65840000D01*
X102830395Y-72184000D02*
X102830395Y-70052000D01*
X102870395Y-67972000D02*
X102870395Y-65814000D01*
X102870395Y-72210000D02*
X102870395Y-70052000D01*
X102910395Y-67972000D02*
X102910395Y-65788000D01*
X102910395Y-72236000D02*
X102910395Y-70052000D01*
X102950395Y-67972000D02*
X102950395Y-65763000D01*
X102950395Y-72261000D02*
X102950395Y-70052000D01*
X102990395Y-67972000D02*
X102990395Y-65738000D01*
X102990395Y-72286000D02*
X102990395Y-70052000D01*
X103030395Y-67972000D02*
X103030395Y-65715000D01*
X103030395Y-72309000D02*
X103030395Y-70052000D01*
X103070395Y-67972000D02*
X103070395Y-65691000D01*
X103070395Y-72333000D02*
X103070395Y-70052000D01*
X103110395Y-67972000D02*
X103110395Y-65669000D01*
X103110395Y-72355000D02*
X103110395Y-70052000D01*
X103150395Y-67972000D02*
X103150395Y-65647000D01*
X103150395Y-72377000D02*
X103150395Y-70052000D01*
X103190395Y-67972000D02*
X103190395Y-65626000D01*
X103190395Y-72398000D02*
X103190395Y-70052000D01*
X103230395Y-67972000D02*
X103230395Y-65605000D01*
X103230395Y-72419000D02*
X103230395Y-70052000D01*
X103270395Y-67972000D02*
X103270395Y-65585000D01*
X103270395Y-72439000D02*
X103270395Y-70052000D01*
X103310395Y-67972000D02*
X103310395Y-65565000D01*
X103310395Y-72459000D02*
X103310395Y-70052000D01*
X103350395Y-67972000D02*
X103350395Y-65546000D01*
X103350395Y-72478000D02*
X103350395Y-70052000D01*
X103390395Y-67972000D02*
X103390395Y-65528000D01*
X103390395Y-72496000D02*
X103390395Y-70052000D01*
X103430395Y-67972000D02*
X103430395Y-65510000D01*
X103430395Y-72514000D02*
X103430395Y-70052000D01*
X103470395Y-67972000D02*
X103470395Y-65492000D01*
X103470395Y-72532000D02*
X103470395Y-70052000D01*
X103510395Y-67972000D02*
X103510395Y-65476000D01*
X103510395Y-72548000D02*
X103510395Y-70052000D01*
X103550395Y-67972000D02*
X103550395Y-65459000D01*
X103550395Y-72565000D02*
X103550395Y-70052000D01*
X103590395Y-67972000D02*
X103590395Y-65444000D01*
X103590395Y-72580000D02*
X103590395Y-70052000D01*
X103630395Y-67972000D02*
X103630395Y-65428000D01*
X103630395Y-72596000D02*
X103630395Y-70052000D01*
X103670395Y-67972000D02*
X103670395Y-65414000D01*
X103670395Y-72610000D02*
X103670395Y-70052000D01*
X103710395Y-67972000D02*
X103710395Y-65399000D01*
X103710395Y-72625000D02*
X103710395Y-70052000D01*
X103750395Y-67972000D02*
X103750395Y-65386000D01*
X103750395Y-72638000D02*
X103750395Y-70052000D01*
X103790395Y-67972000D02*
X103790395Y-65372000D01*
X103790395Y-72652000D02*
X103790395Y-70052000D01*
X103830395Y-67972000D02*
X103830395Y-65359000D01*
X103830395Y-72665000D02*
X103830395Y-70052000D01*
X103870395Y-67972000D02*
X103870395Y-65347000D01*
X103870395Y-72677000D02*
X103870395Y-70052000D01*
X103910395Y-67972000D02*
X103910395Y-65335000D01*
X103910395Y-72689000D02*
X103910395Y-70052000D01*
X103950395Y-67972000D02*
X103950395Y-65324000D01*
X103950395Y-72700000D02*
X103950395Y-70052000D01*
X103990395Y-67972000D02*
X103990395Y-65313000D01*
X103990395Y-72711000D02*
X103990395Y-70052000D01*
X104030395Y-67972000D02*
X104030395Y-65302000D01*
X104030395Y-72722000D02*
X104030395Y-70052000D01*
X104070395Y-67972000D02*
X104070395Y-65292000D01*
X104070395Y-72732000D02*
X104070395Y-70052000D01*
X104110395Y-67972000D02*
X104110395Y-65283000D01*
X104110395Y-72741000D02*
X104110395Y-70052000D01*
X104150395Y-67972000D02*
X104150395Y-65274000D01*
X104150395Y-72750000D02*
X104150395Y-70052000D01*
X104190395Y-67972000D02*
X104190395Y-65265000D01*
X104190395Y-72759000D02*
X104190395Y-70052000D01*
X104230395Y-67972000D02*
X104230395Y-65257000D01*
X104230395Y-72767000D02*
X104230395Y-70052000D01*
X104270395Y-67972000D02*
X104270395Y-65249000D01*
X104270395Y-72775000D02*
X104270395Y-70052000D01*
X104311395Y-67972000D02*
X104311395Y-65242000D01*
X104311395Y-72782000D02*
X104311395Y-70052000D01*
X104351395Y-67972000D02*
X104351395Y-65235000D01*
X104351395Y-72789000D02*
X104351395Y-70052000D01*
X104391395Y-67972000D02*
X104391395Y-65228000D01*
X104391395Y-72796000D02*
X104391395Y-70052000D01*
X104431395Y-67972000D02*
X104431395Y-65222000D01*
X104431395Y-72802000D02*
X104431395Y-70052000D01*
X104471395Y-67972000D02*
X104471395Y-65217000D01*
X104471395Y-72807000D02*
X104471395Y-70052000D01*
X104511395Y-67972000D02*
X104511395Y-65211000D01*
X104511395Y-72813000D02*
X104511395Y-70052000D01*
X104551395Y-67972000D02*
X104551395Y-65207000D01*
X104551395Y-72817000D02*
X104551395Y-70052000D01*
X104591395Y-67972000D02*
X104591395Y-65202000D01*
X104591395Y-72822000D02*
X104591395Y-70052000D01*
X104631395Y-67972000D02*
X104631395Y-65198000D01*
X104631395Y-72826000D02*
X104631395Y-70052000D01*
X104671395Y-67972000D02*
X104671395Y-65195000D01*
X104671395Y-72829000D02*
X104671395Y-70052000D01*
X104711395Y-67972000D02*
X104711395Y-65192000D01*
X104711395Y-72832000D02*
X104711395Y-70052000D01*
X104751395Y-67972000D02*
X104751395Y-65189000D01*
X104751395Y-72835000D02*
X104751395Y-70052000D01*
X104791395Y-72837000D02*
X104791395Y-65187000D01*
X104831395Y-72839000D02*
X104831395Y-65185000D01*
X104871395Y-72841000D02*
X104871395Y-65183000D01*
X104911395Y-72842000D02*
X104911395Y-65182000D01*
X104951395Y-72842000D02*
X104951395Y-65182000D01*
X104991395Y-72842000D02*
X104991395Y-65182000D01*
X108758606Y-71562000D02*
X108758606Y-70812000D01*
X109133606Y-71187000D02*
X108383606Y-71187000D01*
X108861395Y-69012000D02*
G75*
G02*
X101121395Y-69012000I-3870000J0D01*
G01*
X101121395Y-69012000D02*
G75*
G02*
X108861395Y-69012000I3870000J0D01*
G01*
%TO.C,J12-RGB1*%
X169800000Y-50530000D02*
X169800000Y-49200000D01*
X171130000Y-50530000D02*
X169800000Y-50530000D01*
X172400000Y-47870000D02*
X180080000Y-47870000D01*
X172400000Y-50530000D02*
X172400000Y-47870000D01*
X172400000Y-50530000D02*
X180080000Y-50530000D01*
X180080000Y-50530000D02*
X180080000Y-47870000D01*
%TO.C,R1*%
X111200000Y-88570000D02*
X111970000Y-88570000D01*
X111970000Y-87200000D02*
X111970000Y-89940000D01*
X111970000Y-89940000D02*
X118510000Y-89940000D01*
X118510000Y-87200000D02*
X111970000Y-87200000D01*
X118510000Y-89940000D02*
X118510000Y-87200000D01*
X119280000Y-88570000D02*
X118510000Y-88570000D01*
%TO.C,J8*%
X144390000Y-50410000D02*
X145720000Y-50410000D01*
X144390000Y-51740000D02*
X144390000Y-50410000D01*
X146990000Y-50410000D02*
X164830000Y-50410000D01*
X146990000Y-53070000D02*
X146990000Y-50410000D01*
X146990000Y-53070000D02*
X164830000Y-53070000D01*
X164830000Y-53070000D02*
X164830000Y-50410000D01*
%TO.C,C4*%
X101250000Y-77080000D02*
X108910000Y-77080000D01*
X101250000Y-77120000D02*
X108910000Y-77120000D01*
X101250000Y-77160000D02*
X108910000Y-77160000D01*
X101251000Y-77040000D02*
X108909000Y-77040000D01*
X101253000Y-77000000D02*
X108907000Y-77000000D01*
X101255000Y-76960000D02*
X108905000Y-76960000D01*
X101257000Y-76920000D02*
X104040000Y-76920000D01*
X101260000Y-76880000D02*
X104040000Y-76880000D01*
X101263000Y-76840000D02*
X104040000Y-76840000D01*
X101266000Y-76800000D02*
X104040000Y-76800000D01*
X101270000Y-76760000D02*
X104040000Y-76760000D01*
X101275000Y-76720000D02*
X104040000Y-76720000D01*
X101279000Y-76680000D02*
X104040000Y-76680000D01*
X101285000Y-76640000D02*
X104040000Y-76640000D01*
X101290000Y-76600000D02*
X104040000Y-76600000D01*
X101296000Y-76560000D02*
X104040000Y-76560000D01*
X101303000Y-76520000D02*
X104040000Y-76520000D01*
X101310000Y-76480000D02*
X104040000Y-76480000D01*
X101317000Y-76439000D02*
X104040000Y-76439000D01*
X101325000Y-76399000D02*
X104040000Y-76399000D01*
X101333000Y-76359000D02*
X104040000Y-76359000D01*
X101342000Y-76319000D02*
X104040000Y-76319000D01*
X101351000Y-76279000D02*
X104040000Y-76279000D01*
X101360000Y-76239000D02*
X104040000Y-76239000D01*
X101370000Y-76199000D02*
X104040000Y-76199000D01*
X101381000Y-76159000D02*
X104040000Y-76159000D01*
X101392000Y-76119000D02*
X104040000Y-76119000D01*
X101403000Y-76079000D02*
X104040000Y-76079000D01*
X101415000Y-76039000D02*
X104040000Y-76039000D01*
X101427000Y-75999000D02*
X104040000Y-75999000D01*
X101440000Y-75959000D02*
X104040000Y-75959000D01*
X101454000Y-75919000D02*
X104040000Y-75919000D01*
X101467000Y-75879000D02*
X104040000Y-75879000D01*
X101482000Y-75839000D02*
X104040000Y-75839000D01*
X101496000Y-75799000D02*
X104040000Y-75799000D01*
X101512000Y-75759000D02*
X104040000Y-75759000D01*
X101527000Y-75719000D02*
X104040000Y-75719000D01*
X101544000Y-75679000D02*
X104040000Y-75679000D01*
X101560000Y-75639000D02*
X104040000Y-75639000D01*
X101578000Y-75599000D02*
X104040000Y-75599000D01*
X101596000Y-75559000D02*
X104040000Y-75559000D01*
X101614000Y-75519000D02*
X104040000Y-75519000D01*
X101633000Y-75479000D02*
X104040000Y-75479000D01*
X101653000Y-75439000D02*
X104040000Y-75439000D01*
X101673000Y-75399000D02*
X104040000Y-75399000D01*
X101694000Y-75359000D02*
X104040000Y-75359000D01*
X101715000Y-75319000D02*
X104040000Y-75319000D01*
X101737000Y-75279000D02*
X104040000Y-75279000D01*
X101759000Y-75239000D02*
X104040000Y-75239000D01*
X101783000Y-75199000D02*
X104040000Y-75199000D01*
X101806000Y-75159000D02*
X104040000Y-75159000D01*
X101831000Y-75119000D02*
X104040000Y-75119000D01*
X101856000Y-75079000D02*
X104040000Y-75079000D01*
X101882000Y-75039000D02*
X104040000Y-75039000D01*
X101908000Y-74999000D02*
X104040000Y-74999000D01*
X101936000Y-74959000D02*
X104040000Y-74959000D01*
X101964000Y-74919000D02*
X104040000Y-74919000D01*
X101992000Y-74879000D02*
X104040000Y-74879000D01*
X102022000Y-74839000D02*
X108138000Y-74839000D01*
X102052000Y-74799000D02*
X108108000Y-74799000D01*
X102084000Y-74759000D02*
X108076000Y-74759000D01*
X102116000Y-74719000D02*
X108044000Y-74719000D01*
X102149000Y-74679000D02*
X108011000Y-74679000D01*
X102182000Y-74639000D02*
X107978000Y-74639000D01*
X102217000Y-74599000D02*
X107943000Y-74599000D01*
X102253000Y-74559000D02*
X107907000Y-74559000D01*
X102290000Y-74519000D02*
X107870000Y-74519000D01*
X102328000Y-74479000D02*
X107832000Y-74479000D01*
X102367000Y-74439000D02*
X107793000Y-74439000D01*
X102407000Y-74399000D02*
X107753000Y-74399000D01*
X102448000Y-74359000D02*
X107712000Y-74359000D01*
X102491000Y-74319000D02*
X107669000Y-74319000D01*
X102530000Y-80927211D02*
X103280000Y-80927211D01*
X102534000Y-74279000D02*
X107626000Y-74279000D01*
X102580000Y-74239000D02*
X107580000Y-74239000D01*
X102626000Y-74199000D02*
X107534000Y-74199000D01*
X102675000Y-74159000D02*
X107485000Y-74159000D01*
X102725000Y-74119000D02*
X107435000Y-74119000D01*
X102776000Y-74079000D02*
X107384000Y-74079000D01*
X102830000Y-74039000D02*
X107330000Y-74039000D01*
X102885000Y-73999000D02*
X107275000Y-73999000D01*
X102905000Y-81302211D02*
X102905000Y-80552211D01*
X102943000Y-73959000D02*
X107217000Y-73959000D01*
X103003000Y-73919000D02*
X107157000Y-73919000D01*
X103066000Y-73879000D02*
X107094000Y-73879000D01*
X103131000Y-73839000D02*
X107029000Y-73839000D01*
X103199000Y-73799000D02*
X106961000Y-73799000D01*
X103271000Y-73759000D02*
X106889000Y-73759000D01*
X103347000Y-73719000D02*
X106813000Y-73719000D01*
X103426000Y-73679000D02*
X106734000Y-73679000D01*
X103511000Y-73639000D02*
X106649000Y-73639000D01*
X103602000Y-73599000D02*
X106558000Y-73599000D01*
X103699000Y-73559000D02*
X106461000Y-73559000D01*
X103805000Y-73519000D02*
X106355000Y-73519000D01*
X103922000Y-73479000D02*
X106238000Y-73479000D01*
X104052000Y-73439000D02*
X106108000Y-73439000D01*
X104203000Y-73399000D02*
X105957000Y-73399000D01*
X104387000Y-73359000D02*
X105773000Y-73359000D01*
X104639000Y-73319000D02*
X105521000Y-73319000D01*
X106120000Y-74879000D02*
X108168000Y-74879000D01*
X106120000Y-74919000D02*
X108196000Y-74919000D01*
X106120000Y-74959000D02*
X108224000Y-74959000D01*
X106120000Y-74999000D02*
X108252000Y-74999000D01*
X106120000Y-75039000D02*
X108278000Y-75039000D01*
X106120000Y-75079000D02*
X108304000Y-75079000D01*
X106120000Y-75119000D02*
X108329000Y-75119000D01*
X106120000Y-75159000D02*
X108354000Y-75159000D01*
X106120000Y-75199000D02*
X108377000Y-75199000D01*
X106120000Y-75239000D02*
X108401000Y-75239000D01*
X106120000Y-75279000D02*
X108423000Y-75279000D01*
X106120000Y-75319000D02*
X108445000Y-75319000D01*
X106120000Y-75359000D02*
X108466000Y-75359000D01*
X106120000Y-75399000D02*
X108487000Y-75399000D01*
X106120000Y-75439000D02*
X108507000Y-75439000D01*
X106120000Y-75479000D02*
X108527000Y-75479000D01*
X106120000Y-75519000D02*
X108546000Y-75519000D01*
X106120000Y-75559000D02*
X108564000Y-75559000D01*
X106120000Y-75599000D02*
X108582000Y-75599000D01*
X106120000Y-75639000D02*
X108600000Y-75639000D01*
X106120000Y-75679000D02*
X108616000Y-75679000D01*
X106120000Y-75719000D02*
X108633000Y-75719000D01*
X106120000Y-75759000D02*
X108648000Y-75759000D01*
X106120000Y-75799000D02*
X108664000Y-75799000D01*
X106120000Y-75839000D02*
X108678000Y-75839000D01*
X106120000Y-75879000D02*
X108693000Y-75879000D01*
X106120000Y-75919000D02*
X108706000Y-75919000D01*
X106120000Y-75959000D02*
X108720000Y-75959000D01*
X106120000Y-75999000D02*
X108733000Y-75999000D01*
X106120000Y-76039000D02*
X108745000Y-76039000D01*
X106120000Y-76079000D02*
X108757000Y-76079000D01*
X106120000Y-76119000D02*
X108768000Y-76119000D01*
X106120000Y-76159000D02*
X108779000Y-76159000D01*
X106120000Y-76199000D02*
X108790000Y-76199000D01*
X106120000Y-76239000D02*
X108800000Y-76239000D01*
X106120000Y-76279000D02*
X108809000Y-76279000D01*
X106120000Y-76319000D02*
X108818000Y-76319000D01*
X106120000Y-76359000D02*
X108827000Y-76359000D01*
X106120000Y-76399000D02*
X108835000Y-76399000D01*
X106120000Y-76439000D02*
X108843000Y-76439000D01*
X106120000Y-76480000D02*
X108850000Y-76480000D01*
X106120000Y-76520000D02*
X108857000Y-76520000D01*
X106120000Y-76560000D02*
X108864000Y-76560000D01*
X106120000Y-76600000D02*
X108870000Y-76600000D01*
X106120000Y-76640000D02*
X108875000Y-76640000D01*
X106120000Y-76680000D02*
X108881000Y-76680000D01*
X106120000Y-76720000D02*
X108885000Y-76720000D01*
X106120000Y-76760000D02*
X108890000Y-76760000D01*
X106120000Y-76800000D02*
X108894000Y-76800000D01*
X106120000Y-76840000D02*
X108897000Y-76840000D01*
X106120000Y-76880000D02*
X108900000Y-76880000D01*
X106120000Y-76920000D02*
X108903000Y-76920000D01*
X108950000Y-77160000D02*
G75*
G02*
X101210000Y-77160000I-3870000J0D01*
G01*
X101210000Y-77160000D02*
G75*
G02*
X108950000Y-77160000I3870000J0D01*
G01*
%TO.C,J9-ESP32-2*%
X136770000Y-91170000D02*
X136770000Y-89840000D01*
X138100000Y-91170000D02*
X136770000Y-91170000D01*
X139370000Y-88510000D02*
X185150000Y-88510000D01*
X139370000Y-91170000D02*
X139370000Y-88510000D01*
X139370000Y-91170000D02*
X185150000Y-91170000D01*
X185150000Y-91170000D02*
X185150000Y-88510000D01*
%TO.C,LS1*%
X119780000Y-55470000D02*
X119780000Y-56989000D01*
X119780000Y-55470000D02*
X131020000Y-55470000D01*
X119780000Y-59191000D02*
X119780000Y-60710000D01*
X119780000Y-60710000D02*
X131020000Y-60710000D01*
X131020000Y-55470000D02*
X131020000Y-56989000D01*
X131020000Y-59191000D02*
X131020000Y-60710000D01*
%TO.C,J6*%
X117473562Y-50392042D02*
X118803562Y-50392042D01*
X117473562Y-51722042D02*
X117473562Y-50392042D01*
X120073562Y-50392042D02*
X142993562Y-50392042D01*
X120073562Y-53052042D02*
X120073562Y-50392042D01*
X120073562Y-53052042D02*
X142993562Y-53052042D01*
X142993562Y-53052042D02*
X142993562Y-50392042D01*
%TO.C,R2*%
X112470000Y-72060000D02*
X113240000Y-72060000D01*
X113240000Y-70690000D02*
X113240000Y-73430000D01*
X113240000Y-73430000D02*
X119780000Y-73430000D01*
X119780000Y-70690000D02*
X113240000Y-70690000D01*
X119780000Y-73430000D02*
X119780000Y-70690000D01*
X120550000Y-72060000D02*
X119780000Y-72060000D01*
%TO.C,C2*%
X109120354Y-61565000D02*
X110120354Y-61565000D01*
X109620354Y-61065000D02*
X109620354Y-62065000D01*
X114600000Y-59360000D02*
X114600000Y-69520000D01*
X114640000Y-59360000D02*
X114640000Y-69520000D01*
X114680000Y-59360000D02*
X114680000Y-69520000D01*
X114720000Y-59361000D02*
X114720000Y-69519000D01*
X114760000Y-59362000D02*
X114760000Y-69518000D01*
X114800000Y-59363000D02*
X114800000Y-69517000D01*
X114840000Y-59365000D02*
X114840000Y-69515000D01*
X114880000Y-59367000D02*
X114880000Y-69513000D01*
X114920000Y-59370000D02*
X114920000Y-69510000D01*
X114960000Y-59372000D02*
X114960000Y-69508000D01*
X115000000Y-59375000D02*
X115000000Y-69505000D01*
X115040000Y-59378000D02*
X115040000Y-69502000D01*
X115080000Y-59382000D02*
X115080000Y-69498000D01*
X115120000Y-59386000D02*
X115120000Y-69494000D01*
X115160000Y-59390000D02*
X115160000Y-69490000D01*
X115200000Y-59395000D02*
X115200000Y-69485000D01*
X115240000Y-59400000D02*
X115240000Y-69480000D01*
X115280000Y-59405000D02*
X115280000Y-63199000D01*
X115280000Y-65681000D02*
X115280000Y-69475000D01*
X115321000Y-59410000D02*
X115321000Y-63199000D01*
X115321000Y-65681000D02*
X115321000Y-69470000D01*
X115361000Y-59416000D02*
X115361000Y-63199000D01*
X115361000Y-65681000D02*
X115361000Y-69464000D01*
X115401000Y-59422000D02*
X115401000Y-63199000D01*
X115401000Y-65681000D02*
X115401000Y-69458000D01*
X115441000Y-59429000D02*
X115441000Y-63199000D01*
X115441000Y-65681000D02*
X115441000Y-69451000D01*
X115481000Y-59436000D02*
X115481000Y-63199000D01*
X115481000Y-65681000D02*
X115481000Y-69444000D01*
X115521000Y-59443000D02*
X115521000Y-63199000D01*
X115521000Y-65681000D02*
X115521000Y-69437000D01*
X115561000Y-59450000D02*
X115561000Y-63199000D01*
X115561000Y-65681000D02*
X115561000Y-69430000D01*
X115601000Y-59458000D02*
X115601000Y-63199000D01*
X115601000Y-65681000D02*
X115601000Y-69422000D01*
X115641000Y-59466000D02*
X115641000Y-63199000D01*
X115641000Y-65681000D02*
X115641000Y-69414000D01*
X115681000Y-59475000D02*
X115681000Y-63199000D01*
X115681000Y-65681000D02*
X115681000Y-69405000D01*
X115721000Y-59484000D02*
X115721000Y-63199000D01*
X115721000Y-65681000D02*
X115721000Y-69396000D01*
X115761000Y-59493000D02*
X115761000Y-63199000D01*
X115761000Y-65681000D02*
X115761000Y-69387000D01*
X115801000Y-59502000D02*
X115801000Y-63199000D01*
X115801000Y-65681000D02*
X115801000Y-69378000D01*
X115841000Y-59512000D02*
X115841000Y-63199000D01*
X115841000Y-65681000D02*
X115841000Y-69368000D01*
X115881000Y-59522000D02*
X115881000Y-63199000D01*
X115881000Y-65681000D02*
X115881000Y-69358000D01*
X115921000Y-59533000D02*
X115921000Y-63199000D01*
X115921000Y-65681000D02*
X115921000Y-69347000D01*
X115961000Y-59543000D02*
X115961000Y-63199000D01*
X115961000Y-65681000D02*
X115961000Y-69337000D01*
X116001000Y-59555000D02*
X116001000Y-63199000D01*
X116001000Y-65681000D02*
X116001000Y-69325000D01*
X116041000Y-59566000D02*
X116041000Y-63199000D01*
X116041000Y-65681000D02*
X116041000Y-69314000D01*
X116081000Y-59578000D02*
X116081000Y-63199000D01*
X116081000Y-65681000D02*
X116081000Y-69302000D01*
X116121000Y-59590000D02*
X116121000Y-63199000D01*
X116121000Y-65681000D02*
X116121000Y-69290000D01*
X116161000Y-59603000D02*
X116161000Y-63199000D01*
X116161000Y-65681000D02*
X116161000Y-69277000D01*
X116201000Y-59616000D02*
X116201000Y-63199000D01*
X116201000Y-65681000D02*
X116201000Y-69264000D01*
X116241000Y-59629000D02*
X116241000Y-63199000D01*
X116241000Y-65681000D02*
X116241000Y-69251000D01*
X116281000Y-59643000D02*
X116281000Y-63199000D01*
X116281000Y-65681000D02*
X116281000Y-69237000D01*
X116321000Y-59657000D02*
X116321000Y-63199000D01*
X116321000Y-65681000D02*
X116321000Y-69223000D01*
X116361000Y-59672000D02*
X116361000Y-63199000D01*
X116361000Y-65681000D02*
X116361000Y-69208000D01*
X116401000Y-59686000D02*
X116401000Y-63199000D01*
X116401000Y-65681000D02*
X116401000Y-69194000D01*
X116441000Y-59702000D02*
X116441000Y-63199000D01*
X116441000Y-65681000D02*
X116441000Y-69178000D01*
X116481000Y-59717000D02*
X116481000Y-63199000D01*
X116481000Y-65681000D02*
X116481000Y-69163000D01*
X116521000Y-59733000D02*
X116521000Y-63199000D01*
X116521000Y-65681000D02*
X116521000Y-69147000D01*
X116561000Y-59750000D02*
X116561000Y-63199000D01*
X116561000Y-65681000D02*
X116561000Y-69130000D01*
X116601000Y-59766000D02*
X116601000Y-63199000D01*
X116601000Y-65681000D02*
X116601000Y-69114000D01*
X116641000Y-59783000D02*
X116641000Y-63199000D01*
X116641000Y-65681000D02*
X116641000Y-69097000D01*
X116681000Y-59801000D02*
X116681000Y-63199000D01*
X116681000Y-65681000D02*
X116681000Y-69079000D01*
X116721000Y-59819000D02*
X116721000Y-63199000D01*
X116721000Y-65681000D02*
X116721000Y-69061000D01*
X116761000Y-59837000D02*
X116761000Y-63199000D01*
X116761000Y-65681000D02*
X116761000Y-69043000D01*
X116801000Y-59856000D02*
X116801000Y-63199000D01*
X116801000Y-65681000D02*
X116801000Y-69024000D01*
X116841000Y-59876000D02*
X116841000Y-63199000D01*
X116841000Y-65681000D02*
X116841000Y-69004000D01*
X116881000Y-59895000D02*
X116881000Y-63199000D01*
X116881000Y-65681000D02*
X116881000Y-68985000D01*
X116921000Y-59915000D02*
X116921000Y-63199000D01*
X116921000Y-65681000D02*
X116921000Y-68965000D01*
X116961000Y-59936000D02*
X116961000Y-63199000D01*
X116961000Y-65681000D02*
X116961000Y-68944000D01*
X117001000Y-59957000D02*
X117001000Y-63199000D01*
X117001000Y-65681000D02*
X117001000Y-68923000D01*
X117041000Y-59978000D02*
X117041000Y-63199000D01*
X117041000Y-65681000D02*
X117041000Y-68902000D01*
X117081000Y-60000000D02*
X117081000Y-63199000D01*
X117081000Y-65681000D02*
X117081000Y-68880000D01*
X117121000Y-60023000D02*
X117121000Y-63199000D01*
X117121000Y-65681000D02*
X117121000Y-68857000D01*
X117161000Y-60045000D02*
X117161000Y-63199000D01*
X117161000Y-65681000D02*
X117161000Y-68835000D01*
X117201000Y-60069000D02*
X117201000Y-63199000D01*
X117201000Y-65681000D02*
X117201000Y-68811000D01*
X117241000Y-60093000D02*
X117241000Y-63199000D01*
X117241000Y-65681000D02*
X117241000Y-68787000D01*
X117281000Y-60117000D02*
X117281000Y-63199000D01*
X117281000Y-65681000D02*
X117281000Y-68763000D01*
X117321000Y-60142000D02*
X117321000Y-63199000D01*
X117321000Y-65681000D02*
X117321000Y-68738000D01*
X117361000Y-60167000D02*
X117361000Y-63199000D01*
X117361000Y-65681000D02*
X117361000Y-68713000D01*
X117401000Y-60193000D02*
X117401000Y-63199000D01*
X117401000Y-65681000D02*
X117401000Y-68687000D01*
X117441000Y-60219000D02*
X117441000Y-63199000D01*
X117441000Y-65681000D02*
X117441000Y-68661000D01*
X117481000Y-60246000D02*
X117481000Y-63199000D01*
X117481000Y-65681000D02*
X117481000Y-68634000D01*
X117521000Y-60274000D02*
X117521000Y-63199000D01*
X117521000Y-65681000D02*
X117521000Y-68606000D01*
X117561000Y-60302000D02*
X117561000Y-63199000D01*
X117561000Y-65681000D02*
X117561000Y-68578000D01*
X117601000Y-60330000D02*
X117601000Y-63199000D01*
X117601000Y-65681000D02*
X117601000Y-68550000D01*
X117641000Y-60360000D02*
X117641000Y-63199000D01*
X117641000Y-65681000D02*
X117641000Y-68520000D01*
X117681000Y-60390000D02*
X117681000Y-63199000D01*
X117681000Y-65681000D02*
X117681000Y-68490000D01*
X117721000Y-60420000D02*
X117721000Y-63199000D01*
X117721000Y-65681000D02*
X117721000Y-68460000D01*
X117761000Y-60451000D02*
X117761000Y-68429000D01*
X117801000Y-60483000D02*
X117801000Y-68397000D01*
X117841000Y-60515000D02*
X117841000Y-68365000D01*
X117881000Y-60548000D02*
X117881000Y-68332000D01*
X117921000Y-60582000D02*
X117921000Y-68298000D01*
X117961000Y-60616000D02*
X117961000Y-68264000D01*
X118001000Y-60651000D02*
X118001000Y-68229000D01*
X118041000Y-60687000D02*
X118041000Y-68193000D01*
X118081000Y-60724000D02*
X118081000Y-68156000D01*
X118121000Y-60761000D02*
X118121000Y-68119000D01*
X118161000Y-60800000D02*
X118161000Y-68080000D01*
X118201000Y-60839000D02*
X118201000Y-68041000D01*
X118241000Y-60879000D02*
X118241000Y-68001000D01*
X118281000Y-60920000D02*
X118281000Y-67960000D01*
X118321000Y-60962000D02*
X118321000Y-67918000D01*
X118361000Y-61004000D02*
X118361000Y-67876000D01*
X118401000Y-61048000D02*
X118401000Y-67832000D01*
X118441000Y-61093000D02*
X118441000Y-67787000D01*
X118481000Y-61139000D02*
X118481000Y-67741000D01*
X118521000Y-61186000D02*
X118521000Y-67694000D01*
X118561000Y-61234000D02*
X118561000Y-67646000D01*
X118601000Y-61284000D02*
X118601000Y-67596000D01*
X118641000Y-61334000D02*
X118641000Y-67546000D01*
X118681000Y-61386000D02*
X118681000Y-67494000D01*
X118721000Y-61440000D02*
X118721000Y-67440000D01*
X118761000Y-61495000D02*
X118761000Y-67385000D01*
X118801000Y-61551000D02*
X118801000Y-67329000D01*
X118841000Y-61610000D02*
X118841000Y-67270000D01*
X118881000Y-61670000D02*
X118881000Y-67210000D01*
X118921000Y-61731000D02*
X118921000Y-67149000D01*
X118961000Y-61795000D02*
X118961000Y-67085000D01*
X119001000Y-61861000D02*
X119001000Y-67019000D01*
X119041000Y-61930000D02*
X119041000Y-66950000D01*
X119081000Y-62001000D02*
X119081000Y-66879000D01*
X119121000Y-62075000D02*
X119121000Y-66805000D01*
X119161000Y-62151000D02*
X119161000Y-66729000D01*
X119201000Y-62231000D02*
X119201000Y-66649000D01*
X119241000Y-62315000D02*
X119241000Y-66565000D01*
X119281000Y-62403000D02*
X119281000Y-66477000D01*
X119321000Y-62496000D02*
X119321000Y-66384000D01*
X119361000Y-62594000D02*
X119361000Y-66286000D01*
X119401000Y-62698000D02*
X119401000Y-66182000D01*
X119441000Y-62810000D02*
X119441000Y-66070000D01*
X119481000Y-62930000D02*
X119481000Y-65950000D01*
X119521000Y-63062000D02*
X119521000Y-65818000D01*
X119561000Y-63210000D02*
X119561000Y-65670000D01*
X119601000Y-63378000D02*
X119601000Y-65502000D01*
X119641000Y-63578000D02*
X119641000Y-65302000D01*
X119681000Y-63841000D02*
X119681000Y-65039000D01*
X119720000Y-64440000D02*
G75*
G02*
X109480000Y-64440000I-5120000J0D01*
G01*
X109480000Y-64440000D02*
G75*
G02*
X119720000Y-64440000I5120000J0D01*
G01*
%TO.C,U1*%
X110090000Y-75740000D02*
X110090000Y-86140000D01*
X110090000Y-86140000D02*
X120370000Y-86140000D01*
X112580000Y-75800000D02*
X112580000Y-86080000D01*
X112580000Y-86080000D02*
X114230000Y-86080000D01*
X116230000Y-86080000D02*
X117880000Y-86080000D01*
X117880000Y-75800000D02*
X112580000Y-75800000D01*
X117880000Y-86080000D02*
X117880000Y-75800000D01*
X120370000Y-75740000D02*
X110090000Y-75740000D01*
X120370000Y-86140000D02*
X120370000Y-75740000D01*
X114230000Y-86080000D02*
G75*
G02*
X116230000Y-86080000I1000000J0D01*
G01*
%TO.C,J5*%
X126630000Y-93590000D02*
X127960000Y-93590000D01*
X126630000Y-94920000D02*
X126630000Y-93590000D01*
X129230000Y-93590000D02*
X147070000Y-93590000D01*
X129230000Y-96250000D02*
X129230000Y-93590000D01*
X129230000Y-96250000D02*
X147070000Y-96250000D01*
X147070000Y-96250000D02*
X147070000Y-93590000D01*
%TO.C,J7*%
X149470000Y-93590000D02*
X150800000Y-93590000D01*
X149470000Y-94920000D02*
X149470000Y-93590000D01*
X152070000Y-93590000D02*
X164830000Y-93590000D01*
X152070000Y-96250000D02*
X152070000Y-93590000D01*
X152070000Y-96250000D02*
X164830000Y-96250000D01*
X164830000Y-96250000D02*
X164830000Y-93590000D01*
%TO.C,C1*%
X101250000Y-85970000D02*
X108910000Y-85970000D01*
X101250000Y-86010000D02*
X108910000Y-86010000D01*
X101250000Y-86050000D02*
X108910000Y-86050000D01*
X101251000Y-85930000D02*
X108909000Y-85930000D01*
X101253000Y-85890000D02*
X108907000Y-85890000D01*
X101255000Y-85850000D02*
X108905000Y-85850000D01*
X101257000Y-85810000D02*
X104040000Y-85810000D01*
X101260000Y-85770000D02*
X104040000Y-85770000D01*
X101263000Y-85730000D02*
X104040000Y-85730000D01*
X101266000Y-85690000D02*
X104040000Y-85690000D01*
X101270000Y-85650000D02*
X104040000Y-85650000D01*
X101275000Y-85610000D02*
X104040000Y-85610000D01*
X101279000Y-85570000D02*
X104040000Y-85570000D01*
X101285000Y-85530000D02*
X104040000Y-85530000D01*
X101290000Y-85490000D02*
X104040000Y-85490000D01*
X101296000Y-85450000D02*
X104040000Y-85450000D01*
X101303000Y-85410000D02*
X104040000Y-85410000D01*
X101310000Y-85370000D02*
X104040000Y-85370000D01*
X101317000Y-85329000D02*
X104040000Y-85329000D01*
X101325000Y-85289000D02*
X104040000Y-85289000D01*
X101333000Y-85249000D02*
X104040000Y-85249000D01*
X101342000Y-85209000D02*
X104040000Y-85209000D01*
X101351000Y-85169000D02*
X104040000Y-85169000D01*
X101360000Y-85129000D02*
X104040000Y-85129000D01*
X101370000Y-85089000D02*
X104040000Y-85089000D01*
X101381000Y-85049000D02*
X104040000Y-85049000D01*
X101392000Y-85009000D02*
X104040000Y-85009000D01*
X101403000Y-84969000D02*
X104040000Y-84969000D01*
X101415000Y-84929000D02*
X104040000Y-84929000D01*
X101427000Y-84889000D02*
X104040000Y-84889000D01*
X101440000Y-84849000D02*
X104040000Y-84849000D01*
X101454000Y-84809000D02*
X104040000Y-84809000D01*
X101467000Y-84769000D02*
X104040000Y-84769000D01*
X101482000Y-84729000D02*
X104040000Y-84729000D01*
X101496000Y-84689000D02*
X104040000Y-84689000D01*
X101512000Y-84649000D02*
X104040000Y-84649000D01*
X101527000Y-84609000D02*
X104040000Y-84609000D01*
X101544000Y-84569000D02*
X104040000Y-84569000D01*
X101560000Y-84529000D02*
X104040000Y-84529000D01*
X101578000Y-84489000D02*
X104040000Y-84489000D01*
X101596000Y-84449000D02*
X104040000Y-84449000D01*
X101614000Y-84409000D02*
X104040000Y-84409000D01*
X101633000Y-84369000D02*
X104040000Y-84369000D01*
X101653000Y-84329000D02*
X104040000Y-84329000D01*
X101673000Y-84289000D02*
X104040000Y-84289000D01*
X101694000Y-84249000D02*
X104040000Y-84249000D01*
X101715000Y-84209000D02*
X104040000Y-84209000D01*
X101737000Y-84169000D02*
X104040000Y-84169000D01*
X101759000Y-84129000D02*
X104040000Y-84129000D01*
X101783000Y-84089000D02*
X104040000Y-84089000D01*
X101806000Y-84049000D02*
X104040000Y-84049000D01*
X101831000Y-84009000D02*
X104040000Y-84009000D01*
X101856000Y-83969000D02*
X104040000Y-83969000D01*
X101882000Y-83929000D02*
X104040000Y-83929000D01*
X101908000Y-83889000D02*
X104040000Y-83889000D01*
X101936000Y-83849000D02*
X104040000Y-83849000D01*
X101964000Y-83809000D02*
X104040000Y-83809000D01*
X101992000Y-83769000D02*
X104040000Y-83769000D01*
X102022000Y-83729000D02*
X108138000Y-83729000D01*
X102052000Y-83689000D02*
X108108000Y-83689000D01*
X102084000Y-83649000D02*
X108076000Y-83649000D01*
X102116000Y-83609000D02*
X108044000Y-83609000D01*
X102149000Y-83569000D02*
X108011000Y-83569000D01*
X102182000Y-83529000D02*
X107978000Y-83529000D01*
X102217000Y-83489000D02*
X107943000Y-83489000D01*
X102253000Y-83449000D02*
X107907000Y-83449000D01*
X102290000Y-83409000D02*
X107870000Y-83409000D01*
X102328000Y-83369000D02*
X107832000Y-83369000D01*
X102367000Y-83329000D02*
X107793000Y-83329000D01*
X102407000Y-83289000D02*
X107753000Y-83289000D01*
X102448000Y-83249000D02*
X107712000Y-83249000D01*
X102491000Y-83209000D02*
X107669000Y-83209000D01*
X102530000Y-89817211D02*
X103280000Y-89817211D01*
X102534000Y-83169000D02*
X107626000Y-83169000D01*
X102580000Y-83129000D02*
X107580000Y-83129000D01*
X102626000Y-83089000D02*
X107534000Y-83089000D01*
X102675000Y-83049000D02*
X107485000Y-83049000D01*
X102725000Y-83009000D02*
X107435000Y-83009000D01*
X102776000Y-82969000D02*
X107384000Y-82969000D01*
X102830000Y-82929000D02*
X107330000Y-82929000D01*
X102885000Y-82889000D02*
X107275000Y-82889000D01*
X102905000Y-90192211D02*
X102905000Y-89442211D01*
X102943000Y-82849000D02*
X107217000Y-82849000D01*
X103003000Y-82809000D02*
X107157000Y-82809000D01*
X103066000Y-82769000D02*
X107094000Y-82769000D01*
X103131000Y-82729000D02*
X107029000Y-82729000D01*
X103199000Y-82689000D02*
X106961000Y-82689000D01*
X103271000Y-82649000D02*
X106889000Y-82649000D01*
X103347000Y-82609000D02*
X106813000Y-82609000D01*
X103426000Y-82569000D02*
X106734000Y-82569000D01*
X103511000Y-82529000D02*
X106649000Y-82529000D01*
X103602000Y-82489000D02*
X106558000Y-82489000D01*
X103699000Y-82449000D02*
X106461000Y-82449000D01*
X103805000Y-82409000D02*
X106355000Y-82409000D01*
X103922000Y-82369000D02*
X106238000Y-82369000D01*
X104052000Y-82329000D02*
X106108000Y-82329000D01*
X104203000Y-82289000D02*
X105957000Y-82289000D01*
X104387000Y-82249000D02*
X105773000Y-82249000D01*
X104639000Y-82209000D02*
X105521000Y-82209000D01*
X106120000Y-83769000D02*
X108168000Y-83769000D01*
X106120000Y-83809000D02*
X108196000Y-83809000D01*
X106120000Y-83849000D02*
X108224000Y-83849000D01*
X106120000Y-83889000D02*
X108252000Y-83889000D01*
X106120000Y-83929000D02*
X108278000Y-83929000D01*
X106120000Y-83969000D02*
X108304000Y-83969000D01*
X106120000Y-84009000D02*
X108329000Y-84009000D01*
X106120000Y-84049000D02*
X108354000Y-84049000D01*
X106120000Y-84089000D02*
X108377000Y-84089000D01*
X106120000Y-84129000D02*
X108401000Y-84129000D01*
X106120000Y-84169000D02*
X108423000Y-84169000D01*
X106120000Y-84209000D02*
X108445000Y-84209000D01*
X106120000Y-84249000D02*
X108466000Y-84249000D01*
X106120000Y-84289000D02*
X108487000Y-84289000D01*
X106120000Y-84329000D02*
X108507000Y-84329000D01*
X106120000Y-84369000D02*
X108527000Y-84369000D01*
X106120000Y-84409000D02*
X108546000Y-84409000D01*
X106120000Y-84449000D02*
X108564000Y-84449000D01*
X106120000Y-84489000D02*
X108582000Y-84489000D01*
X106120000Y-84529000D02*
X108600000Y-84529000D01*
X106120000Y-84569000D02*
X108616000Y-84569000D01*
X106120000Y-84609000D02*
X108633000Y-84609000D01*
X106120000Y-84649000D02*
X108648000Y-84649000D01*
X106120000Y-84689000D02*
X108664000Y-84689000D01*
X106120000Y-84729000D02*
X108678000Y-84729000D01*
X106120000Y-84769000D02*
X108693000Y-84769000D01*
X106120000Y-84809000D02*
X108706000Y-84809000D01*
X106120000Y-84849000D02*
X108720000Y-84849000D01*
X106120000Y-84889000D02*
X108733000Y-84889000D01*
X106120000Y-84929000D02*
X108745000Y-84929000D01*
X106120000Y-84969000D02*
X108757000Y-84969000D01*
X106120000Y-85009000D02*
X108768000Y-85009000D01*
X106120000Y-85049000D02*
X108779000Y-85049000D01*
X106120000Y-85089000D02*
X108790000Y-85089000D01*
X106120000Y-85129000D02*
X108800000Y-85129000D01*
X106120000Y-85169000D02*
X108809000Y-85169000D01*
X106120000Y-85209000D02*
X108818000Y-85209000D01*
X106120000Y-85249000D02*
X108827000Y-85249000D01*
X106120000Y-85289000D02*
X108835000Y-85289000D01*
X106120000Y-85329000D02*
X108843000Y-85329000D01*
X106120000Y-85370000D02*
X108850000Y-85370000D01*
X106120000Y-85410000D02*
X108857000Y-85410000D01*
X106120000Y-85450000D02*
X108864000Y-85450000D01*
X106120000Y-85490000D02*
X108870000Y-85490000D01*
X106120000Y-85530000D02*
X108875000Y-85530000D01*
X106120000Y-85570000D02*
X108881000Y-85570000D01*
X106120000Y-85610000D02*
X108885000Y-85610000D01*
X106120000Y-85650000D02*
X108890000Y-85650000D01*
X106120000Y-85690000D02*
X108894000Y-85690000D01*
X106120000Y-85730000D02*
X108897000Y-85730000D01*
X106120000Y-85770000D02*
X108900000Y-85770000D01*
X106120000Y-85810000D02*
X108903000Y-85810000D01*
X108950000Y-86050000D02*
G75*
G02*
X101210000Y-86050000I-3870000J0D01*
G01*
X101210000Y-86050000D02*
G75*
G02*
X108950000Y-86050000I3870000J0D01*
G01*
%TO.C,C1_Servo1*%
X114200000Y-96121000D02*
X111223000Y-96121000D01*
X114200000Y-96161000D02*
X111230000Y-96161000D01*
X114200000Y-96201000D02*
X111238000Y-96201000D01*
X114200000Y-96241000D02*
X111246000Y-96241000D01*
X114200000Y-96281000D02*
X111255000Y-96281000D01*
X114200000Y-96321000D02*
X111264000Y-96321000D01*
X114200000Y-96361000D02*
X111273000Y-96361000D01*
X114200000Y-96401000D02*
X111283000Y-96401000D01*
X114200000Y-96441000D02*
X111293000Y-96441000D01*
X114200000Y-96481000D02*
X111304000Y-96481000D01*
X114200000Y-96521000D02*
X111315000Y-96521000D01*
X114200000Y-96561000D02*
X111326000Y-96561000D01*
X114200000Y-96601000D02*
X111338000Y-96601000D01*
X114200000Y-96641000D02*
X111351000Y-96641000D01*
X114200000Y-96681000D02*
X111363000Y-96681000D01*
X114200000Y-96721000D02*
X111377000Y-96721000D01*
X114200000Y-96761000D02*
X111390000Y-96761000D01*
X114200000Y-96801000D02*
X111405000Y-96801000D01*
X114200000Y-96841000D02*
X111419000Y-96841000D01*
X114200000Y-96881000D02*
X111435000Y-96881000D01*
X114200000Y-96921000D02*
X111450000Y-96921000D01*
X114200000Y-96961000D02*
X111466000Y-96961000D01*
X114200000Y-97001000D02*
X111483000Y-97001000D01*
X114200000Y-97041000D02*
X111500000Y-97041000D01*
X114200000Y-97081000D02*
X111518000Y-97081000D01*
X114200000Y-97121000D02*
X111536000Y-97121000D01*
X114200000Y-97161000D02*
X111554000Y-97161000D01*
X114200000Y-97201000D02*
X111574000Y-97201000D01*
X114200000Y-97241000D02*
X111593000Y-97241000D01*
X114200000Y-97281000D02*
X111613000Y-97281000D01*
X114200000Y-97321000D02*
X111634000Y-97321000D01*
X114200000Y-97361000D02*
X111656000Y-97361000D01*
X114200000Y-97401000D02*
X111678000Y-97401000D01*
X114200000Y-97441000D02*
X111700000Y-97441000D01*
X114200000Y-97481000D02*
X111723000Y-97481000D01*
X114200000Y-97521000D02*
X111747000Y-97521000D01*
X114200000Y-97561000D02*
X111771000Y-97561000D01*
X114200000Y-97601000D02*
X111796000Y-97601000D01*
X114200000Y-97641000D02*
X111822000Y-97641000D01*
X114200000Y-97681000D02*
X111848000Y-97681000D01*
X114200000Y-97721000D02*
X111875000Y-97721000D01*
X114200000Y-97761000D02*
X111902000Y-97761000D01*
X114200000Y-97801000D02*
X111931000Y-97801000D01*
X114200000Y-97841000D02*
X111960000Y-97841000D01*
X114200000Y-97881000D02*
X111990000Y-97881000D01*
X114200000Y-97921000D02*
X112020000Y-97921000D01*
X114200000Y-97961000D02*
X112051000Y-97961000D01*
X114200000Y-98001000D02*
X112084000Y-98001000D01*
X114200000Y-98041000D02*
X112116000Y-98041000D01*
X114200000Y-98081000D02*
X112150000Y-98081000D01*
X114200000Y-98121000D02*
X112185000Y-98121000D01*
X114200000Y-98161000D02*
X112221000Y-98161000D01*
X115773000Y-99481000D02*
X114707000Y-99481000D01*
X116008000Y-99441000D02*
X114472000Y-99441000D01*
X116188000Y-99401000D02*
X114292000Y-99401000D01*
X116338000Y-99361000D02*
X114142000Y-99361000D01*
X116469000Y-99321000D02*
X114011000Y-99321000D01*
X116586000Y-99281000D02*
X113894000Y-99281000D01*
X116693000Y-99241000D02*
X113787000Y-99241000D01*
X116792000Y-99201000D02*
X113688000Y-99201000D01*
X116885000Y-99161000D02*
X113595000Y-99161000D01*
X116971000Y-99121000D02*
X113509000Y-99121000D01*
X117053000Y-99081000D02*
X113427000Y-99081000D01*
X117130000Y-99041000D02*
X113350000Y-99041000D01*
X117204000Y-99001000D02*
X113276000Y-99001000D01*
X117274000Y-98961000D02*
X113206000Y-98961000D01*
X117342000Y-98921000D02*
X113138000Y-98921000D01*
X117406000Y-98881000D02*
X113074000Y-98881000D01*
X117468000Y-98841000D02*
X113012000Y-98841000D01*
X117527000Y-98801000D02*
X112953000Y-98801000D01*
X117555000Y-90990302D02*
X117555000Y-91790302D01*
X117585000Y-98761000D02*
X112895000Y-98761000D01*
X117640000Y-98721000D02*
X112840000Y-98721000D01*
X117694000Y-98681000D02*
X112786000Y-98681000D01*
X117745000Y-98641000D02*
X112735000Y-98641000D01*
X117796000Y-98601000D02*
X112684000Y-98601000D01*
X117844000Y-98561000D02*
X112636000Y-98561000D01*
X117891000Y-98521000D02*
X112589000Y-98521000D01*
X117937000Y-98481000D02*
X112543000Y-98481000D01*
X117955000Y-91390302D02*
X117155000Y-91390302D01*
X117981000Y-98441000D02*
X112499000Y-98441000D01*
X118024000Y-98401000D02*
X112456000Y-98401000D01*
X118066000Y-98361000D02*
X112414000Y-98361000D01*
X118107000Y-98321000D02*
X112373000Y-98321000D01*
X118147000Y-98281000D02*
X112333000Y-98281000D01*
X118185000Y-98241000D02*
X112295000Y-98241000D01*
X118223000Y-98201000D02*
X112257000Y-98201000D01*
X118259000Y-98161000D02*
X116280000Y-98161000D01*
X118295000Y-98121000D02*
X116280000Y-98121000D01*
X118330000Y-98081000D02*
X116280000Y-98081000D01*
X118364000Y-98041000D02*
X116280000Y-98041000D01*
X118396000Y-98001000D02*
X116280000Y-98001000D01*
X118429000Y-97961000D02*
X116280000Y-97961000D01*
X118460000Y-97921000D02*
X116280000Y-97921000D01*
X118490000Y-97881000D02*
X116280000Y-97881000D01*
X118520000Y-97841000D02*
X116280000Y-97841000D01*
X118549000Y-97801000D02*
X116280000Y-97801000D01*
X118578000Y-97761000D02*
X116280000Y-97761000D01*
X118605000Y-97721000D02*
X116280000Y-97721000D01*
X118632000Y-97681000D02*
X116280000Y-97681000D01*
X118658000Y-97641000D02*
X116280000Y-97641000D01*
X118684000Y-97601000D02*
X116280000Y-97601000D01*
X118709000Y-97561000D02*
X116280000Y-97561000D01*
X118733000Y-97521000D02*
X116280000Y-97521000D01*
X118757000Y-97481000D02*
X116280000Y-97481000D01*
X118780000Y-97441000D02*
X116280000Y-97441000D01*
X118802000Y-97401000D02*
X116280000Y-97401000D01*
X118824000Y-97361000D02*
X116280000Y-97361000D01*
X118846000Y-97321000D02*
X116280000Y-97321000D01*
X118867000Y-97281000D02*
X116280000Y-97281000D01*
X118887000Y-97241000D02*
X116280000Y-97241000D01*
X118906000Y-97201000D02*
X116280000Y-97201000D01*
X118926000Y-97161000D02*
X116280000Y-97161000D01*
X118944000Y-97121000D02*
X116280000Y-97121000D01*
X118962000Y-97081000D02*
X116280000Y-97081000D01*
X118980000Y-97041000D02*
X116280000Y-97041000D01*
X118997000Y-97001000D02*
X116280000Y-97001000D01*
X119014000Y-96961000D02*
X116280000Y-96961000D01*
X119030000Y-96921000D02*
X116280000Y-96921000D01*
X119045000Y-96881000D02*
X116280000Y-96881000D01*
X119061000Y-96841000D02*
X116280000Y-96841000D01*
X119075000Y-96801000D02*
X116280000Y-96801000D01*
X119090000Y-96761000D02*
X116280000Y-96761000D01*
X119103000Y-96721000D02*
X116280000Y-96721000D01*
X119117000Y-96681000D02*
X116280000Y-96681000D01*
X119129000Y-96641000D02*
X116280000Y-96641000D01*
X119142000Y-96601000D02*
X116280000Y-96601000D01*
X119154000Y-96561000D02*
X116280000Y-96561000D01*
X119165000Y-96521000D02*
X116280000Y-96521000D01*
X119176000Y-96481000D02*
X116280000Y-96481000D01*
X119187000Y-96441000D02*
X116280000Y-96441000D01*
X119197000Y-96401000D02*
X116280000Y-96401000D01*
X119207000Y-96361000D02*
X116280000Y-96361000D01*
X119216000Y-96321000D02*
X116280000Y-96321000D01*
X119225000Y-96281000D02*
X116280000Y-96281000D01*
X119234000Y-96241000D02*
X116280000Y-96241000D01*
X119242000Y-96201000D02*
X116280000Y-96201000D01*
X119250000Y-96161000D02*
X116280000Y-96161000D01*
X119257000Y-96121000D02*
X116280000Y-96121000D01*
X119264000Y-96080000D02*
X111216000Y-96080000D01*
X119270000Y-96040000D02*
X111210000Y-96040000D01*
X119277000Y-96000000D02*
X111203000Y-96000000D01*
X119282000Y-95960000D02*
X111198000Y-95960000D01*
X119288000Y-95920000D02*
X111192000Y-95920000D01*
X119292000Y-95880000D02*
X111188000Y-95880000D01*
X119297000Y-95840000D02*
X111183000Y-95840000D01*
X119301000Y-95800000D02*
X111179000Y-95800000D01*
X119305000Y-95760000D02*
X111175000Y-95760000D01*
X119308000Y-95720000D02*
X111172000Y-95720000D01*
X119311000Y-95680000D02*
X111169000Y-95680000D01*
X119314000Y-95640000D02*
X111166000Y-95640000D01*
X119316000Y-95600000D02*
X111164000Y-95600000D01*
X119317000Y-95560000D02*
X111163000Y-95560000D01*
X119319000Y-95520000D02*
X111161000Y-95520000D01*
X119320000Y-95400000D02*
X111160000Y-95400000D01*
X119320000Y-95440000D02*
X111160000Y-95440000D01*
X119320000Y-95480000D02*
X111160000Y-95480000D01*
X119360000Y-95400000D02*
G75*
G02*
X111120000Y-95400000I-4120000J0D01*
G01*
X111120000Y-95400000D02*
G75*
G02*
X119360000Y-95400000I4120000J0D01*
G01*
%TD*%
M02*
