%TF.GenerationSoftware,KiCad,Pcbnew,8.0.8*%
%TF.CreationDate,2025-03-25T01:40:29-04:00*%
%TF.ProjectId,SmartValvePCBv2,536d6172-7456-4616-9c76-655043427632,rev?*%
%TF.SameCoordinates,Original*%
%TF.FileFunction,Soldermask,Bot*%
%TF.FilePolarity,Negative*%
%FSLAX46Y46*%
G04 Gerber Fmt 4.6, Leading zero omitted, Abs format (unit mm)*
G04 Created by KiCad (PCBNEW 8.0.8) date 2025-03-25 01:40:29*
%MOMM*%
%LPD*%
G01*
G04 APERTURE LIST*
%ADD10R,1.700000X1.700000*%
%ADD11O,1.700000X1.700000*%
%ADD12C,1.440000*%
%ADD13R,1.600000X1.600000*%
%ADD14C,1.600000*%
%ADD15O,1.600000X1.600000*%
%ADD16C,2.000000*%
%ADD17R,2.000000X2.000000*%
G04 APERTURE END LIST*
D10*
%TO.C,J1*%
X127940000Y-97460000D03*
D11*
X130480000Y-97460000D03*
X133020000Y-97460000D03*
X135560000Y-97460000D03*
X138100000Y-97460000D03*
X140640000Y-97460000D03*
X143180000Y-97460000D03*
X145720000Y-97460000D03*
%TD*%
D10*
%TO.C,J3*%
X150800000Y-97460000D03*
D11*
X153340000Y-97460000D03*
X155880000Y-97460000D03*
X158420000Y-97460000D03*
X160960000Y-97460000D03*
X163500000Y-97460000D03*
%TD*%
D10*
%TO.C,J2*%
X118796000Y-49200000D03*
D11*
X121336000Y-49200000D03*
X123876000Y-49200000D03*
X126416000Y-49200000D03*
X128956000Y-49200000D03*
X131496000Y-49200000D03*
X134036000Y-49200000D03*
X136576000Y-49200000D03*
X139116000Y-49200000D03*
X141656000Y-49200000D03*
%TD*%
D10*
%TO.C,J4*%
X145720000Y-49200000D03*
D11*
X148260000Y-49200000D03*
X150800000Y-49200000D03*
X153340000Y-49200000D03*
X155880000Y-49200000D03*
X158420000Y-49200000D03*
X160960000Y-49200000D03*
X163500000Y-49200000D03*
%TD*%
D12*
%TO.C,Pot1*%
X126655000Y-78410000D03*
X124115000Y-80950000D03*
X126655000Y-83490000D03*
%TD*%
D10*
%TO.C,J9-ESP32*%
X138100000Y-86030000D03*
D11*
X140640000Y-86030000D03*
X143180000Y-86030000D03*
X145720000Y-86030000D03*
X148260000Y-86030000D03*
X150800000Y-86030000D03*
X153340000Y-86030000D03*
X155880000Y-86030000D03*
X158420000Y-86030000D03*
X160960000Y-86030000D03*
X163500000Y-86030000D03*
X166040000Y-86030000D03*
X168580000Y-86030000D03*
X171120000Y-86030000D03*
X173660000Y-86030000D03*
X176200000Y-86030000D03*
X178740000Y-86030000D03*
X181280000Y-86030000D03*
X183820000Y-86030000D03*
%TD*%
D13*
%TO.C,C5*%
X103810000Y-60884000D03*
D14*
X106310000Y-60884000D03*
%TD*%
D10*
%TO.C,J10-ESP32-2*%
X138100000Y-56820000D03*
D11*
X140640000Y-56820000D03*
X143180000Y-56820000D03*
X145720000Y-56820000D03*
X148260000Y-56820000D03*
X150800000Y-56820000D03*
X153340000Y-56820000D03*
X155880000Y-56820000D03*
X158420000Y-56820000D03*
X160960000Y-56820000D03*
X163500000Y-56820000D03*
X166040000Y-56820000D03*
X168580000Y-56820000D03*
X171120000Y-56820000D03*
X173660000Y-56820000D03*
X176200000Y-56820000D03*
X178740000Y-56820000D03*
X181280000Y-56820000D03*
X183820000Y-56820000D03*
%TD*%
D13*
%TO.C,C3*%
X126670000Y-70790000D03*
D14*
X126670000Y-68290000D03*
%TD*%
D10*
%TO.C,J10-Servo1*%
X105080000Y-92395000D03*
D11*
X105080000Y-94935000D03*
X105080000Y-97475000D03*
%TD*%
D10*
%TO.C,J9-DEV-14495*%
X98730000Y-49200000D03*
D11*
X101270000Y-49200000D03*
X103810000Y-49200000D03*
X106350000Y-49200000D03*
%TD*%
D10*
%TO.C,J10-ESP32*%
X138100000Y-60630000D03*
D11*
X140640000Y-60630000D03*
X143180000Y-60630000D03*
X145720000Y-60630000D03*
X148260000Y-60630000D03*
X150800000Y-60630000D03*
X153340000Y-60630000D03*
X155880000Y-60630000D03*
X158420000Y-60630000D03*
X160960000Y-60630000D03*
X163500000Y-60630000D03*
X166040000Y-60630000D03*
X168580000Y-60630000D03*
X171120000Y-60630000D03*
X173660000Y-60630000D03*
X176200000Y-60630000D03*
X178740000Y-60630000D03*
X181280000Y-60630000D03*
X183820000Y-60630000D03*
%TD*%
D13*
%TO.C,C6*%
X106241395Y-69012000D03*
D14*
X103741395Y-69012000D03*
%TD*%
D10*
%TO.C,J12-RGB1*%
X171130000Y-49200000D03*
D11*
X173670000Y-49200000D03*
X176210000Y-49200000D03*
X178750000Y-49200000D03*
%TD*%
D14*
%TO.C,R1*%
X110160000Y-88570000D03*
D15*
X120320000Y-88570000D03*
%TD*%
D10*
%TO.C,J8*%
X145720000Y-51740000D03*
D11*
X148260000Y-51740000D03*
X150800000Y-51740000D03*
X153340000Y-51740000D03*
X155880000Y-51740000D03*
X158420000Y-51740000D03*
X160960000Y-51740000D03*
X163500000Y-51740000D03*
%TD*%
D13*
%TO.C,C4*%
X105080000Y-78410000D03*
D14*
X105080000Y-75910000D03*
%TD*%
D10*
%TO.C,J9-ESP32-2*%
X138100000Y-89840000D03*
D11*
X140640000Y-89840000D03*
X143180000Y-89840000D03*
X145720000Y-89840000D03*
X148260000Y-89840000D03*
X150800000Y-89840000D03*
X153340000Y-89840000D03*
X155880000Y-89840000D03*
X158420000Y-89840000D03*
X160960000Y-89840000D03*
X163500000Y-89840000D03*
X166040000Y-89840000D03*
X168580000Y-89840000D03*
X171120000Y-89840000D03*
X173660000Y-89840000D03*
X176200000Y-89840000D03*
X178740000Y-89840000D03*
X181280000Y-89840000D03*
X183820000Y-89840000D03*
%TD*%
D16*
%TO.C,LS1*%
X120400000Y-58090000D03*
X130400000Y-58090000D03*
%TD*%
D10*
%TO.C,J6*%
X118803562Y-51722042D03*
D11*
X121343562Y-51722042D03*
X123883562Y-51722042D03*
X126423562Y-51722042D03*
X128963562Y-51722042D03*
X131503562Y-51722042D03*
X134043562Y-51722042D03*
X136583562Y-51722042D03*
X139123562Y-51722042D03*
X141663562Y-51722042D03*
%TD*%
D14*
%TO.C,R2*%
X111430000Y-72060000D03*
D15*
X121590000Y-72060000D03*
%TD*%
D17*
%TO.C,C2*%
X112700000Y-64440000D03*
D16*
X116500000Y-64440000D03*
%TD*%
D13*
%TO.C,U1*%
X119040000Y-84750000D03*
D15*
X119040000Y-82210000D03*
X119040000Y-79670000D03*
X119040000Y-77130000D03*
X111420000Y-77130000D03*
X111420000Y-79670000D03*
X111420000Y-82210000D03*
X111420000Y-84750000D03*
%TD*%
D10*
%TO.C,J5*%
X127960000Y-94920000D03*
D11*
X130500000Y-94920000D03*
X133040000Y-94920000D03*
X135580000Y-94920000D03*
X138120000Y-94920000D03*
X140660000Y-94920000D03*
X143200000Y-94920000D03*
X145740000Y-94920000D03*
%TD*%
D10*
%TO.C,J7*%
X150800000Y-94920000D03*
D11*
X153340000Y-94920000D03*
X155880000Y-94920000D03*
X158420000Y-94920000D03*
X160960000Y-94920000D03*
X163500000Y-94920000D03*
%TD*%
D13*
%TO.C,C1*%
X105080000Y-87300000D03*
D14*
X105080000Y-84800000D03*
%TD*%
D13*
%TO.C,C1_Servo1*%
X115240000Y-93650000D03*
D14*
X115240000Y-97150000D03*
%TD*%
D10*
%TO.C,J11-USBC1*%
X167310000Y-96190000D03*
D11*
X169850000Y-96190000D03*
X172390000Y-96190000D03*
X174930000Y-96190000D03*
X177470000Y-96190000D03*
X180010000Y-96190000D03*
X182550000Y-96190000D03*
X185090000Y-96190000D03*
%TD*%
M02*
