%TF.GenerationSoftware,KiCad,Pcbnew,8.0.8*%
%TF.CreationDate,2025-03-25T01:40:29-04:00*%
%TF.ProjectId,SmartValvePCBv2,536d6172-7456-4616-9c76-655043427632,rev?*%
%TF.SameCoordinates,Original*%
%TF.FileFunction,Legend,Bot*%
%TF.FilePolarity,Positive*%
%FSLAX46Y46*%
G04 Gerber Fmt 4.6, Leading zero omitted, Abs format (unit mm)*
G04 Created by KiCad (PCBNEW 8.0.8) date 2025-03-25 01:40:29*
%MOMM*%
%LPD*%
G01*
G04 APERTURE LIST*
%ADD10C,0.150000*%
%ADD11C,0.120000*%
G04 APERTURE END LIST*
D10*
X163163220Y-72856043D02*
X163163220Y-71856043D01*
X162591792Y-72856043D02*
X163020363Y-72284614D01*
X162591792Y-71856043D02*
X163163220Y-72427471D01*
X161734649Y-71856043D02*
X161925125Y-71856043D01*
X161925125Y-71856043D02*
X162020363Y-71903662D01*
X162020363Y-71903662D02*
X162067982Y-71951281D01*
X162067982Y-71951281D02*
X162163220Y-72094138D01*
X162163220Y-72094138D02*
X162210839Y-72284614D01*
X162210839Y-72284614D02*
X162210839Y-72665566D01*
X162210839Y-72665566D02*
X162163220Y-72760804D01*
X162163220Y-72760804D02*
X162115601Y-72808424D01*
X162115601Y-72808424D02*
X162020363Y-72856043D01*
X162020363Y-72856043D02*
X161829887Y-72856043D01*
X161829887Y-72856043D02*
X161734649Y-72808424D01*
X161734649Y-72808424D02*
X161687030Y-72760804D01*
X161687030Y-72760804D02*
X161639411Y-72665566D01*
X161639411Y-72665566D02*
X161639411Y-72427471D01*
X161639411Y-72427471D02*
X161687030Y-72332233D01*
X161687030Y-72332233D02*
X161734649Y-72284614D01*
X161734649Y-72284614D02*
X161829887Y-72236995D01*
X161829887Y-72236995D02*
X162020363Y-72236995D01*
X162020363Y-72236995D02*
X162115601Y-72284614D01*
X162115601Y-72284614D02*
X162163220Y-72332233D01*
X162163220Y-72332233D02*
X162210839Y-72427471D01*
X160782268Y-71856043D02*
X160972744Y-71856043D01*
X160972744Y-71856043D02*
X161067982Y-71903662D01*
X161067982Y-71903662D02*
X161115601Y-71951281D01*
X161115601Y-71951281D02*
X161210839Y-72094138D01*
X161210839Y-72094138D02*
X161258458Y-72284614D01*
X161258458Y-72284614D02*
X161258458Y-72665566D01*
X161258458Y-72665566D02*
X161210839Y-72760804D01*
X161210839Y-72760804D02*
X161163220Y-72808424D01*
X161163220Y-72808424D02*
X161067982Y-72856043D01*
X161067982Y-72856043D02*
X160877506Y-72856043D01*
X160877506Y-72856043D02*
X160782268Y-72808424D01*
X160782268Y-72808424D02*
X160734649Y-72760804D01*
X160734649Y-72760804D02*
X160687030Y-72665566D01*
X160687030Y-72665566D02*
X160687030Y-72427471D01*
X160687030Y-72427471D02*
X160734649Y-72332233D01*
X160734649Y-72332233D02*
X160782268Y-72284614D01*
X160782268Y-72284614D02*
X160877506Y-72236995D01*
X160877506Y-72236995D02*
X161067982Y-72236995D01*
X161067982Y-72236995D02*
X161163220Y-72284614D01*
X161163220Y-72284614D02*
X161210839Y-72332233D01*
X161210839Y-72332233D02*
X161258458Y-72427471D01*
X159925125Y-72332233D02*
X160258458Y-72332233D01*
X160258458Y-72856043D02*
X160258458Y-71856043D01*
X160258458Y-71856043D02*
X159782268Y-71856043D01*
X158639410Y-72856043D02*
X158639410Y-71856043D01*
X158639410Y-71856043D02*
X158306077Y-72570328D01*
X158306077Y-72570328D02*
X157972744Y-71856043D01*
X157972744Y-71856043D02*
X157972744Y-72856043D01*
X157067982Y-72189376D02*
X157067982Y-72856043D01*
X157496553Y-72189376D02*
X157496553Y-72713185D01*
X157496553Y-72713185D02*
X157448934Y-72808424D01*
X157448934Y-72808424D02*
X157353696Y-72856043D01*
X157353696Y-72856043D02*
X157210839Y-72856043D01*
X157210839Y-72856043D02*
X157115601Y-72808424D01*
X157115601Y-72808424D02*
X157067982Y-72760804D01*
X156448934Y-72856043D02*
X156544172Y-72808424D01*
X156544172Y-72808424D02*
X156591791Y-72713185D01*
X156591791Y-72713185D02*
X156591791Y-71856043D01*
X156210838Y-72189376D02*
X155829886Y-72189376D01*
X156067981Y-71856043D02*
X156067981Y-72713185D01*
X156067981Y-72713185D02*
X156020362Y-72808424D01*
X156020362Y-72808424D02*
X155925124Y-72856043D01*
X155925124Y-72856043D02*
X155829886Y-72856043D01*
X155496552Y-72856043D02*
X155496552Y-72189376D01*
X155496552Y-71856043D02*
X155544171Y-71903662D01*
X155544171Y-71903662D02*
X155496552Y-71951281D01*
X155496552Y-71951281D02*
X155448933Y-71903662D01*
X155448933Y-71903662D02*
X155496552Y-71856043D01*
X155496552Y-71856043D02*
X155496552Y-71951281D01*
X155163219Y-71856043D02*
X154591791Y-71856043D01*
X154877505Y-72856043D02*
X154877505Y-71856043D01*
X154115600Y-72856043D02*
X154210838Y-72808424D01*
X154210838Y-72808424D02*
X154258457Y-72760804D01*
X154258457Y-72760804D02*
X154306076Y-72665566D01*
X154306076Y-72665566D02*
X154306076Y-72379852D01*
X154306076Y-72379852D02*
X154258457Y-72284614D01*
X154258457Y-72284614D02*
X154210838Y-72236995D01*
X154210838Y-72236995D02*
X154115600Y-72189376D01*
X154115600Y-72189376D02*
X153972743Y-72189376D01*
X153972743Y-72189376D02*
X153877505Y-72236995D01*
X153877505Y-72236995D02*
X153829886Y-72284614D01*
X153829886Y-72284614D02*
X153782267Y-72379852D01*
X153782267Y-72379852D02*
X153782267Y-72665566D01*
X153782267Y-72665566D02*
X153829886Y-72760804D01*
X153829886Y-72760804D02*
X153877505Y-72808424D01*
X153877505Y-72808424D02*
X153972743Y-72856043D01*
X153972743Y-72856043D02*
X154115600Y-72856043D01*
X153210838Y-72856043D02*
X153306076Y-72808424D01*
X153306076Y-72808424D02*
X153353695Y-72760804D01*
X153353695Y-72760804D02*
X153401314Y-72665566D01*
X153401314Y-72665566D02*
X153401314Y-72379852D01*
X153401314Y-72379852D02*
X153353695Y-72284614D01*
X153353695Y-72284614D02*
X153306076Y-72236995D01*
X153306076Y-72236995D02*
X153210838Y-72189376D01*
X153210838Y-72189376D02*
X153067981Y-72189376D01*
X153067981Y-72189376D02*
X152972743Y-72236995D01*
X152972743Y-72236995D02*
X152925124Y-72284614D01*
X152925124Y-72284614D02*
X152877505Y-72379852D01*
X152877505Y-72379852D02*
X152877505Y-72665566D01*
X152877505Y-72665566D02*
X152925124Y-72760804D01*
X152925124Y-72760804D02*
X152972743Y-72808424D01*
X152972743Y-72808424D02*
X153067981Y-72856043D01*
X153067981Y-72856043D02*
X153210838Y-72856043D01*
X152306076Y-72856043D02*
X152401314Y-72808424D01*
X152401314Y-72808424D02*
X152448933Y-72713185D01*
X152448933Y-72713185D02*
X152448933Y-71856043D01*
X151210837Y-72808424D02*
X151067980Y-72856043D01*
X151067980Y-72856043D02*
X150829885Y-72856043D01*
X150829885Y-72856043D02*
X150734647Y-72808424D01*
X150734647Y-72808424D02*
X150687028Y-72760804D01*
X150687028Y-72760804D02*
X150639409Y-72665566D01*
X150639409Y-72665566D02*
X150639409Y-72570328D01*
X150639409Y-72570328D02*
X150687028Y-72475090D01*
X150687028Y-72475090D02*
X150734647Y-72427471D01*
X150734647Y-72427471D02*
X150829885Y-72379852D01*
X150829885Y-72379852D02*
X151020361Y-72332233D01*
X151020361Y-72332233D02*
X151115599Y-72284614D01*
X151115599Y-72284614D02*
X151163218Y-72236995D01*
X151163218Y-72236995D02*
X151210837Y-72141757D01*
X151210837Y-72141757D02*
X151210837Y-72046519D01*
X151210837Y-72046519D02*
X151163218Y-71951281D01*
X151163218Y-71951281D02*
X151115599Y-71903662D01*
X151115599Y-71903662D02*
X151020361Y-71856043D01*
X151020361Y-71856043D02*
X150782266Y-71856043D01*
X150782266Y-71856043D02*
X150639409Y-71903662D01*
X150210837Y-72856043D02*
X150210837Y-71856043D01*
X149782266Y-72856043D02*
X149782266Y-72332233D01*
X149782266Y-72332233D02*
X149829885Y-72236995D01*
X149829885Y-72236995D02*
X149925123Y-72189376D01*
X149925123Y-72189376D02*
X150067980Y-72189376D01*
X150067980Y-72189376D02*
X150163218Y-72236995D01*
X150163218Y-72236995D02*
X150210837Y-72284614D01*
X149306075Y-72856043D02*
X149306075Y-72189376D01*
X149306075Y-71856043D02*
X149353694Y-71903662D01*
X149353694Y-71903662D02*
X149306075Y-71951281D01*
X149306075Y-71951281D02*
X149258456Y-71903662D01*
X149258456Y-71903662D02*
X149306075Y-71856043D01*
X149306075Y-71856043D02*
X149306075Y-71951281D01*
X148448933Y-72808424D02*
X148544171Y-72856043D01*
X148544171Y-72856043D02*
X148734647Y-72856043D01*
X148734647Y-72856043D02*
X148829885Y-72808424D01*
X148829885Y-72808424D02*
X148877504Y-72713185D01*
X148877504Y-72713185D02*
X148877504Y-72332233D01*
X148877504Y-72332233D02*
X148829885Y-72236995D01*
X148829885Y-72236995D02*
X148734647Y-72189376D01*
X148734647Y-72189376D02*
X148544171Y-72189376D01*
X148544171Y-72189376D02*
X148448933Y-72236995D01*
X148448933Y-72236995D02*
X148401314Y-72332233D01*
X148401314Y-72332233D02*
X148401314Y-72427471D01*
X148401314Y-72427471D02*
X148877504Y-72522709D01*
X147829885Y-72856043D02*
X147925123Y-72808424D01*
X147925123Y-72808424D02*
X147972742Y-72713185D01*
X147972742Y-72713185D02*
X147972742Y-71856043D01*
X147020361Y-72856043D02*
X147020361Y-71856043D01*
X147020361Y-72808424D02*
X147115599Y-72856043D01*
X147115599Y-72856043D02*
X147306075Y-72856043D01*
X147306075Y-72856043D02*
X147401313Y-72808424D01*
X147401313Y-72808424D02*
X147448932Y-72760804D01*
X147448932Y-72760804D02*
X147496551Y-72665566D01*
X147496551Y-72665566D02*
X147496551Y-72379852D01*
X147496551Y-72379852D02*
X147448932Y-72284614D01*
X147448932Y-72284614D02*
X147401313Y-72236995D01*
X147401313Y-72236995D02*
X147306075Y-72189376D01*
X147306075Y-72189376D02*
X147115599Y-72189376D01*
X147115599Y-72189376D02*
X147020361Y-72236995D01*
X145877503Y-72189376D02*
X145639408Y-72856043D01*
X145639408Y-72856043D02*
X145401313Y-72189376D01*
X144496551Y-72856043D02*
X145067979Y-72856043D01*
X144782265Y-72856043D02*
X144782265Y-71856043D01*
X144782265Y-71856043D02*
X144877503Y-71998900D01*
X144877503Y-71998900D02*
X144972741Y-72094138D01*
X144972741Y-72094138D02*
X145067979Y-72141757D01*
X144067979Y-72760804D02*
X144020360Y-72808424D01*
X144020360Y-72808424D02*
X144067979Y-72856043D01*
X144067979Y-72856043D02*
X144115598Y-72808424D01*
X144115598Y-72808424D02*
X144067979Y-72760804D01*
X144067979Y-72760804D02*
X144067979Y-72856043D01*
X143401313Y-71856043D02*
X143306075Y-71856043D01*
X143306075Y-71856043D02*
X143210837Y-71903662D01*
X143210837Y-71903662D02*
X143163218Y-71951281D01*
X143163218Y-71951281D02*
X143115599Y-72046519D01*
X143115599Y-72046519D02*
X143067980Y-72236995D01*
X143067980Y-72236995D02*
X143067980Y-72475090D01*
X143067980Y-72475090D02*
X143115599Y-72665566D01*
X143115599Y-72665566D02*
X143163218Y-72760804D01*
X143163218Y-72760804D02*
X143210837Y-72808424D01*
X143210837Y-72808424D02*
X143306075Y-72856043D01*
X143306075Y-72856043D02*
X143401313Y-72856043D01*
X143401313Y-72856043D02*
X143496551Y-72808424D01*
X143496551Y-72808424D02*
X143544170Y-72760804D01*
X143544170Y-72760804D02*
X143591789Y-72665566D01*
X143591789Y-72665566D02*
X143639408Y-72475090D01*
X143639408Y-72475090D02*
X143639408Y-72236995D01*
X143639408Y-72236995D02*
X143591789Y-72046519D01*
X143591789Y-72046519D02*
X143544170Y-71951281D01*
X143544170Y-71951281D02*
X143496551Y-71903662D01*
X143496551Y-71903662D02*
X143401313Y-71856043D01*
X163210839Y-74180272D02*
X162734649Y-74180272D01*
X163306077Y-74465987D02*
X162972744Y-73465987D01*
X162972744Y-73465987D02*
X162639411Y-74465987D01*
X162306077Y-73465987D02*
X162306077Y-74275510D01*
X162306077Y-74275510D02*
X162258458Y-74370748D01*
X162258458Y-74370748D02*
X162210839Y-74418368D01*
X162210839Y-74418368D02*
X162115601Y-74465987D01*
X162115601Y-74465987D02*
X161925125Y-74465987D01*
X161925125Y-74465987D02*
X161829887Y-74418368D01*
X161829887Y-74418368D02*
X161782268Y-74370748D01*
X161782268Y-74370748D02*
X161734649Y-74275510D01*
X161734649Y-74275510D02*
X161734649Y-73465987D01*
X161401315Y-73465987D02*
X160829887Y-73465987D01*
X161115601Y-74465987D02*
X161115601Y-73465987D01*
X160496553Y-74465987D02*
X160496553Y-73465987D01*
X160496553Y-73942177D02*
X159925125Y-73942177D01*
X159925125Y-74465987D02*
X159925125Y-73465987D01*
X159258458Y-73465987D02*
X159067982Y-73465987D01*
X159067982Y-73465987D02*
X158972744Y-73513606D01*
X158972744Y-73513606D02*
X158877506Y-73608844D01*
X158877506Y-73608844D02*
X158829887Y-73799320D01*
X158829887Y-73799320D02*
X158829887Y-74132653D01*
X158829887Y-74132653D02*
X158877506Y-74323129D01*
X158877506Y-74323129D02*
X158972744Y-74418368D01*
X158972744Y-74418368D02*
X159067982Y-74465987D01*
X159067982Y-74465987D02*
X159258458Y-74465987D01*
X159258458Y-74465987D02*
X159353696Y-74418368D01*
X159353696Y-74418368D02*
X159448934Y-74323129D01*
X159448934Y-74323129D02*
X159496553Y-74132653D01*
X159496553Y-74132653D02*
X159496553Y-73799320D01*
X159496553Y-73799320D02*
X159448934Y-73608844D01*
X159448934Y-73608844D02*
X159353696Y-73513606D01*
X159353696Y-73513606D02*
X159258458Y-73465987D01*
X158401315Y-73465987D02*
X158401315Y-74275510D01*
X158401315Y-74275510D02*
X158353696Y-74370748D01*
X158353696Y-74370748D02*
X158306077Y-74418368D01*
X158306077Y-74418368D02*
X158210839Y-74465987D01*
X158210839Y-74465987D02*
X158020363Y-74465987D01*
X158020363Y-74465987D02*
X157925125Y-74418368D01*
X157925125Y-74418368D02*
X157877506Y-74370748D01*
X157877506Y-74370748D02*
X157829887Y-74275510D01*
X157829887Y-74275510D02*
X157829887Y-73465987D01*
X156782268Y-74465987D02*
X157115601Y-73989796D01*
X157353696Y-74465987D02*
X157353696Y-73465987D01*
X157353696Y-73465987D02*
X156972744Y-73465987D01*
X156972744Y-73465987D02*
X156877506Y-73513606D01*
X156877506Y-73513606D02*
X156829887Y-73561225D01*
X156829887Y-73561225D02*
X156782268Y-73656463D01*
X156782268Y-73656463D02*
X156782268Y-73799320D01*
X156782268Y-73799320D02*
X156829887Y-73894558D01*
X156829887Y-73894558D02*
X156877506Y-73942177D01*
X156877506Y-73942177D02*
X156972744Y-73989796D01*
X156972744Y-73989796D02*
X157353696Y-73989796D01*
X155591791Y-74085034D02*
X154829887Y-74085034D01*
X153591791Y-74465987D02*
X153591791Y-73465987D01*
X153020363Y-74465987D02*
X153448934Y-73894558D01*
X153020363Y-73465987D02*
X153591791Y-74037415D01*
X152591791Y-73942177D02*
X152258458Y-73942177D01*
X152115601Y-74465987D02*
X152591791Y-74465987D01*
X152591791Y-74465987D02*
X152591791Y-73465987D01*
X152591791Y-73465987D02*
X152115601Y-73465987D01*
X151829886Y-73465987D02*
X151496553Y-74465987D01*
X151496553Y-74465987D02*
X151163220Y-73465987D01*
X150829886Y-74465987D02*
X150829886Y-73465987D01*
X150353696Y-74465987D02*
X150353696Y-73465987D01*
X150353696Y-73465987D02*
X149782268Y-74465987D01*
X149782268Y-74465987D02*
X149782268Y-73465987D01*
X148544172Y-74085034D02*
X147782268Y-74085034D01*
X146591791Y-74180272D02*
X146115601Y-74180272D01*
X146687029Y-74465987D02*
X146353696Y-73465987D01*
X146353696Y-73465987D02*
X146020363Y-74465987D01*
X145687029Y-74465987D02*
X145687029Y-73465987D01*
X145687029Y-73465987D02*
X145353696Y-74180272D01*
X145353696Y-74180272D02*
X145020363Y-73465987D01*
X145020363Y-73465987D02*
X145020363Y-74465987D01*
X144544172Y-74465987D02*
X144544172Y-73465987D01*
X143496554Y-74465987D02*
X143829887Y-73989796D01*
X144067982Y-74465987D02*
X144067982Y-73465987D01*
X144067982Y-73465987D02*
X143687030Y-73465987D01*
X143687030Y-73465987D02*
X143591792Y-73513606D01*
X143591792Y-73513606D02*
X143544173Y-73561225D01*
X143544173Y-73561225D02*
X143496554Y-73656463D01*
X143496554Y-73656463D02*
X143496554Y-73799320D01*
X143496554Y-73799320D02*
X143544173Y-73894558D01*
X143544173Y-73894558D02*
X143591792Y-73942177D01*
X143591792Y-73942177D02*
X143687030Y-73989796D01*
X143687030Y-73989796D02*
X144067982Y-73989796D01*
X142306077Y-74085034D02*
X141544173Y-74085034D01*
X140448934Y-73465987D02*
X139877506Y-73465987D01*
X140163220Y-74465987D02*
X140163220Y-73465987D01*
X139353696Y-73465987D02*
X139163220Y-73465987D01*
X139163220Y-73465987D02*
X139067982Y-73513606D01*
X139067982Y-73513606D02*
X138972744Y-73608844D01*
X138972744Y-73608844D02*
X138925125Y-73799320D01*
X138925125Y-73799320D02*
X138925125Y-74132653D01*
X138925125Y-74132653D02*
X138972744Y-74323129D01*
X138972744Y-74323129D02*
X139067982Y-74418368D01*
X139067982Y-74418368D02*
X139163220Y-74465987D01*
X139163220Y-74465987D02*
X139353696Y-74465987D01*
X139353696Y-74465987D02*
X139448934Y-74418368D01*
X139448934Y-74418368D02*
X139544172Y-74323129D01*
X139544172Y-74323129D02*
X139591791Y-74132653D01*
X139591791Y-74132653D02*
X139591791Y-73799320D01*
X139591791Y-73799320D02*
X139544172Y-73608844D01*
X139544172Y-73608844D02*
X139448934Y-73513606D01*
X139448934Y-73513606D02*
X139353696Y-73465987D01*
X138544172Y-74180272D02*
X138067982Y-74180272D01*
X138639410Y-74465987D02*
X138306077Y-73465987D01*
X138306077Y-73465987D02*
X137972744Y-74465987D01*
X137639410Y-74465987D02*
X137639410Y-73465987D01*
X137639410Y-73465987D02*
X137067982Y-74465987D01*
X137067982Y-74465987D02*
X137067982Y-73465987D01*
X163163220Y-76075931D02*
X163163220Y-75075931D01*
X162687030Y-76075931D02*
X162687030Y-75075931D01*
X162687030Y-75075931D02*
X162115602Y-76075931D01*
X162115602Y-76075931D02*
X162115602Y-75075931D01*
X161687030Y-76028312D02*
X161544173Y-76075931D01*
X161544173Y-76075931D02*
X161306078Y-76075931D01*
X161306078Y-76075931D02*
X161210840Y-76028312D01*
X161210840Y-76028312D02*
X161163221Y-75980692D01*
X161163221Y-75980692D02*
X161115602Y-75885454D01*
X161115602Y-75885454D02*
X161115602Y-75790216D01*
X161115602Y-75790216D02*
X161163221Y-75694978D01*
X161163221Y-75694978D02*
X161210840Y-75647359D01*
X161210840Y-75647359D02*
X161306078Y-75599740D01*
X161306078Y-75599740D02*
X161496554Y-75552121D01*
X161496554Y-75552121D02*
X161591792Y-75504502D01*
X161591792Y-75504502D02*
X161639411Y-75456883D01*
X161639411Y-75456883D02*
X161687030Y-75361645D01*
X161687030Y-75361645D02*
X161687030Y-75266407D01*
X161687030Y-75266407D02*
X161639411Y-75171169D01*
X161639411Y-75171169D02*
X161591792Y-75123550D01*
X161591792Y-75123550D02*
X161496554Y-75075931D01*
X161496554Y-75075931D02*
X161258459Y-75075931D01*
X161258459Y-75075931D02*
X161115602Y-75123550D01*
X160829887Y-75075931D02*
X160258459Y-75075931D01*
X160544173Y-76075931D02*
X160544173Y-75075931D01*
X159353697Y-76075931D02*
X159687030Y-75599740D01*
X159925125Y-76075931D02*
X159925125Y-75075931D01*
X159925125Y-75075931D02*
X159544173Y-75075931D01*
X159544173Y-75075931D02*
X159448935Y-75123550D01*
X159448935Y-75123550D02*
X159401316Y-75171169D01*
X159401316Y-75171169D02*
X159353697Y-75266407D01*
X159353697Y-75266407D02*
X159353697Y-75409264D01*
X159353697Y-75409264D02*
X159401316Y-75504502D01*
X159401316Y-75504502D02*
X159448935Y-75552121D01*
X159448935Y-75552121D02*
X159544173Y-75599740D01*
X159544173Y-75599740D02*
X159925125Y-75599740D01*
X158925125Y-75075931D02*
X158925125Y-75885454D01*
X158925125Y-75885454D02*
X158877506Y-75980692D01*
X158877506Y-75980692D02*
X158829887Y-76028312D01*
X158829887Y-76028312D02*
X158734649Y-76075931D01*
X158734649Y-76075931D02*
X158544173Y-76075931D01*
X158544173Y-76075931D02*
X158448935Y-76028312D01*
X158448935Y-76028312D02*
X158401316Y-75980692D01*
X158401316Y-75980692D02*
X158353697Y-75885454D01*
X158353697Y-75885454D02*
X158353697Y-75075931D01*
X157306078Y-75980692D02*
X157353697Y-76028312D01*
X157353697Y-76028312D02*
X157496554Y-76075931D01*
X157496554Y-76075931D02*
X157591792Y-76075931D01*
X157591792Y-76075931D02*
X157734649Y-76028312D01*
X157734649Y-76028312D02*
X157829887Y-75933073D01*
X157829887Y-75933073D02*
X157877506Y-75837835D01*
X157877506Y-75837835D02*
X157925125Y-75647359D01*
X157925125Y-75647359D02*
X157925125Y-75504502D01*
X157925125Y-75504502D02*
X157877506Y-75314026D01*
X157877506Y-75314026D02*
X157829887Y-75218788D01*
X157829887Y-75218788D02*
X157734649Y-75123550D01*
X157734649Y-75123550D02*
X157591792Y-75075931D01*
X157591792Y-75075931D02*
X157496554Y-75075931D01*
X157496554Y-75075931D02*
X157353697Y-75123550D01*
X157353697Y-75123550D02*
X157306078Y-75171169D01*
X157020363Y-75075931D02*
X156448935Y-75075931D01*
X156734649Y-76075931D02*
X156734649Y-75075931D01*
X155925125Y-75075931D02*
X155734649Y-75075931D01*
X155734649Y-75075931D02*
X155639411Y-75123550D01*
X155639411Y-75123550D02*
X155544173Y-75218788D01*
X155544173Y-75218788D02*
X155496554Y-75409264D01*
X155496554Y-75409264D02*
X155496554Y-75742597D01*
X155496554Y-75742597D02*
X155544173Y-75933073D01*
X155544173Y-75933073D02*
X155639411Y-76028312D01*
X155639411Y-76028312D02*
X155734649Y-76075931D01*
X155734649Y-76075931D02*
X155925125Y-76075931D01*
X155925125Y-76075931D02*
X156020363Y-76028312D01*
X156020363Y-76028312D02*
X156115601Y-75933073D01*
X156115601Y-75933073D02*
X156163220Y-75742597D01*
X156163220Y-75742597D02*
X156163220Y-75409264D01*
X156163220Y-75409264D02*
X156115601Y-75218788D01*
X156115601Y-75218788D02*
X156020363Y-75123550D01*
X156020363Y-75123550D02*
X155925125Y-75075931D01*
X154496554Y-76075931D02*
X154829887Y-75599740D01*
X155067982Y-76075931D02*
X155067982Y-75075931D01*
X155067982Y-75075931D02*
X154687030Y-75075931D01*
X154687030Y-75075931D02*
X154591792Y-75123550D01*
X154591792Y-75123550D02*
X154544173Y-75171169D01*
X154544173Y-75171169D02*
X154496554Y-75266407D01*
X154496554Y-75266407D02*
X154496554Y-75409264D01*
X154496554Y-75409264D02*
X154544173Y-75504502D01*
X154544173Y-75504502D02*
X154591792Y-75552121D01*
X154591792Y-75552121D02*
X154687030Y-75599740D01*
X154687030Y-75599740D02*
X155067982Y-75599740D01*
X153306077Y-75694978D02*
X152544173Y-75694978D01*
X151020363Y-75075931D02*
X151020363Y-75790216D01*
X151020363Y-75790216D02*
X151067982Y-75933073D01*
X151067982Y-75933073D02*
X151163220Y-76028312D01*
X151163220Y-76028312D02*
X151306077Y-76075931D01*
X151306077Y-76075931D02*
X151401315Y-76075931D01*
X150591791Y-75790216D02*
X150115601Y-75790216D01*
X150687029Y-76075931D02*
X150353696Y-75075931D01*
X150353696Y-75075931D02*
X150020363Y-76075931D01*
X149115601Y-75980692D02*
X149163220Y-76028312D01*
X149163220Y-76028312D02*
X149306077Y-76075931D01*
X149306077Y-76075931D02*
X149401315Y-76075931D01*
X149401315Y-76075931D02*
X149544172Y-76028312D01*
X149544172Y-76028312D02*
X149639410Y-75933073D01*
X149639410Y-75933073D02*
X149687029Y-75837835D01*
X149687029Y-75837835D02*
X149734648Y-75647359D01*
X149734648Y-75647359D02*
X149734648Y-75504502D01*
X149734648Y-75504502D02*
X149687029Y-75314026D01*
X149687029Y-75314026D02*
X149639410Y-75218788D01*
X149639410Y-75218788D02*
X149544172Y-75123550D01*
X149544172Y-75123550D02*
X149401315Y-75075931D01*
X149401315Y-75075931D02*
X149306077Y-75075931D01*
X149306077Y-75075931D02*
X149163220Y-75123550D01*
X149163220Y-75123550D02*
X149115601Y-75171169D01*
X148687029Y-76075931D02*
X148687029Y-75075931D01*
X148115601Y-76075931D02*
X148544172Y-75504502D01*
X148115601Y-75075931D02*
X148687029Y-75647359D01*
X147496553Y-75599740D02*
X147496553Y-76075931D01*
X147829886Y-75075931D02*
X147496553Y-75599740D01*
X147496553Y-75599740D02*
X147163220Y-75075931D01*
X145591791Y-76075931D02*
X146067981Y-76075931D01*
X146067981Y-76075931D02*
X146067981Y-75075931D01*
X145306076Y-75790216D02*
X144829886Y-75790216D01*
X145401314Y-76075931D02*
X145067981Y-75075931D01*
X145067981Y-75075931D02*
X144734648Y-76075931D01*
X144401314Y-75075931D02*
X144401314Y-75885454D01*
X144401314Y-75885454D02*
X144353695Y-75980692D01*
X144353695Y-75980692D02*
X144306076Y-76028312D01*
X144306076Y-76028312D02*
X144210838Y-76075931D01*
X144210838Y-76075931D02*
X144020362Y-76075931D01*
X144020362Y-76075931D02*
X143925124Y-76028312D01*
X143925124Y-76028312D02*
X143877505Y-75980692D01*
X143877505Y-75980692D02*
X143829886Y-75885454D01*
X143829886Y-75885454D02*
X143829886Y-75075931D01*
X163163220Y-77685875D02*
X163163220Y-76685875D01*
X163163220Y-76685875D02*
X162782268Y-76685875D01*
X162782268Y-76685875D02*
X162687030Y-76733494D01*
X162687030Y-76733494D02*
X162639411Y-76781113D01*
X162639411Y-76781113D02*
X162591792Y-76876351D01*
X162591792Y-76876351D02*
X162591792Y-77019208D01*
X162591792Y-77019208D02*
X162639411Y-77114446D01*
X162639411Y-77114446D02*
X162687030Y-77162065D01*
X162687030Y-77162065D02*
X162782268Y-77209684D01*
X162782268Y-77209684D02*
X163163220Y-77209684D01*
X161591792Y-77685875D02*
X161925125Y-77209684D01*
X162163220Y-77685875D02*
X162163220Y-76685875D01*
X162163220Y-76685875D02*
X161782268Y-76685875D01*
X161782268Y-76685875D02*
X161687030Y-76733494D01*
X161687030Y-76733494D02*
X161639411Y-76781113D01*
X161639411Y-76781113D02*
X161591792Y-76876351D01*
X161591792Y-76876351D02*
X161591792Y-77019208D01*
X161591792Y-77019208D02*
X161639411Y-77114446D01*
X161639411Y-77114446D02*
X161687030Y-77162065D01*
X161687030Y-77162065D02*
X161782268Y-77209684D01*
X161782268Y-77209684D02*
X162163220Y-77209684D01*
X160972744Y-76685875D02*
X160782268Y-76685875D01*
X160782268Y-76685875D02*
X160687030Y-76733494D01*
X160687030Y-76733494D02*
X160591792Y-76828732D01*
X160591792Y-76828732D02*
X160544173Y-77019208D01*
X160544173Y-77019208D02*
X160544173Y-77352541D01*
X160544173Y-77352541D02*
X160591792Y-77543017D01*
X160591792Y-77543017D02*
X160687030Y-77638256D01*
X160687030Y-77638256D02*
X160782268Y-77685875D01*
X160782268Y-77685875D02*
X160972744Y-77685875D01*
X160972744Y-77685875D02*
X161067982Y-77638256D01*
X161067982Y-77638256D02*
X161163220Y-77543017D01*
X161163220Y-77543017D02*
X161210839Y-77352541D01*
X161210839Y-77352541D02*
X161210839Y-77019208D01*
X161210839Y-77019208D02*
X161163220Y-76828732D01*
X161163220Y-76828732D02*
X161067982Y-76733494D01*
X161067982Y-76733494D02*
X160972744Y-76685875D01*
X159591792Y-76733494D02*
X159687030Y-76685875D01*
X159687030Y-76685875D02*
X159829887Y-76685875D01*
X159829887Y-76685875D02*
X159972744Y-76733494D01*
X159972744Y-76733494D02*
X160067982Y-76828732D01*
X160067982Y-76828732D02*
X160115601Y-76923970D01*
X160115601Y-76923970D02*
X160163220Y-77114446D01*
X160163220Y-77114446D02*
X160163220Y-77257303D01*
X160163220Y-77257303D02*
X160115601Y-77447779D01*
X160115601Y-77447779D02*
X160067982Y-77543017D01*
X160067982Y-77543017D02*
X159972744Y-77638256D01*
X159972744Y-77638256D02*
X159829887Y-77685875D01*
X159829887Y-77685875D02*
X159734649Y-77685875D01*
X159734649Y-77685875D02*
X159591792Y-77638256D01*
X159591792Y-77638256D02*
X159544173Y-77590636D01*
X159544173Y-77590636D02*
X159544173Y-77257303D01*
X159544173Y-77257303D02*
X159734649Y-77257303D01*
X158544173Y-77685875D02*
X158877506Y-77209684D01*
X159115601Y-77685875D02*
X159115601Y-76685875D01*
X159115601Y-76685875D02*
X158734649Y-76685875D01*
X158734649Y-76685875D02*
X158639411Y-76733494D01*
X158639411Y-76733494D02*
X158591792Y-76781113D01*
X158591792Y-76781113D02*
X158544173Y-76876351D01*
X158544173Y-76876351D02*
X158544173Y-77019208D01*
X158544173Y-77019208D02*
X158591792Y-77114446D01*
X158591792Y-77114446D02*
X158639411Y-77162065D01*
X158639411Y-77162065D02*
X158734649Y-77209684D01*
X158734649Y-77209684D02*
X159115601Y-77209684D01*
X158163220Y-77400160D02*
X157687030Y-77400160D01*
X158258458Y-77685875D02*
X157925125Y-76685875D01*
X157925125Y-76685875D02*
X157591792Y-77685875D01*
X157258458Y-77685875D02*
X157258458Y-76685875D01*
X157258458Y-76685875D02*
X156925125Y-77400160D01*
X156925125Y-77400160D02*
X156591792Y-76685875D01*
X156591792Y-76685875D02*
X156591792Y-77685875D01*
X155353696Y-77304922D02*
X154591792Y-77304922D01*
X153401315Y-77638256D02*
X153258458Y-77685875D01*
X153258458Y-77685875D02*
X153020363Y-77685875D01*
X153020363Y-77685875D02*
X152925125Y-77638256D01*
X152925125Y-77638256D02*
X152877506Y-77590636D01*
X152877506Y-77590636D02*
X152829887Y-77495398D01*
X152829887Y-77495398D02*
X152829887Y-77400160D01*
X152829887Y-77400160D02*
X152877506Y-77304922D01*
X152877506Y-77304922D02*
X152925125Y-77257303D01*
X152925125Y-77257303D02*
X153020363Y-77209684D01*
X153020363Y-77209684D02*
X153210839Y-77162065D01*
X153210839Y-77162065D02*
X153306077Y-77114446D01*
X153306077Y-77114446D02*
X153353696Y-77066827D01*
X153353696Y-77066827D02*
X153401315Y-76971589D01*
X153401315Y-76971589D02*
X153401315Y-76876351D01*
X153401315Y-76876351D02*
X153353696Y-76781113D01*
X153353696Y-76781113D02*
X153306077Y-76733494D01*
X153306077Y-76733494D02*
X153210839Y-76685875D01*
X153210839Y-76685875D02*
X152972744Y-76685875D01*
X152972744Y-76685875D02*
X152829887Y-76733494D01*
X152401315Y-77162065D02*
X152067982Y-77162065D01*
X151925125Y-77685875D02*
X152401315Y-77685875D01*
X152401315Y-77685875D02*
X152401315Y-76685875D01*
X152401315Y-76685875D02*
X151925125Y-76685875D01*
X151496553Y-77685875D02*
X151496553Y-76685875D01*
X151496553Y-76685875D02*
X151115601Y-76685875D01*
X151115601Y-76685875D02*
X151020363Y-76733494D01*
X151020363Y-76733494D02*
X150972744Y-76781113D01*
X150972744Y-76781113D02*
X150925125Y-76876351D01*
X150925125Y-76876351D02*
X150925125Y-77019208D01*
X150925125Y-77019208D02*
X150972744Y-77114446D01*
X150972744Y-77114446D02*
X151020363Y-77162065D01*
X151020363Y-77162065D02*
X151115601Y-77209684D01*
X151115601Y-77209684D02*
X151496553Y-77209684D01*
X150067982Y-76685875D02*
X150258458Y-76685875D01*
X150258458Y-76685875D02*
X150353696Y-76733494D01*
X150353696Y-76733494D02*
X150401315Y-76781113D01*
X150401315Y-76781113D02*
X150496553Y-76923970D01*
X150496553Y-76923970D02*
X150544172Y-77114446D01*
X150544172Y-77114446D02*
X150544172Y-77495398D01*
X150544172Y-77495398D02*
X150496553Y-77590636D01*
X150496553Y-77590636D02*
X150448934Y-77638256D01*
X150448934Y-77638256D02*
X150353696Y-77685875D01*
X150353696Y-77685875D02*
X150163220Y-77685875D01*
X150163220Y-77685875D02*
X150067982Y-77638256D01*
X150067982Y-77638256D02*
X150020363Y-77590636D01*
X150020363Y-77590636D02*
X149972744Y-77495398D01*
X149972744Y-77495398D02*
X149972744Y-77257303D01*
X149972744Y-77257303D02*
X150020363Y-77162065D01*
X150020363Y-77162065D02*
X150067982Y-77114446D01*
X150067982Y-77114446D02*
X150163220Y-77066827D01*
X150163220Y-77066827D02*
X150353696Y-77066827D01*
X150353696Y-77066827D02*
X150448934Y-77114446D01*
X150448934Y-77114446D02*
X150496553Y-77162065D01*
X150496553Y-77162065D02*
X150544172Y-77257303D01*
X149353696Y-76685875D02*
X149258458Y-76685875D01*
X149258458Y-76685875D02*
X149163220Y-76733494D01*
X149163220Y-76733494D02*
X149115601Y-76781113D01*
X149115601Y-76781113D02*
X149067982Y-76876351D01*
X149067982Y-76876351D02*
X149020363Y-77066827D01*
X149020363Y-77066827D02*
X149020363Y-77304922D01*
X149020363Y-77304922D02*
X149067982Y-77495398D01*
X149067982Y-77495398D02*
X149115601Y-77590636D01*
X149115601Y-77590636D02*
X149163220Y-77638256D01*
X149163220Y-77638256D02*
X149258458Y-77685875D01*
X149258458Y-77685875D02*
X149353696Y-77685875D01*
X149353696Y-77685875D02*
X149448934Y-77638256D01*
X149448934Y-77638256D02*
X149496553Y-77590636D01*
X149496553Y-77590636D02*
X149544172Y-77495398D01*
X149544172Y-77495398D02*
X149591791Y-77304922D01*
X149591791Y-77304922D02*
X149591791Y-77066827D01*
X149591791Y-77066827D02*
X149544172Y-76876351D01*
X149544172Y-76876351D02*
X149496553Y-76781113D01*
X149496553Y-76781113D02*
X149448934Y-76733494D01*
X149448934Y-76733494D02*
X149353696Y-76685875D01*
X148401315Y-76685875D02*
X148306077Y-76685875D01*
X148306077Y-76685875D02*
X148210839Y-76733494D01*
X148210839Y-76733494D02*
X148163220Y-76781113D01*
X148163220Y-76781113D02*
X148115601Y-76876351D01*
X148115601Y-76876351D02*
X148067982Y-77066827D01*
X148067982Y-77066827D02*
X148067982Y-77304922D01*
X148067982Y-77304922D02*
X148115601Y-77495398D01*
X148115601Y-77495398D02*
X148163220Y-77590636D01*
X148163220Y-77590636D02*
X148210839Y-77638256D01*
X148210839Y-77638256D02*
X148306077Y-77685875D01*
X148306077Y-77685875D02*
X148401315Y-77685875D01*
X148401315Y-77685875D02*
X148496553Y-77638256D01*
X148496553Y-77638256D02*
X148544172Y-77590636D01*
X148544172Y-77590636D02*
X148591791Y-77495398D01*
X148591791Y-77495398D02*
X148639410Y-77304922D01*
X148639410Y-77304922D02*
X148639410Y-77066827D01*
X148639410Y-77066827D02*
X148591791Y-76876351D01*
X148591791Y-76876351D02*
X148544172Y-76781113D01*
X148544172Y-76781113D02*
X148496553Y-76733494D01*
X148496553Y-76733494D02*
X148401315Y-76685875D01*
X146877505Y-77304922D02*
X146115601Y-77304922D01*
X144544172Y-77162065D02*
X144401315Y-77209684D01*
X144401315Y-77209684D02*
X144353696Y-77257303D01*
X144353696Y-77257303D02*
X144306077Y-77352541D01*
X144306077Y-77352541D02*
X144306077Y-77495398D01*
X144306077Y-77495398D02*
X144353696Y-77590636D01*
X144353696Y-77590636D02*
X144401315Y-77638256D01*
X144401315Y-77638256D02*
X144496553Y-77685875D01*
X144496553Y-77685875D02*
X144877505Y-77685875D01*
X144877505Y-77685875D02*
X144877505Y-76685875D01*
X144877505Y-76685875D02*
X144544172Y-76685875D01*
X144544172Y-76685875D02*
X144448934Y-76733494D01*
X144448934Y-76733494D02*
X144401315Y-76781113D01*
X144401315Y-76781113D02*
X144353696Y-76876351D01*
X144353696Y-76876351D02*
X144353696Y-76971589D01*
X144353696Y-76971589D02*
X144401315Y-77066827D01*
X144401315Y-77066827D02*
X144448934Y-77114446D01*
X144448934Y-77114446D02*
X144544172Y-77162065D01*
X144544172Y-77162065D02*
X144877505Y-77162065D01*
X143925124Y-77638256D02*
X143782267Y-77685875D01*
X143782267Y-77685875D02*
X143544172Y-77685875D01*
X143544172Y-77685875D02*
X143448934Y-77638256D01*
X143448934Y-77638256D02*
X143401315Y-77590636D01*
X143401315Y-77590636D02*
X143353696Y-77495398D01*
X143353696Y-77495398D02*
X143353696Y-77400160D01*
X143353696Y-77400160D02*
X143401315Y-77304922D01*
X143401315Y-77304922D02*
X143448934Y-77257303D01*
X143448934Y-77257303D02*
X143544172Y-77209684D01*
X143544172Y-77209684D02*
X143734648Y-77162065D01*
X143734648Y-77162065D02*
X143829886Y-77114446D01*
X143829886Y-77114446D02*
X143877505Y-77066827D01*
X143877505Y-77066827D02*
X143925124Y-76971589D01*
X143925124Y-76971589D02*
X143925124Y-76876351D01*
X143925124Y-76876351D02*
X143877505Y-76781113D01*
X143877505Y-76781113D02*
X143829886Y-76733494D01*
X143829886Y-76733494D02*
X143734648Y-76685875D01*
X143734648Y-76685875D02*
X143496553Y-76685875D01*
X143496553Y-76685875D02*
X143353696Y-76733494D01*
X142972743Y-77400160D02*
X142496553Y-77400160D01*
X143067981Y-77685875D02*
X142734648Y-76685875D01*
X142734648Y-76685875D02*
X142401315Y-77685875D01*
X163163220Y-79295819D02*
X163163220Y-78295819D01*
X163163220Y-78295819D02*
X162925125Y-78295819D01*
X162925125Y-78295819D02*
X162782268Y-78343438D01*
X162782268Y-78343438D02*
X162687030Y-78438676D01*
X162687030Y-78438676D02*
X162639411Y-78533914D01*
X162639411Y-78533914D02*
X162591792Y-78724390D01*
X162591792Y-78724390D02*
X162591792Y-78867247D01*
X162591792Y-78867247D02*
X162639411Y-79057723D01*
X162639411Y-79057723D02*
X162687030Y-79152961D01*
X162687030Y-79152961D02*
X162782268Y-79248200D01*
X162782268Y-79248200D02*
X162925125Y-79295819D01*
X162925125Y-79295819D02*
X163163220Y-79295819D01*
X162210839Y-79010104D02*
X161734649Y-79010104D01*
X162306077Y-79295819D02*
X161972744Y-78295819D01*
X161972744Y-78295819D02*
X161639411Y-79295819D01*
X161448934Y-78295819D02*
X160877506Y-78295819D01*
X161163220Y-79295819D02*
X161163220Y-78295819D01*
X160544172Y-78772009D02*
X160210839Y-78772009D01*
X160067982Y-79295819D02*
X160544172Y-79295819D01*
X160544172Y-79295819D02*
X160544172Y-78295819D01*
X160544172Y-78295819D02*
X160067982Y-78295819D01*
X158877505Y-78914866D02*
X158115601Y-78914866D01*
X156877505Y-79295819D02*
X156877505Y-78295819D01*
X156877505Y-78295819D02*
X156544172Y-79010104D01*
X156544172Y-79010104D02*
X156210839Y-78295819D01*
X156210839Y-78295819D02*
X156210839Y-79295819D01*
X155782267Y-79010104D02*
X155306077Y-79010104D01*
X155877505Y-79295819D02*
X155544172Y-78295819D01*
X155544172Y-78295819D02*
X155210839Y-79295819D01*
X154306077Y-79295819D02*
X154639410Y-78819628D01*
X154877505Y-79295819D02*
X154877505Y-78295819D01*
X154877505Y-78295819D02*
X154496553Y-78295819D01*
X154496553Y-78295819D02*
X154401315Y-78343438D01*
X154401315Y-78343438D02*
X154353696Y-78391057D01*
X154353696Y-78391057D02*
X154306077Y-78486295D01*
X154306077Y-78486295D02*
X154306077Y-78629152D01*
X154306077Y-78629152D02*
X154353696Y-78724390D01*
X154353696Y-78724390D02*
X154401315Y-78772009D01*
X154401315Y-78772009D02*
X154496553Y-78819628D01*
X154496553Y-78819628D02*
X154877505Y-78819628D01*
X153306077Y-79200580D02*
X153353696Y-79248200D01*
X153353696Y-79248200D02*
X153496553Y-79295819D01*
X153496553Y-79295819D02*
X153591791Y-79295819D01*
X153591791Y-79295819D02*
X153734648Y-79248200D01*
X153734648Y-79248200D02*
X153829886Y-79152961D01*
X153829886Y-79152961D02*
X153877505Y-79057723D01*
X153877505Y-79057723D02*
X153925124Y-78867247D01*
X153925124Y-78867247D02*
X153925124Y-78724390D01*
X153925124Y-78724390D02*
X153877505Y-78533914D01*
X153877505Y-78533914D02*
X153829886Y-78438676D01*
X153829886Y-78438676D02*
X153734648Y-78343438D01*
X153734648Y-78343438D02*
X153591791Y-78295819D01*
X153591791Y-78295819D02*
X153496553Y-78295819D01*
X153496553Y-78295819D02*
X153353696Y-78343438D01*
X153353696Y-78343438D02*
X153306077Y-78391057D01*
X152877505Y-79295819D02*
X152877505Y-78295819D01*
X152877505Y-78772009D02*
X152306077Y-78772009D01*
X152306077Y-79295819D02*
X152306077Y-78295819D01*
X151115600Y-78391057D02*
X151067981Y-78343438D01*
X151067981Y-78343438D02*
X150972743Y-78295819D01*
X150972743Y-78295819D02*
X150734648Y-78295819D01*
X150734648Y-78295819D02*
X150639410Y-78343438D01*
X150639410Y-78343438D02*
X150591791Y-78391057D01*
X150591791Y-78391057D02*
X150544172Y-78486295D01*
X150544172Y-78486295D02*
X150544172Y-78581533D01*
X150544172Y-78581533D02*
X150591791Y-78724390D01*
X150591791Y-78724390D02*
X151163219Y-79295819D01*
X151163219Y-79295819D02*
X150544172Y-79295819D01*
X149925124Y-78295819D02*
X149829886Y-78295819D01*
X149829886Y-78295819D02*
X149734648Y-78343438D01*
X149734648Y-78343438D02*
X149687029Y-78391057D01*
X149687029Y-78391057D02*
X149639410Y-78486295D01*
X149639410Y-78486295D02*
X149591791Y-78676771D01*
X149591791Y-78676771D02*
X149591791Y-78914866D01*
X149591791Y-78914866D02*
X149639410Y-79105342D01*
X149639410Y-79105342D02*
X149687029Y-79200580D01*
X149687029Y-79200580D02*
X149734648Y-79248200D01*
X149734648Y-79248200D02*
X149829886Y-79295819D01*
X149829886Y-79295819D02*
X149925124Y-79295819D01*
X149925124Y-79295819D02*
X150020362Y-79248200D01*
X150020362Y-79248200D02*
X150067981Y-79200580D01*
X150067981Y-79200580D02*
X150115600Y-79105342D01*
X150115600Y-79105342D02*
X150163219Y-78914866D01*
X150163219Y-78914866D02*
X150163219Y-78676771D01*
X150163219Y-78676771D02*
X150115600Y-78486295D01*
X150115600Y-78486295D02*
X150067981Y-78391057D01*
X150067981Y-78391057D02*
X150020362Y-78343438D01*
X150020362Y-78343438D02*
X149925124Y-78295819D01*
X149210838Y-78391057D02*
X149163219Y-78343438D01*
X149163219Y-78343438D02*
X149067981Y-78295819D01*
X149067981Y-78295819D02*
X148829886Y-78295819D01*
X148829886Y-78295819D02*
X148734648Y-78343438D01*
X148734648Y-78343438D02*
X148687029Y-78391057D01*
X148687029Y-78391057D02*
X148639410Y-78486295D01*
X148639410Y-78486295D02*
X148639410Y-78581533D01*
X148639410Y-78581533D02*
X148687029Y-78724390D01*
X148687029Y-78724390D02*
X149258457Y-79295819D01*
X149258457Y-79295819D02*
X148639410Y-79295819D01*
X147734648Y-78295819D02*
X148210838Y-78295819D01*
X148210838Y-78295819D02*
X148258457Y-78772009D01*
X148258457Y-78772009D02*
X148210838Y-78724390D01*
X148210838Y-78724390D02*
X148115600Y-78676771D01*
X148115600Y-78676771D02*
X147877505Y-78676771D01*
X147877505Y-78676771D02*
X147782267Y-78724390D01*
X147782267Y-78724390D02*
X147734648Y-78772009D01*
X147734648Y-78772009D02*
X147687029Y-78867247D01*
X147687029Y-78867247D02*
X147687029Y-79105342D01*
X147687029Y-79105342D02*
X147734648Y-79200580D01*
X147734648Y-79200580D02*
X147782267Y-79248200D01*
X147782267Y-79248200D02*
X147877505Y-79295819D01*
X147877505Y-79295819D02*
X148115600Y-79295819D01*
X148115600Y-79295819D02*
X148210838Y-79248200D01*
X148210838Y-79248200D02*
X148258457Y-79200580D01*
X185184761Y-93104819D02*
X185184761Y-93819104D01*
X185184761Y-93819104D02*
X185232380Y-93961961D01*
X185232380Y-93961961D02*
X185327618Y-94057200D01*
X185327618Y-94057200D02*
X185470475Y-94104819D01*
X185470475Y-94104819D02*
X185565713Y-94104819D01*
X184184761Y-94104819D02*
X184756189Y-94104819D01*
X184470475Y-94104819D02*
X184470475Y-93104819D01*
X184470475Y-93104819D02*
X184565713Y-93247676D01*
X184565713Y-93247676D02*
X184660951Y-93342914D01*
X184660951Y-93342914D02*
X184756189Y-93390533D01*
X183232380Y-94104819D02*
X183803808Y-94104819D01*
X183518094Y-94104819D02*
X183518094Y-93104819D01*
X183518094Y-93104819D02*
X183613332Y-93247676D01*
X183613332Y-93247676D02*
X183708570Y-93342914D01*
X183708570Y-93342914D02*
X183803808Y-93390533D01*
X182803808Y-93723866D02*
X182041904Y-93723866D01*
X181565713Y-93104819D02*
X181565713Y-93914342D01*
X181565713Y-93914342D02*
X181518094Y-94009580D01*
X181518094Y-94009580D02*
X181470475Y-94057200D01*
X181470475Y-94057200D02*
X181375237Y-94104819D01*
X181375237Y-94104819D02*
X181184761Y-94104819D01*
X181184761Y-94104819D02*
X181089523Y-94057200D01*
X181089523Y-94057200D02*
X181041904Y-94009580D01*
X181041904Y-94009580D02*
X180994285Y-93914342D01*
X180994285Y-93914342D02*
X180994285Y-93104819D01*
X180565713Y-94057200D02*
X180422856Y-94104819D01*
X180422856Y-94104819D02*
X180184761Y-94104819D01*
X180184761Y-94104819D02*
X180089523Y-94057200D01*
X180089523Y-94057200D02*
X180041904Y-94009580D01*
X180041904Y-94009580D02*
X179994285Y-93914342D01*
X179994285Y-93914342D02*
X179994285Y-93819104D01*
X179994285Y-93819104D02*
X180041904Y-93723866D01*
X180041904Y-93723866D02*
X180089523Y-93676247D01*
X180089523Y-93676247D02*
X180184761Y-93628628D01*
X180184761Y-93628628D02*
X180375237Y-93581009D01*
X180375237Y-93581009D02*
X180470475Y-93533390D01*
X180470475Y-93533390D02*
X180518094Y-93485771D01*
X180518094Y-93485771D02*
X180565713Y-93390533D01*
X180565713Y-93390533D02*
X180565713Y-93295295D01*
X180565713Y-93295295D02*
X180518094Y-93200057D01*
X180518094Y-93200057D02*
X180470475Y-93152438D01*
X180470475Y-93152438D02*
X180375237Y-93104819D01*
X180375237Y-93104819D02*
X180137142Y-93104819D01*
X180137142Y-93104819D02*
X179994285Y-93152438D01*
X179232380Y-93581009D02*
X179089523Y-93628628D01*
X179089523Y-93628628D02*
X179041904Y-93676247D01*
X179041904Y-93676247D02*
X178994285Y-93771485D01*
X178994285Y-93771485D02*
X178994285Y-93914342D01*
X178994285Y-93914342D02*
X179041904Y-94009580D01*
X179041904Y-94009580D02*
X179089523Y-94057200D01*
X179089523Y-94057200D02*
X179184761Y-94104819D01*
X179184761Y-94104819D02*
X179565713Y-94104819D01*
X179565713Y-94104819D02*
X179565713Y-93104819D01*
X179565713Y-93104819D02*
X179232380Y-93104819D01*
X179232380Y-93104819D02*
X179137142Y-93152438D01*
X179137142Y-93152438D02*
X179089523Y-93200057D01*
X179089523Y-93200057D02*
X179041904Y-93295295D01*
X179041904Y-93295295D02*
X179041904Y-93390533D01*
X179041904Y-93390533D02*
X179089523Y-93485771D01*
X179089523Y-93485771D02*
X179137142Y-93533390D01*
X179137142Y-93533390D02*
X179232380Y-93581009D01*
X179232380Y-93581009D02*
X179565713Y-93581009D01*
X177994285Y-94009580D02*
X178041904Y-94057200D01*
X178041904Y-94057200D02*
X178184761Y-94104819D01*
X178184761Y-94104819D02*
X178279999Y-94104819D01*
X178279999Y-94104819D02*
X178422856Y-94057200D01*
X178422856Y-94057200D02*
X178518094Y-93961961D01*
X178518094Y-93961961D02*
X178565713Y-93866723D01*
X178565713Y-93866723D02*
X178613332Y-93676247D01*
X178613332Y-93676247D02*
X178613332Y-93533390D01*
X178613332Y-93533390D02*
X178565713Y-93342914D01*
X178565713Y-93342914D02*
X178518094Y-93247676D01*
X178518094Y-93247676D02*
X178422856Y-93152438D01*
X178422856Y-93152438D02*
X178279999Y-93104819D01*
X178279999Y-93104819D02*
X178184761Y-93104819D01*
X178184761Y-93104819D02*
X178041904Y-93152438D01*
X178041904Y-93152438D02*
X177994285Y-93200057D01*
X177041904Y-94104819D02*
X177613332Y-94104819D01*
X177327618Y-94104819D02*
X177327618Y-93104819D01*
X177327618Y-93104819D02*
X177422856Y-93247676D01*
X177422856Y-93247676D02*
X177518094Y-93342914D01*
X177518094Y-93342914D02*
X177613332Y-93390533D01*
D11*
%TO.C,J11-USBC1*%
X165980000Y-97630000D02*
X165980000Y-100290000D01*
X165980000Y-100290000D02*
X186420000Y-100290000D01*
X166040000Y-94920000D02*
X167310000Y-94920000D01*
X166040000Y-96190000D02*
X166040000Y-94920000D01*
X166930000Y-97630000D02*
X166930000Y-97300000D01*
X166930000Y-106290000D02*
X166930000Y-100290000D01*
X166990000Y-106290000D02*
X166990000Y-100290000D01*
X167110000Y-106290000D02*
X167110000Y-100290000D01*
X167230000Y-106290000D02*
X167230000Y-100290000D01*
X167350000Y-106290000D02*
X167350000Y-100290000D01*
X167470000Y-106290000D02*
X167470000Y-100290000D01*
X167590000Y-106290000D02*
X167590000Y-100290000D01*
X167690000Y-97630000D02*
X167690000Y-97300000D01*
X167690000Y-100290000D02*
X167690000Y-106290000D01*
X167690000Y-106290000D02*
X166930000Y-106290000D01*
X168580000Y-100290000D02*
X168580000Y-97630000D01*
X169470000Y-97630000D02*
X169470000Y-97232929D01*
X169470000Y-106290000D02*
X169470000Y-100290000D01*
X170230000Y-97630000D02*
X170230000Y-97232929D01*
X170230000Y-100290000D02*
X170230000Y-106290000D01*
X170230000Y-106290000D02*
X169470000Y-106290000D01*
X171120000Y-100290000D02*
X171120000Y-97630000D01*
X172010000Y-97630000D02*
X172010000Y-97232929D01*
X172010000Y-106290000D02*
X172010000Y-100290000D01*
X172770000Y-97630000D02*
X172770000Y-97232929D01*
X172770000Y-100290000D02*
X172770000Y-106290000D01*
X172770000Y-106290000D02*
X172010000Y-106290000D01*
X173660000Y-100290000D02*
X173660000Y-97630000D01*
X174550000Y-97630000D02*
X174550000Y-97232929D01*
X174550000Y-106290000D02*
X174550000Y-100290000D01*
X175310000Y-97630000D02*
X175310000Y-97232929D01*
X175310000Y-100290000D02*
X175310000Y-106290000D01*
X175310000Y-106290000D02*
X174550000Y-106290000D01*
X176200000Y-100290000D02*
X176200000Y-97630000D01*
X177090000Y-97630000D02*
X177090000Y-97232929D01*
X177090000Y-106290000D02*
X177090000Y-100290000D01*
X177850000Y-97630000D02*
X177850000Y-97232929D01*
X177850000Y-100290000D02*
X177850000Y-106290000D01*
X177850000Y-106290000D02*
X177090000Y-106290000D01*
X178740000Y-100290000D02*
X178740000Y-97630000D01*
X179630000Y-97630000D02*
X179630000Y-97232929D01*
X179630000Y-106290000D02*
X179630000Y-100290000D01*
X180390000Y-97630000D02*
X180390000Y-97232929D01*
X180390000Y-100290000D02*
X180390000Y-106290000D01*
X180390000Y-106290000D02*
X179630000Y-106290000D01*
X181280000Y-100290000D02*
X181280000Y-97630000D01*
X182170000Y-97630000D02*
X182170000Y-97232929D01*
X182170000Y-106290000D02*
X182170000Y-100290000D01*
X182930000Y-97630000D02*
X182930000Y-97232929D01*
X182930000Y-100290000D02*
X182930000Y-106290000D01*
X182930000Y-106290000D02*
X182170000Y-106290000D01*
X183820000Y-100290000D02*
X183820000Y-97630000D01*
X184710000Y-97630000D02*
X184710000Y-97232929D01*
X184710000Y-106290000D02*
X184710000Y-100290000D01*
X185470000Y-97630000D02*
X185470000Y-97232929D01*
X185470000Y-100290000D02*
X185470000Y-106290000D01*
X185470000Y-106290000D02*
X184710000Y-106290000D01*
X186420000Y-97630000D02*
X165980000Y-97630000D01*
X186420000Y-100290000D02*
X186420000Y-97630000D01*
%TD*%
M02*
